%TF.GenerationSoftware,KiCad,Pcbnew,9.0.7*%
%TF.CreationDate,2026-02-22T15:55:57+00:00*%
%TF.ProjectId,audiovisualiser,61756469-6f76-4697-9375-616c69736572,rev?*%
%TF.SameCoordinates,Original*%
%TF.FileFunction,Legend,Bot*%
%TF.FilePolarity,Positive*%
%FSLAX46Y46*%
G04 Gerber Fmt 4.6, Leading zero omitted, Abs format (unit mm)*
G04 Created by KiCad (PCBNEW 9.0.7) date 2026-02-22 15:55:57*
%MOMM*%
%LPD*%
G01*
G04 APERTURE LIST*
%ADD10C,0.100000*%
G04 APERTURE END LIST*
D10*
X209362782Y-157348609D02*
X209219925Y-157396228D01*
X209219925Y-157396228D02*
X209172306Y-157443847D01*
X209172306Y-157443847D02*
X209124687Y-157539085D01*
X209124687Y-157539085D02*
X209124687Y-157681942D01*
X209124687Y-157681942D02*
X209172306Y-157777180D01*
X209172306Y-157777180D02*
X209219925Y-157824800D01*
X209219925Y-157824800D02*
X209315163Y-157872419D01*
X209315163Y-157872419D02*
X209696115Y-157872419D01*
X209696115Y-157872419D02*
X209696115Y-156872419D01*
X209696115Y-156872419D02*
X209362782Y-156872419D01*
X209362782Y-156872419D02*
X209267544Y-156920038D01*
X209267544Y-156920038D02*
X209219925Y-156967657D01*
X209219925Y-156967657D02*
X209172306Y-157062895D01*
X209172306Y-157062895D02*
X209172306Y-157158133D01*
X209172306Y-157158133D02*
X209219925Y-157253371D01*
X209219925Y-157253371D02*
X209267544Y-157300990D01*
X209267544Y-157300990D02*
X209362782Y-157348609D01*
X209362782Y-157348609D02*
X209696115Y-157348609D01*
X208553258Y-157872419D02*
X208648496Y-157824800D01*
X208648496Y-157824800D02*
X208696115Y-157777180D01*
X208696115Y-157777180D02*
X208743734Y-157681942D01*
X208743734Y-157681942D02*
X208743734Y-157396228D01*
X208743734Y-157396228D02*
X208696115Y-157300990D01*
X208696115Y-157300990D02*
X208648496Y-157253371D01*
X208648496Y-157253371D02*
X208553258Y-157205752D01*
X208553258Y-157205752D02*
X208410401Y-157205752D01*
X208410401Y-157205752D02*
X208315163Y-157253371D01*
X208315163Y-157253371D02*
X208267544Y-157300990D01*
X208267544Y-157300990D02*
X208219925Y-157396228D01*
X208219925Y-157396228D02*
X208219925Y-157681942D01*
X208219925Y-157681942D02*
X208267544Y-157777180D01*
X208267544Y-157777180D02*
X208315163Y-157824800D01*
X208315163Y-157824800D02*
X208410401Y-157872419D01*
X208410401Y-157872419D02*
X208553258Y-157872419D01*
X207934210Y-157205752D02*
X207553258Y-157205752D01*
X207791353Y-156872419D02*
X207791353Y-157729561D01*
X207791353Y-157729561D02*
X207743734Y-157824800D01*
X207743734Y-157824800D02*
X207648496Y-157872419D01*
X207648496Y-157872419D02*
X207553258Y-157872419D01*
X207362781Y-157205752D02*
X206981829Y-157205752D01*
X207219924Y-156872419D02*
X207219924Y-157729561D01*
X207219924Y-157729561D02*
X207172305Y-157824800D01*
X207172305Y-157824800D02*
X207077067Y-157872419D01*
X207077067Y-157872419D02*
X206981829Y-157872419D01*
X206505638Y-157872419D02*
X206600876Y-157824800D01*
X206600876Y-157824800D02*
X206648495Y-157777180D01*
X206648495Y-157777180D02*
X206696114Y-157681942D01*
X206696114Y-157681942D02*
X206696114Y-157396228D01*
X206696114Y-157396228D02*
X206648495Y-157300990D01*
X206648495Y-157300990D02*
X206600876Y-157253371D01*
X206600876Y-157253371D02*
X206505638Y-157205752D01*
X206505638Y-157205752D02*
X206362781Y-157205752D01*
X206362781Y-157205752D02*
X206267543Y-157253371D01*
X206267543Y-157253371D02*
X206219924Y-157300990D01*
X206219924Y-157300990D02*
X206172305Y-157396228D01*
X206172305Y-157396228D02*
X206172305Y-157681942D01*
X206172305Y-157681942D02*
X206219924Y-157777180D01*
X206219924Y-157777180D02*
X206267543Y-157824800D01*
X206267543Y-157824800D02*
X206362781Y-157872419D01*
X206362781Y-157872419D02*
X206505638Y-157872419D01*
X205743733Y-157872419D02*
X205743733Y-157205752D01*
X205743733Y-157300990D02*
X205696114Y-157253371D01*
X205696114Y-157253371D02*
X205600876Y-157205752D01*
X205600876Y-157205752D02*
X205458019Y-157205752D01*
X205458019Y-157205752D02*
X205362781Y-157253371D01*
X205362781Y-157253371D02*
X205315162Y-157348609D01*
X205315162Y-157348609D02*
X205315162Y-157872419D01*
X205315162Y-157348609D02*
X205267543Y-157253371D01*
X205267543Y-157253371D02*
X205172305Y-157205752D01*
X205172305Y-157205752D02*
X205029448Y-157205752D01*
X205029448Y-157205752D02*
X204934209Y-157253371D01*
X204934209Y-157253371D02*
X204886590Y-157348609D01*
X204886590Y-157348609D02*
X204886590Y-157872419D01*
X203172305Y-157872419D02*
X203648495Y-157872419D01*
X203648495Y-157872419D02*
X203648495Y-156872419D01*
X202410400Y-157872419D02*
X202410400Y-157348609D01*
X202410400Y-157348609D02*
X202458019Y-157253371D01*
X202458019Y-157253371D02*
X202553257Y-157205752D01*
X202553257Y-157205752D02*
X202743733Y-157205752D01*
X202743733Y-157205752D02*
X202838971Y-157253371D01*
X202410400Y-157824800D02*
X202505638Y-157872419D01*
X202505638Y-157872419D02*
X202743733Y-157872419D01*
X202743733Y-157872419D02*
X202838971Y-157824800D01*
X202838971Y-157824800D02*
X202886590Y-157729561D01*
X202886590Y-157729561D02*
X202886590Y-157634323D01*
X202886590Y-157634323D02*
X202838971Y-157539085D01*
X202838971Y-157539085D02*
X202743733Y-157491466D01*
X202743733Y-157491466D02*
X202505638Y-157491466D01*
X202505638Y-157491466D02*
X202410400Y-157443847D01*
X202029447Y-157205752D02*
X201791352Y-157872419D01*
X201553257Y-157205752D02*
X201791352Y-157872419D01*
X201791352Y-157872419D02*
X201886590Y-158110514D01*
X201886590Y-158110514D02*
X201934209Y-158158133D01*
X201934209Y-158158133D02*
X202029447Y-158205752D01*
X200791352Y-157824800D02*
X200886590Y-157872419D01*
X200886590Y-157872419D02*
X201077066Y-157872419D01*
X201077066Y-157872419D02*
X201172304Y-157824800D01*
X201172304Y-157824800D02*
X201219923Y-157729561D01*
X201219923Y-157729561D02*
X201219923Y-157348609D01*
X201219923Y-157348609D02*
X201172304Y-157253371D01*
X201172304Y-157253371D02*
X201077066Y-157205752D01*
X201077066Y-157205752D02*
X200886590Y-157205752D01*
X200886590Y-157205752D02*
X200791352Y-157253371D01*
X200791352Y-157253371D02*
X200743733Y-157348609D01*
X200743733Y-157348609D02*
X200743733Y-157443847D01*
X200743733Y-157443847D02*
X201219923Y-157539085D01*
X200315161Y-157872419D02*
X200315161Y-157205752D01*
X200315161Y-157396228D02*
X200267542Y-157300990D01*
X200267542Y-157300990D02*
X200219923Y-157253371D01*
X200219923Y-157253371D02*
X200124685Y-157205752D01*
X200124685Y-157205752D02*
X200029447Y-157205752D01*
M02*
