%TF.GenerationSoftware,KiCad,Pcbnew,9.0.7*%
%TF.CreationDate,2026-02-22T15:55:57+00:00*%
%TF.ProjectId,audiovisualiser,61756469-6f76-4697-9375-616c69736572,rev?*%
%TF.SameCoordinates,Original*%
%TF.FileFunction,Legend,Top*%
%TF.FilePolarity,Positive*%
%FSLAX46Y46*%
G04 Gerber Fmt 4.6, Leading zero omitted, Abs format (unit mm)*
G04 Created by KiCad (PCBNEW 9.0.7) date 2026-02-22 15:55:57*
%MOMM*%
%LPD*%
G01*
G04 APERTURE LIST*
%ADD10C,0.100000*%
%ADD11C,0.150000*%
%ADD12C,0.120000*%
G04 APERTURE END LIST*
D10*
X99053884Y-118491466D02*
X99815789Y-118491466D01*
X99434836Y-118872419D02*
X99434836Y-118110514D01*
X214803884Y-86991466D02*
X215565789Y-86991466D01*
X215184836Y-87372419D02*
X215184836Y-86610514D01*
X214803884Y-108991466D02*
X215565789Y-108991466D01*
X215184836Y-109372419D02*
X215184836Y-108610514D01*
X213803884Y-138991466D02*
X214565789Y-138991466D01*
X214184836Y-139372419D02*
X214184836Y-138610514D01*
X105000000Y-153000000D02*
X131000000Y-153000000D01*
X131000000Y-158000000D01*
X105000000Y-158000000D01*
X105000000Y-153000000D01*
X156161027Y-109872419D02*
X156494360Y-110872419D01*
X156494360Y-110872419D02*
X156827693Y-109872419D01*
X156922932Y-110967657D02*
X157684836Y-110967657D01*
X157875313Y-110586704D02*
X158351503Y-110586704D01*
X157780075Y-110872419D02*
X158113408Y-109872419D01*
X158113408Y-109872419D02*
X158446741Y-110872419D01*
X158780075Y-110872419D02*
X158780075Y-109872419D01*
X158780075Y-109872419D02*
X159113408Y-110586704D01*
X159113408Y-110586704D02*
X159446741Y-109872419D01*
X159446741Y-109872419D02*
X159446741Y-110872419D01*
X159922932Y-110872419D02*
X159922932Y-109872419D01*
X159922932Y-109872419D02*
X160303884Y-109872419D01*
X160303884Y-109872419D02*
X160399122Y-109920038D01*
X160399122Y-109920038D02*
X160446741Y-109967657D01*
X160446741Y-109967657D02*
X160494360Y-110062895D01*
X160494360Y-110062895D02*
X160494360Y-110205752D01*
X160494360Y-110205752D02*
X160446741Y-110300990D01*
X160446741Y-110300990D02*
X160399122Y-110348609D01*
X160399122Y-110348609D02*
X160303884Y-110396228D01*
X160303884Y-110396228D02*
X159922932Y-110396228D01*
X198637217Y-71348609D02*
X198780074Y-71396228D01*
X198780074Y-71396228D02*
X198827693Y-71443847D01*
X198827693Y-71443847D02*
X198875312Y-71539085D01*
X198875312Y-71539085D02*
X198875312Y-71681942D01*
X198875312Y-71681942D02*
X198827693Y-71777180D01*
X198827693Y-71777180D02*
X198780074Y-71824800D01*
X198780074Y-71824800D02*
X198684836Y-71872419D01*
X198684836Y-71872419D02*
X198303884Y-71872419D01*
X198303884Y-71872419D02*
X198303884Y-70872419D01*
X198303884Y-70872419D02*
X198637217Y-70872419D01*
X198637217Y-70872419D02*
X198732455Y-70920038D01*
X198732455Y-70920038D02*
X198780074Y-70967657D01*
X198780074Y-70967657D02*
X198827693Y-71062895D01*
X198827693Y-71062895D02*
X198827693Y-71158133D01*
X198827693Y-71158133D02*
X198780074Y-71253371D01*
X198780074Y-71253371D02*
X198732455Y-71300990D01*
X198732455Y-71300990D02*
X198637217Y-71348609D01*
X198637217Y-71348609D02*
X198303884Y-71348609D01*
X199256265Y-71586704D02*
X199732455Y-71586704D01*
X199161027Y-71872419D02*
X199494360Y-70872419D01*
X199494360Y-70872419D02*
X199827693Y-71872419D01*
X200113408Y-71824800D02*
X200256265Y-71872419D01*
X200256265Y-71872419D02*
X200494360Y-71872419D01*
X200494360Y-71872419D02*
X200589598Y-71824800D01*
X200589598Y-71824800D02*
X200637217Y-71777180D01*
X200637217Y-71777180D02*
X200684836Y-71681942D01*
X200684836Y-71681942D02*
X200684836Y-71586704D01*
X200684836Y-71586704D02*
X200637217Y-71491466D01*
X200637217Y-71491466D02*
X200589598Y-71443847D01*
X200589598Y-71443847D02*
X200494360Y-71396228D01*
X200494360Y-71396228D02*
X200303884Y-71348609D01*
X200303884Y-71348609D02*
X200208646Y-71300990D01*
X200208646Y-71300990D02*
X200161027Y-71253371D01*
X200161027Y-71253371D02*
X200113408Y-71158133D01*
X200113408Y-71158133D02*
X200113408Y-71062895D01*
X200113408Y-71062895D02*
X200161027Y-70967657D01*
X200161027Y-70967657D02*
X200208646Y-70920038D01*
X200208646Y-70920038D02*
X200303884Y-70872419D01*
X200303884Y-70872419D02*
X200541979Y-70872419D01*
X200541979Y-70872419D02*
X200684836Y-70920038D01*
X201113408Y-71348609D02*
X201446741Y-71348609D01*
X201589598Y-71872419D02*
X201113408Y-71872419D01*
X201113408Y-71872419D02*
X201113408Y-70872419D01*
X201113408Y-70872419D02*
X201589598Y-70872419D01*
X201780075Y-71967657D02*
X202541979Y-71967657D01*
X203256265Y-71872419D02*
X202780075Y-71872419D01*
X202780075Y-71872419D02*
X202780075Y-70872419D01*
X203780075Y-70872419D02*
X203970551Y-70872419D01*
X203970551Y-70872419D02*
X204065789Y-70920038D01*
X204065789Y-70920038D02*
X204161027Y-71015276D01*
X204161027Y-71015276D02*
X204208646Y-71205752D01*
X204208646Y-71205752D02*
X204208646Y-71539085D01*
X204208646Y-71539085D02*
X204161027Y-71729561D01*
X204161027Y-71729561D02*
X204065789Y-71824800D01*
X204065789Y-71824800D02*
X203970551Y-71872419D01*
X203970551Y-71872419D02*
X203780075Y-71872419D01*
X203780075Y-71872419D02*
X203684837Y-71824800D01*
X203684837Y-71824800D02*
X203589599Y-71729561D01*
X203589599Y-71729561D02*
X203541980Y-71539085D01*
X203541980Y-71539085D02*
X203541980Y-71205752D01*
X203541980Y-71205752D02*
X203589599Y-71015276D01*
X203589599Y-71015276D02*
X203684837Y-70920038D01*
X203684837Y-70920038D02*
X203780075Y-70872419D01*
X204541980Y-70872419D02*
X204780075Y-71872419D01*
X204780075Y-71872419D02*
X204970551Y-71158133D01*
X204970551Y-71158133D02*
X205161027Y-71872419D01*
X205161027Y-71872419D02*
X205399123Y-70872419D01*
X203637217Y-133348609D02*
X203780074Y-133396228D01*
X203780074Y-133396228D02*
X203827693Y-133443847D01*
X203827693Y-133443847D02*
X203875312Y-133539085D01*
X203875312Y-133539085D02*
X203875312Y-133681942D01*
X203875312Y-133681942D02*
X203827693Y-133777180D01*
X203827693Y-133777180D02*
X203780074Y-133824800D01*
X203780074Y-133824800D02*
X203684836Y-133872419D01*
X203684836Y-133872419D02*
X203303884Y-133872419D01*
X203303884Y-133872419D02*
X203303884Y-132872419D01*
X203303884Y-132872419D02*
X203637217Y-132872419D01*
X203637217Y-132872419D02*
X203732455Y-132920038D01*
X203732455Y-132920038D02*
X203780074Y-132967657D01*
X203780074Y-132967657D02*
X203827693Y-133062895D01*
X203827693Y-133062895D02*
X203827693Y-133158133D01*
X203827693Y-133158133D02*
X203780074Y-133253371D01*
X203780074Y-133253371D02*
X203732455Y-133300990D01*
X203732455Y-133300990D02*
X203637217Y-133348609D01*
X203637217Y-133348609D02*
X203303884Y-133348609D01*
X204256265Y-133586704D02*
X204732455Y-133586704D01*
X204161027Y-133872419D02*
X204494360Y-132872419D01*
X204494360Y-132872419D02*
X204827693Y-133872419D01*
X205113408Y-133824800D02*
X205256265Y-133872419D01*
X205256265Y-133872419D02*
X205494360Y-133872419D01*
X205494360Y-133872419D02*
X205589598Y-133824800D01*
X205589598Y-133824800D02*
X205637217Y-133777180D01*
X205637217Y-133777180D02*
X205684836Y-133681942D01*
X205684836Y-133681942D02*
X205684836Y-133586704D01*
X205684836Y-133586704D02*
X205637217Y-133491466D01*
X205637217Y-133491466D02*
X205589598Y-133443847D01*
X205589598Y-133443847D02*
X205494360Y-133396228D01*
X205494360Y-133396228D02*
X205303884Y-133348609D01*
X205303884Y-133348609D02*
X205208646Y-133300990D01*
X205208646Y-133300990D02*
X205161027Y-133253371D01*
X205161027Y-133253371D02*
X205113408Y-133158133D01*
X205113408Y-133158133D02*
X205113408Y-133062895D01*
X205113408Y-133062895D02*
X205161027Y-132967657D01*
X205161027Y-132967657D02*
X205208646Y-132920038D01*
X205208646Y-132920038D02*
X205303884Y-132872419D01*
X205303884Y-132872419D02*
X205541979Y-132872419D01*
X205541979Y-132872419D02*
X205684836Y-132920038D01*
X206113408Y-133348609D02*
X206446741Y-133348609D01*
X206589598Y-133872419D02*
X206113408Y-133872419D01*
X206113408Y-133872419D02*
X206113408Y-132872419D01*
X206113408Y-132872419D02*
X206589598Y-132872419D01*
X206780075Y-133967657D02*
X207541979Y-133967657D01*
X207780075Y-133872419D02*
X207780075Y-132872419D01*
X207780075Y-133348609D02*
X208351503Y-133348609D01*
X208351503Y-133872419D02*
X208351503Y-132872419D01*
X208827694Y-133872419D02*
X208827694Y-132872419D01*
X209827693Y-132920038D02*
X209732455Y-132872419D01*
X209732455Y-132872419D02*
X209589598Y-132872419D01*
X209589598Y-132872419D02*
X209446741Y-132920038D01*
X209446741Y-132920038D02*
X209351503Y-133015276D01*
X209351503Y-133015276D02*
X209303884Y-133110514D01*
X209303884Y-133110514D02*
X209256265Y-133300990D01*
X209256265Y-133300990D02*
X209256265Y-133443847D01*
X209256265Y-133443847D02*
X209303884Y-133634323D01*
X209303884Y-133634323D02*
X209351503Y-133729561D01*
X209351503Y-133729561D02*
X209446741Y-133824800D01*
X209446741Y-133824800D02*
X209589598Y-133872419D01*
X209589598Y-133872419D02*
X209684836Y-133872419D01*
X209684836Y-133872419D02*
X209827693Y-133824800D01*
X209827693Y-133824800D02*
X209875312Y-133777180D01*
X209875312Y-133777180D02*
X209875312Y-133443847D01*
X209875312Y-133443847D02*
X209684836Y-133443847D01*
X210303884Y-133872419D02*
X210303884Y-132872419D01*
X210303884Y-133348609D02*
X210875312Y-133348609D01*
X210875312Y-133872419D02*
X210875312Y-132872419D01*
X180494360Y-78872419D02*
X180684836Y-78872419D01*
X180684836Y-78872419D02*
X180780074Y-78920038D01*
X180780074Y-78920038D02*
X180875312Y-79015276D01*
X180875312Y-79015276D02*
X180922931Y-79205752D01*
X180922931Y-79205752D02*
X180922931Y-79539085D01*
X180922931Y-79539085D02*
X180875312Y-79729561D01*
X180875312Y-79729561D02*
X180780074Y-79824800D01*
X180780074Y-79824800D02*
X180684836Y-79872419D01*
X180684836Y-79872419D02*
X180494360Y-79872419D01*
X180494360Y-79872419D02*
X180399122Y-79824800D01*
X180399122Y-79824800D02*
X180303884Y-79729561D01*
X180303884Y-79729561D02*
X180256265Y-79539085D01*
X180256265Y-79539085D02*
X180256265Y-79205752D01*
X180256265Y-79205752D02*
X180303884Y-79015276D01*
X180303884Y-79015276D02*
X180399122Y-78920038D01*
X180399122Y-78920038D02*
X180494360Y-78872419D01*
X181351503Y-78872419D02*
X181351503Y-79681942D01*
X181351503Y-79681942D02*
X181399122Y-79777180D01*
X181399122Y-79777180D02*
X181446741Y-79824800D01*
X181446741Y-79824800D02*
X181541979Y-79872419D01*
X181541979Y-79872419D02*
X181732455Y-79872419D01*
X181732455Y-79872419D02*
X181827693Y-79824800D01*
X181827693Y-79824800D02*
X181875312Y-79777180D01*
X181875312Y-79777180D02*
X181922931Y-79681942D01*
X181922931Y-79681942D02*
X181922931Y-78872419D01*
X182256265Y-78872419D02*
X182827693Y-78872419D01*
X182541979Y-79872419D02*
X182541979Y-78872419D01*
X182922932Y-79967657D02*
X183684836Y-79967657D01*
X184399122Y-79872419D02*
X183922932Y-79872419D01*
X183922932Y-79872419D02*
X183922932Y-78872419D01*
X184922932Y-78872419D02*
X185113408Y-78872419D01*
X185113408Y-78872419D02*
X185208646Y-78920038D01*
X185208646Y-78920038D02*
X185303884Y-79015276D01*
X185303884Y-79015276D02*
X185351503Y-79205752D01*
X185351503Y-79205752D02*
X185351503Y-79539085D01*
X185351503Y-79539085D02*
X185303884Y-79729561D01*
X185303884Y-79729561D02*
X185208646Y-79824800D01*
X185208646Y-79824800D02*
X185113408Y-79872419D01*
X185113408Y-79872419D02*
X184922932Y-79872419D01*
X184922932Y-79872419D02*
X184827694Y-79824800D01*
X184827694Y-79824800D02*
X184732456Y-79729561D01*
X184732456Y-79729561D02*
X184684837Y-79539085D01*
X184684837Y-79539085D02*
X184684837Y-79205752D01*
X184684837Y-79205752D02*
X184732456Y-79015276D01*
X184732456Y-79015276D02*
X184827694Y-78920038D01*
X184827694Y-78920038D02*
X184922932Y-78872419D01*
X185684837Y-78872419D02*
X185922932Y-79872419D01*
X185922932Y-79872419D02*
X186113408Y-79158133D01*
X186113408Y-79158133D02*
X186303884Y-79872419D01*
X186303884Y-79872419D02*
X186541980Y-78872419D01*
X110161027Y-76572419D02*
X110494360Y-77572419D01*
X110494360Y-77572419D02*
X110827693Y-76572419D01*
X111113408Y-77286704D02*
X111589598Y-77286704D01*
X111018170Y-77572419D02*
X111351503Y-76572419D01*
X111351503Y-76572419D02*
X111684836Y-77572419D01*
X112589598Y-77477180D02*
X112541979Y-77524800D01*
X112541979Y-77524800D02*
X112399122Y-77572419D01*
X112399122Y-77572419D02*
X112303884Y-77572419D01*
X112303884Y-77572419D02*
X112161027Y-77524800D01*
X112161027Y-77524800D02*
X112065789Y-77429561D01*
X112065789Y-77429561D02*
X112018170Y-77334323D01*
X112018170Y-77334323D02*
X111970551Y-77143847D01*
X111970551Y-77143847D02*
X111970551Y-77000990D01*
X111970551Y-77000990D02*
X112018170Y-76810514D01*
X112018170Y-76810514D02*
X112065789Y-76715276D01*
X112065789Y-76715276D02*
X112161027Y-76620038D01*
X112161027Y-76620038D02*
X112303884Y-76572419D01*
X112303884Y-76572419D02*
X112399122Y-76572419D01*
X112399122Y-76572419D02*
X112541979Y-76620038D01*
X112541979Y-76620038D02*
X112589598Y-76667657D01*
X113018170Y-77191466D02*
X113780075Y-77191466D01*
X93736860Y-97872419D02*
X93927336Y-97872419D01*
X93927336Y-97872419D02*
X94022574Y-97920038D01*
X94022574Y-97920038D02*
X94117812Y-98015276D01*
X94117812Y-98015276D02*
X94165431Y-98205752D01*
X94165431Y-98205752D02*
X94165431Y-98539085D01*
X94165431Y-98539085D02*
X94117812Y-98729561D01*
X94117812Y-98729561D02*
X94022574Y-98824800D01*
X94022574Y-98824800D02*
X93927336Y-98872419D01*
X93927336Y-98872419D02*
X93736860Y-98872419D01*
X93736860Y-98872419D02*
X93641622Y-98824800D01*
X93641622Y-98824800D02*
X93546384Y-98729561D01*
X93546384Y-98729561D02*
X93498765Y-98539085D01*
X93498765Y-98539085D02*
X93498765Y-98205752D01*
X93498765Y-98205752D02*
X93546384Y-98015276D01*
X93546384Y-98015276D02*
X93641622Y-97920038D01*
X93641622Y-97920038D02*
X93736860Y-97872419D01*
X94594003Y-97872419D02*
X94594003Y-98681942D01*
X94594003Y-98681942D02*
X94641622Y-98777180D01*
X94641622Y-98777180D02*
X94689241Y-98824800D01*
X94689241Y-98824800D02*
X94784479Y-98872419D01*
X94784479Y-98872419D02*
X94974955Y-98872419D01*
X94974955Y-98872419D02*
X95070193Y-98824800D01*
X95070193Y-98824800D02*
X95117812Y-98777180D01*
X95117812Y-98777180D02*
X95165431Y-98681942D01*
X95165431Y-98681942D02*
X95165431Y-97872419D01*
X95498765Y-97872419D02*
X96070193Y-97872419D01*
X95784479Y-98872419D02*
X95784479Y-97872419D01*
X96165432Y-98967657D02*
X96927336Y-98967657D01*
X97165432Y-98872419D02*
X97165432Y-97872419D01*
X97165432Y-97872419D02*
X97546384Y-97872419D01*
X97546384Y-97872419D02*
X97641622Y-97920038D01*
X97641622Y-97920038D02*
X97689241Y-97967657D01*
X97689241Y-97967657D02*
X97736860Y-98062895D01*
X97736860Y-98062895D02*
X97736860Y-98205752D01*
X97736860Y-98205752D02*
X97689241Y-98300990D01*
X97689241Y-98300990D02*
X97641622Y-98348609D01*
X97641622Y-98348609D02*
X97546384Y-98396228D01*
X97546384Y-98396228D02*
X97165432Y-98396228D01*
X98070194Y-97872419D02*
X98308289Y-98872419D01*
X98308289Y-98872419D02*
X98498765Y-98158133D01*
X98498765Y-98158133D02*
X98689241Y-98872419D01*
X98689241Y-98872419D02*
X98927337Y-97872419D01*
X99879717Y-98872419D02*
X99546384Y-98396228D01*
X99308289Y-98872419D02*
X99308289Y-97872419D01*
X99308289Y-97872419D02*
X99689241Y-97872419D01*
X99689241Y-97872419D02*
X99784479Y-97920038D01*
X99784479Y-97920038D02*
X99832098Y-97967657D01*
X99832098Y-97967657D02*
X99879717Y-98062895D01*
X99879717Y-98062895D02*
X99879717Y-98205752D01*
X99879717Y-98205752D02*
X99832098Y-98300990D01*
X99832098Y-98300990D02*
X99784479Y-98348609D01*
X99784479Y-98348609D02*
X99689241Y-98396228D01*
X99689241Y-98396228D02*
X99308289Y-98396228D01*
X100070194Y-98967657D02*
X100832098Y-98967657D01*
X101070194Y-98872419D02*
X101070194Y-97872419D01*
X101070194Y-98348609D02*
X101641622Y-98348609D01*
X101641622Y-98872419D02*
X101641622Y-97872419D01*
X102117813Y-98872419D02*
X102117813Y-97872419D01*
X102117813Y-97872419D02*
X102355908Y-97872419D01*
X102355908Y-97872419D02*
X102498765Y-97920038D01*
X102498765Y-97920038D02*
X102594003Y-98015276D01*
X102594003Y-98015276D02*
X102641622Y-98110514D01*
X102641622Y-98110514D02*
X102689241Y-98300990D01*
X102689241Y-98300990D02*
X102689241Y-98443847D01*
X102689241Y-98443847D02*
X102641622Y-98634323D01*
X102641622Y-98634323D02*
X102594003Y-98729561D01*
X102594003Y-98729561D02*
X102498765Y-98824800D01*
X102498765Y-98824800D02*
X102355908Y-98872419D01*
X102355908Y-98872419D02*
X102117813Y-98872419D01*
X103689241Y-98872419D02*
X103355908Y-98396228D01*
X103117813Y-98872419D02*
X103117813Y-97872419D01*
X103117813Y-97872419D02*
X103498765Y-97872419D01*
X103498765Y-97872419D02*
X103594003Y-97920038D01*
X103594003Y-97920038D02*
X103641622Y-97967657D01*
X103641622Y-97967657D02*
X103689241Y-98062895D01*
X103689241Y-98062895D02*
X103689241Y-98205752D01*
X103689241Y-98205752D02*
X103641622Y-98300990D01*
X103641622Y-98300990D02*
X103594003Y-98348609D01*
X103594003Y-98348609D02*
X103498765Y-98396228D01*
X103498765Y-98396228D02*
X103117813Y-98396228D01*
X106256265Y-156586704D02*
X106732455Y-156586704D01*
X106161027Y-156872419D02*
X106494360Y-155872419D01*
X106494360Y-155872419D02*
X106827693Y-156872419D01*
X107303884Y-156872419D02*
X107208646Y-156824800D01*
X107208646Y-156824800D02*
X107161027Y-156729561D01*
X107161027Y-156729561D02*
X107161027Y-155872419D01*
X107684837Y-156872419D02*
X107684837Y-156205752D01*
X107684837Y-155872419D02*
X107637218Y-155920038D01*
X107637218Y-155920038D02*
X107684837Y-155967657D01*
X107684837Y-155967657D02*
X107732456Y-155920038D01*
X107732456Y-155920038D02*
X107684837Y-155872419D01*
X107684837Y-155872419D02*
X107684837Y-155967657D01*
X108922932Y-156872419D02*
X108922932Y-155872419D01*
X108922932Y-155872419D02*
X109256265Y-156586704D01*
X109256265Y-156586704D02*
X109589598Y-155872419D01*
X109589598Y-155872419D02*
X109589598Y-156872419D01*
X110541979Y-156872419D02*
X110065789Y-156872419D01*
X110065789Y-156872419D02*
X110065789Y-155872419D01*
X110875313Y-156348609D02*
X111208646Y-156348609D01*
X111351503Y-156872419D02*
X110875313Y-156872419D01*
X110875313Y-156872419D02*
X110875313Y-155872419D01*
X110875313Y-155872419D02*
X111351503Y-155872419D01*
X111732456Y-156586704D02*
X112208646Y-156586704D01*
X111637218Y-156872419D02*
X111970551Y-155872419D01*
X111970551Y-155872419D02*
X112303884Y-156872419D01*
X112637218Y-156872419D02*
X112637218Y-155872419D01*
X112637218Y-156348609D02*
X113208646Y-156348609D01*
X113208646Y-156872419D02*
X113208646Y-155872419D01*
X113637218Y-156586704D02*
X114113408Y-156586704D01*
X113541980Y-156872419D02*
X113875313Y-155872419D01*
X113875313Y-155872419D02*
X114208646Y-156872419D01*
X114399123Y-155872419D02*
X114970551Y-155872419D01*
X114684837Y-156872419D02*
X114684837Y-155872419D01*
X95426384Y-70952419D02*
X95426384Y-69952419D01*
X95426384Y-69952419D02*
X95807336Y-69952419D01*
X95807336Y-69952419D02*
X95902574Y-70000038D01*
X95902574Y-70000038D02*
X95950193Y-70047657D01*
X95950193Y-70047657D02*
X95997812Y-70142895D01*
X95997812Y-70142895D02*
X95997812Y-70285752D01*
X95997812Y-70285752D02*
X95950193Y-70380990D01*
X95950193Y-70380990D02*
X95902574Y-70428609D01*
X95902574Y-70428609D02*
X95807336Y-70476228D01*
X95807336Y-70476228D02*
X95426384Y-70476228D01*
X96331146Y-69952419D02*
X96569241Y-70952419D01*
X96569241Y-70952419D02*
X96759717Y-70238133D01*
X96759717Y-70238133D02*
X96950193Y-70952419D01*
X96950193Y-70952419D02*
X97188289Y-69952419D01*
X98140669Y-70952419D02*
X97807336Y-70476228D01*
X97569241Y-70952419D02*
X97569241Y-69952419D01*
X97569241Y-69952419D02*
X97950193Y-69952419D01*
X97950193Y-69952419D02*
X98045431Y-70000038D01*
X98045431Y-70000038D02*
X98093050Y-70047657D01*
X98093050Y-70047657D02*
X98140669Y-70142895D01*
X98140669Y-70142895D02*
X98140669Y-70285752D01*
X98140669Y-70285752D02*
X98093050Y-70380990D01*
X98093050Y-70380990D02*
X98045431Y-70428609D01*
X98045431Y-70428609D02*
X97950193Y-70476228D01*
X97950193Y-70476228D02*
X97569241Y-70476228D01*
X98331146Y-71047657D02*
X99093050Y-71047657D01*
X99331146Y-70952419D02*
X99331146Y-69952419D01*
X99331146Y-70428609D02*
X99902574Y-70428609D01*
X99902574Y-70952419D02*
X99902574Y-69952419D01*
X100378765Y-70952419D02*
X100378765Y-69952419D01*
X100378765Y-69952419D02*
X100616860Y-69952419D01*
X100616860Y-69952419D02*
X100759717Y-70000038D01*
X100759717Y-70000038D02*
X100854955Y-70095276D01*
X100854955Y-70095276D02*
X100902574Y-70190514D01*
X100902574Y-70190514D02*
X100950193Y-70380990D01*
X100950193Y-70380990D02*
X100950193Y-70523847D01*
X100950193Y-70523847D02*
X100902574Y-70714323D01*
X100902574Y-70714323D02*
X100854955Y-70809561D01*
X100854955Y-70809561D02*
X100759717Y-70904800D01*
X100759717Y-70904800D02*
X100616860Y-70952419D01*
X100616860Y-70952419D02*
X100378765Y-70952419D01*
X101950193Y-70952419D02*
X101616860Y-70476228D01*
X101378765Y-70952419D02*
X101378765Y-69952419D01*
X101378765Y-69952419D02*
X101759717Y-69952419D01*
X101759717Y-69952419D02*
X101854955Y-70000038D01*
X101854955Y-70000038D02*
X101902574Y-70047657D01*
X101902574Y-70047657D02*
X101950193Y-70142895D01*
X101950193Y-70142895D02*
X101950193Y-70285752D01*
X101950193Y-70285752D02*
X101902574Y-70380990D01*
X101902574Y-70380990D02*
X101854955Y-70428609D01*
X101854955Y-70428609D02*
X101759717Y-70476228D01*
X101759717Y-70476228D02*
X101378765Y-70476228D01*
X110161027Y-68872419D02*
X110494360Y-69872419D01*
X110494360Y-69872419D02*
X110827693Y-68872419D01*
X111113408Y-69586704D02*
X111589598Y-69586704D01*
X111018170Y-69872419D02*
X111351503Y-68872419D01*
X111351503Y-68872419D02*
X111684836Y-69872419D01*
X112589598Y-69777180D02*
X112541979Y-69824800D01*
X112541979Y-69824800D02*
X112399122Y-69872419D01*
X112399122Y-69872419D02*
X112303884Y-69872419D01*
X112303884Y-69872419D02*
X112161027Y-69824800D01*
X112161027Y-69824800D02*
X112065789Y-69729561D01*
X112065789Y-69729561D02*
X112018170Y-69634323D01*
X112018170Y-69634323D02*
X111970551Y-69443847D01*
X111970551Y-69443847D02*
X111970551Y-69300990D01*
X111970551Y-69300990D02*
X112018170Y-69110514D01*
X112018170Y-69110514D02*
X112065789Y-69015276D01*
X112065789Y-69015276D02*
X112161027Y-68920038D01*
X112161027Y-68920038D02*
X112303884Y-68872419D01*
X112303884Y-68872419D02*
X112399122Y-68872419D01*
X112399122Y-68872419D02*
X112541979Y-68920038D01*
X112541979Y-68920038D02*
X112589598Y-68967657D01*
X113018170Y-69491466D02*
X113780075Y-69491466D01*
X113399122Y-69872419D02*
X113399122Y-69110514D01*
X203637217Y-104348609D02*
X203780074Y-104396228D01*
X203780074Y-104396228D02*
X203827693Y-104443847D01*
X203827693Y-104443847D02*
X203875312Y-104539085D01*
X203875312Y-104539085D02*
X203875312Y-104681942D01*
X203875312Y-104681942D02*
X203827693Y-104777180D01*
X203827693Y-104777180D02*
X203780074Y-104824800D01*
X203780074Y-104824800D02*
X203684836Y-104872419D01*
X203684836Y-104872419D02*
X203303884Y-104872419D01*
X203303884Y-104872419D02*
X203303884Y-103872419D01*
X203303884Y-103872419D02*
X203637217Y-103872419D01*
X203637217Y-103872419D02*
X203732455Y-103920038D01*
X203732455Y-103920038D02*
X203780074Y-103967657D01*
X203780074Y-103967657D02*
X203827693Y-104062895D01*
X203827693Y-104062895D02*
X203827693Y-104158133D01*
X203827693Y-104158133D02*
X203780074Y-104253371D01*
X203780074Y-104253371D02*
X203732455Y-104300990D01*
X203732455Y-104300990D02*
X203637217Y-104348609D01*
X203637217Y-104348609D02*
X203303884Y-104348609D01*
X204256265Y-104586704D02*
X204732455Y-104586704D01*
X204161027Y-104872419D02*
X204494360Y-103872419D01*
X204494360Y-103872419D02*
X204827693Y-104872419D01*
X205113408Y-104824800D02*
X205256265Y-104872419D01*
X205256265Y-104872419D02*
X205494360Y-104872419D01*
X205494360Y-104872419D02*
X205589598Y-104824800D01*
X205589598Y-104824800D02*
X205637217Y-104777180D01*
X205637217Y-104777180D02*
X205684836Y-104681942D01*
X205684836Y-104681942D02*
X205684836Y-104586704D01*
X205684836Y-104586704D02*
X205637217Y-104491466D01*
X205637217Y-104491466D02*
X205589598Y-104443847D01*
X205589598Y-104443847D02*
X205494360Y-104396228D01*
X205494360Y-104396228D02*
X205303884Y-104348609D01*
X205303884Y-104348609D02*
X205208646Y-104300990D01*
X205208646Y-104300990D02*
X205161027Y-104253371D01*
X205161027Y-104253371D02*
X205113408Y-104158133D01*
X205113408Y-104158133D02*
X205113408Y-104062895D01*
X205113408Y-104062895D02*
X205161027Y-103967657D01*
X205161027Y-103967657D02*
X205208646Y-103920038D01*
X205208646Y-103920038D02*
X205303884Y-103872419D01*
X205303884Y-103872419D02*
X205541979Y-103872419D01*
X205541979Y-103872419D02*
X205684836Y-103920038D01*
X206113408Y-104348609D02*
X206446741Y-104348609D01*
X206589598Y-104872419D02*
X206113408Y-104872419D01*
X206113408Y-104872419D02*
X206113408Y-103872419D01*
X206113408Y-103872419D02*
X206589598Y-103872419D01*
X206780075Y-104967657D02*
X207541979Y-104967657D01*
X207780075Y-104872419D02*
X207780075Y-103872419D01*
X207780075Y-103872419D02*
X208113408Y-104586704D01*
X208113408Y-104586704D02*
X208446741Y-103872419D01*
X208446741Y-103872419D02*
X208446741Y-104872419D01*
X208922932Y-104872419D02*
X208922932Y-103872419D01*
X209399122Y-104872419D02*
X209399122Y-103872419D01*
X209399122Y-103872419D02*
X209637217Y-103872419D01*
X209637217Y-103872419D02*
X209780074Y-103920038D01*
X209780074Y-103920038D02*
X209875312Y-104015276D01*
X209875312Y-104015276D02*
X209922931Y-104110514D01*
X209922931Y-104110514D02*
X209970550Y-104300990D01*
X209970550Y-104300990D02*
X209970550Y-104443847D01*
X209970550Y-104443847D02*
X209922931Y-104634323D01*
X209922931Y-104634323D02*
X209875312Y-104729561D01*
X209875312Y-104729561D02*
X209780074Y-104824800D01*
X209780074Y-104824800D02*
X209637217Y-104872419D01*
X209637217Y-104872419D02*
X209399122Y-104872419D01*
X153256265Y-102824800D02*
X153399122Y-102872419D01*
X153399122Y-102872419D02*
X153637217Y-102872419D01*
X153637217Y-102872419D02*
X153732455Y-102824800D01*
X153732455Y-102824800D02*
X153780074Y-102777180D01*
X153780074Y-102777180D02*
X153827693Y-102681942D01*
X153827693Y-102681942D02*
X153827693Y-102586704D01*
X153827693Y-102586704D02*
X153780074Y-102491466D01*
X153780074Y-102491466D02*
X153732455Y-102443847D01*
X153732455Y-102443847D02*
X153637217Y-102396228D01*
X153637217Y-102396228D02*
X153446741Y-102348609D01*
X153446741Y-102348609D02*
X153351503Y-102300990D01*
X153351503Y-102300990D02*
X153303884Y-102253371D01*
X153303884Y-102253371D02*
X153256265Y-102158133D01*
X153256265Y-102158133D02*
X153256265Y-102062895D01*
X153256265Y-102062895D02*
X153303884Y-101967657D01*
X153303884Y-101967657D02*
X153351503Y-101920038D01*
X153351503Y-101920038D02*
X153446741Y-101872419D01*
X153446741Y-101872419D02*
X153684836Y-101872419D01*
X153684836Y-101872419D02*
X153827693Y-101920038D01*
X154256265Y-102872419D02*
X154256265Y-101872419D01*
X155256264Y-101920038D02*
X155161026Y-101872419D01*
X155161026Y-101872419D02*
X155018169Y-101872419D01*
X155018169Y-101872419D02*
X154875312Y-101920038D01*
X154875312Y-101920038D02*
X154780074Y-102015276D01*
X154780074Y-102015276D02*
X154732455Y-102110514D01*
X154732455Y-102110514D02*
X154684836Y-102300990D01*
X154684836Y-102300990D02*
X154684836Y-102443847D01*
X154684836Y-102443847D02*
X154732455Y-102634323D01*
X154732455Y-102634323D02*
X154780074Y-102729561D01*
X154780074Y-102729561D02*
X154875312Y-102824800D01*
X154875312Y-102824800D02*
X155018169Y-102872419D01*
X155018169Y-102872419D02*
X155113407Y-102872419D01*
X155113407Y-102872419D02*
X155256264Y-102824800D01*
X155256264Y-102824800D02*
X155303883Y-102777180D01*
X155303883Y-102777180D02*
X155303883Y-102443847D01*
X155303883Y-102443847D02*
X155113407Y-102443847D01*
X155494360Y-102967657D02*
X156256264Y-102967657D01*
X156684836Y-101872419D02*
X156875312Y-101872419D01*
X156875312Y-101872419D02*
X156970550Y-101920038D01*
X156970550Y-101920038D02*
X157065788Y-102015276D01*
X157065788Y-102015276D02*
X157113407Y-102205752D01*
X157113407Y-102205752D02*
X157113407Y-102539085D01*
X157113407Y-102539085D02*
X157065788Y-102729561D01*
X157065788Y-102729561D02*
X156970550Y-102824800D01*
X156970550Y-102824800D02*
X156875312Y-102872419D01*
X156875312Y-102872419D02*
X156684836Y-102872419D01*
X156684836Y-102872419D02*
X156589598Y-102824800D01*
X156589598Y-102824800D02*
X156494360Y-102729561D01*
X156494360Y-102729561D02*
X156446741Y-102539085D01*
X156446741Y-102539085D02*
X156446741Y-102205752D01*
X156446741Y-102205752D02*
X156494360Y-102015276D01*
X156494360Y-102015276D02*
X156589598Y-101920038D01*
X156589598Y-101920038D02*
X156684836Y-101872419D01*
X157541979Y-101872419D02*
X157541979Y-102681942D01*
X157541979Y-102681942D02*
X157589598Y-102777180D01*
X157589598Y-102777180D02*
X157637217Y-102824800D01*
X157637217Y-102824800D02*
X157732455Y-102872419D01*
X157732455Y-102872419D02*
X157922931Y-102872419D01*
X157922931Y-102872419D02*
X158018169Y-102824800D01*
X158018169Y-102824800D02*
X158065788Y-102777180D01*
X158065788Y-102777180D02*
X158113407Y-102681942D01*
X158113407Y-102681942D02*
X158113407Y-101872419D01*
X158446741Y-101872419D02*
X159018169Y-101872419D01*
X158732455Y-102872419D02*
X158732455Y-101872419D01*
X111256265Y-142824800D02*
X111399122Y-142872419D01*
X111399122Y-142872419D02*
X111637217Y-142872419D01*
X111637217Y-142872419D02*
X111732455Y-142824800D01*
X111732455Y-142824800D02*
X111780074Y-142777180D01*
X111780074Y-142777180D02*
X111827693Y-142681942D01*
X111827693Y-142681942D02*
X111827693Y-142586704D01*
X111827693Y-142586704D02*
X111780074Y-142491466D01*
X111780074Y-142491466D02*
X111732455Y-142443847D01*
X111732455Y-142443847D02*
X111637217Y-142396228D01*
X111637217Y-142396228D02*
X111446741Y-142348609D01*
X111446741Y-142348609D02*
X111351503Y-142300990D01*
X111351503Y-142300990D02*
X111303884Y-142253371D01*
X111303884Y-142253371D02*
X111256265Y-142158133D01*
X111256265Y-142158133D02*
X111256265Y-142062895D01*
X111256265Y-142062895D02*
X111303884Y-141967657D01*
X111303884Y-141967657D02*
X111351503Y-141920038D01*
X111351503Y-141920038D02*
X111446741Y-141872419D01*
X111446741Y-141872419D02*
X111684836Y-141872419D01*
X111684836Y-141872419D02*
X111827693Y-141920038D01*
X112256265Y-142872419D02*
X112256265Y-141872419D01*
X113256264Y-141920038D02*
X113161026Y-141872419D01*
X113161026Y-141872419D02*
X113018169Y-141872419D01*
X113018169Y-141872419D02*
X112875312Y-141920038D01*
X112875312Y-141920038D02*
X112780074Y-142015276D01*
X112780074Y-142015276D02*
X112732455Y-142110514D01*
X112732455Y-142110514D02*
X112684836Y-142300990D01*
X112684836Y-142300990D02*
X112684836Y-142443847D01*
X112684836Y-142443847D02*
X112732455Y-142634323D01*
X112732455Y-142634323D02*
X112780074Y-142729561D01*
X112780074Y-142729561D02*
X112875312Y-142824800D01*
X112875312Y-142824800D02*
X113018169Y-142872419D01*
X113018169Y-142872419D02*
X113113407Y-142872419D01*
X113113407Y-142872419D02*
X113256264Y-142824800D01*
X113256264Y-142824800D02*
X113303883Y-142777180D01*
X113303883Y-142777180D02*
X113303883Y-142443847D01*
X113303883Y-142443847D02*
X113113407Y-142443847D01*
X111827693Y-146920038D02*
X111732455Y-146872419D01*
X111732455Y-146872419D02*
X111589598Y-146872419D01*
X111589598Y-146872419D02*
X111446741Y-146920038D01*
X111446741Y-146920038D02*
X111351503Y-147015276D01*
X111351503Y-147015276D02*
X111303884Y-147110514D01*
X111303884Y-147110514D02*
X111256265Y-147300990D01*
X111256265Y-147300990D02*
X111256265Y-147443847D01*
X111256265Y-147443847D02*
X111303884Y-147634323D01*
X111303884Y-147634323D02*
X111351503Y-147729561D01*
X111351503Y-147729561D02*
X111446741Y-147824800D01*
X111446741Y-147824800D02*
X111589598Y-147872419D01*
X111589598Y-147872419D02*
X111684836Y-147872419D01*
X111684836Y-147872419D02*
X111827693Y-147824800D01*
X111827693Y-147824800D02*
X111875312Y-147777180D01*
X111875312Y-147777180D02*
X111875312Y-147443847D01*
X111875312Y-147443847D02*
X111684836Y-147443847D01*
X112303884Y-147872419D02*
X112303884Y-146872419D01*
X112303884Y-146872419D02*
X112875312Y-147872419D01*
X112875312Y-147872419D02*
X112875312Y-146872419D01*
X113351503Y-147872419D02*
X113351503Y-146872419D01*
X113351503Y-146872419D02*
X113589598Y-146872419D01*
X113589598Y-146872419D02*
X113732455Y-146920038D01*
X113732455Y-146920038D02*
X113827693Y-147015276D01*
X113827693Y-147015276D02*
X113875312Y-147110514D01*
X113875312Y-147110514D02*
X113922931Y-147300990D01*
X113922931Y-147300990D02*
X113922931Y-147443847D01*
X113922931Y-147443847D02*
X113875312Y-147634323D01*
X113875312Y-147634323D02*
X113827693Y-147729561D01*
X113827693Y-147729561D02*
X113732455Y-147824800D01*
X113732455Y-147824800D02*
X113589598Y-147872419D01*
X113589598Y-147872419D02*
X113351503Y-147872419D01*
X106256265Y-154586704D02*
X106732455Y-154586704D01*
X106161027Y-154872419D02*
X106494360Y-153872419D01*
X106494360Y-153872419D02*
X106827693Y-154872419D01*
X107589598Y-154205752D02*
X107589598Y-154872419D01*
X107161027Y-154205752D02*
X107161027Y-154729561D01*
X107161027Y-154729561D02*
X107208646Y-154824800D01*
X107208646Y-154824800D02*
X107303884Y-154872419D01*
X107303884Y-154872419D02*
X107446741Y-154872419D01*
X107446741Y-154872419D02*
X107541979Y-154824800D01*
X107541979Y-154824800D02*
X107589598Y-154777180D01*
X108494360Y-154872419D02*
X108494360Y-153872419D01*
X108494360Y-154824800D02*
X108399122Y-154872419D01*
X108399122Y-154872419D02*
X108208646Y-154872419D01*
X108208646Y-154872419D02*
X108113408Y-154824800D01*
X108113408Y-154824800D02*
X108065789Y-154777180D01*
X108065789Y-154777180D02*
X108018170Y-154681942D01*
X108018170Y-154681942D02*
X108018170Y-154396228D01*
X108018170Y-154396228D02*
X108065789Y-154300990D01*
X108065789Y-154300990D02*
X108113408Y-154253371D01*
X108113408Y-154253371D02*
X108208646Y-154205752D01*
X108208646Y-154205752D02*
X108399122Y-154205752D01*
X108399122Y-154205752D02*
X108494360Y-154253371D01*
X108970551Y-154872419D02*
X108970551Y-154205752D01*
X108970551Y-153872419D02*
X108922932Y-153920038D01*
X108922932Y-153920038D02*
X108970551Y-153967657D01*
X108970551Y-153967657D02*
X109018170Y-153920038D01*
X109018170Y-153920038D02*
X108970551Y-153872419D01*
X108970551Y-153872419D02*
X108970551Y-153967657D01*
X109589598Y-154872419D02*
X109494360Y-154824800D01*
X109494360Y-154824800D02*
X109446741Y-154777180D01*
X109446741Y-154777180D02*
X109399122Y-154681942D01*
X109399122Y-154681942D02*
X109399122Y-154396228D01*
X109399122Y-154396228D02*
X109446741Y-154300990D01*
X109446741Y-154300990D02*
X109494360Y-154253371D01*
X109494360Y-154253371D02*
X109589598Y-154205752D01*
X109589598Y-154205752D02*
X109732455Y-154205752D01*
X109732455Y-154205752D02*
X109827693Y-154253371D01*
X109827693Y-154253371D02*
X109875312Y-154300990D01*
X109875312Y-154300990D02*
X109922931Y-154396228D01*
X109922931Y-154396228D02*
X109922931Y-154681942D01*
X109922931Y-154681942D02*
X109875312Y-154777180D01*
X109875312Y-154777180D02*
X109827693Y-154824800D01*
X109827693Y-154824800D02*
X109732455Y-154872419D01*
X109732455Y-154872419D02*
X109589598Y-154872419D01*
X110208646Y-153872419D02*
X110541979Y-154872419D01*
X110541979Y-154872419D02*
X110875312Y-153872419D01*
X111208646Y-154872419D02*
X111208646Y-154205752D01*
X111208646Y-153872419D02*
X111161027Y-153920038D01*
X111161027Y-153920038D02*
X111208646Y-153967657D01*
X111208646Y-153967657D02*
X111256265Y-153920038D01*
X111256265Y-153920038D02*
X111208646Y-153872419D01*
X111208646Y-153872419D02*
X111208646Y-153967657D01*
X111637217Y-154824800D02*
X111732455Y-154872419D01*
X111732455Y-154872419D02*
X111922931Y-154872419D01*
X111922931Y-154872419D02*
X112018169Y-154824800D01*
X112018169Y-154824800D02*
X112065788Y-154729561D01*
X112065788Y-154729561D02*
X112065788Y-154681942D01*
X112065788Y-154681942D02*
X112018169Y-154586704D01*
X112018169Y-154586704D02*
X111922931Y-154539085D01*
X111922931Y-154539085D02*
X111780074Y-154539085D01*
X111780074Y-154539085D02*
X111684836Y-154491466D01*
X111684836Y-154491466D02*
X111637217Y-154396228D01*
X111637217Y-154396228D02*
X111637217Y-154348609D01*
X111637217Y-154348609D02*
X111684836Y-154253371D01*
X111684836Y-154253371D02*
X111780074Y-154205752D01*
X111780074Y-154205752D02*
X111922931Y-154205752D01*
X111922931Y-154205752D02*
X112018169Y-154253371D01*
X112922931Y-154205752D02*
X112922931Y-154872419D01*
X112494360Y-154205752D02*
X112494360Y-154729561D01*
X112494360Y-154729561D02*
X112541979Y-154824800D01*
X112541979Y-154824800D02*
X112637217Y-154872419D01*
X112637217Y-154872419D02*
X112780074Y-154872419D01*
X112780074Y-154872419D02*
X112875312Y-154824800D01*
X112875312Y-154824800D02*
X112922931Y-154777180D01*
X113827693Y-154872419D02*
X113827693Y-154348609D01*
X113827693Y-154348609D02*
X113780074Y-154253371D01*
X113780074Y-154253371D02*
X113684836Y-154205752D01*
X113684836Y-154205752D02*
X113494360Y-154205752D01*
X113494360Y-154205752D02*
X113399122Y-154253371D01*
X113827693Y-154824800D02*
X113732455Y-154872419D01*
X113732455Y-154872419D02*
X113494360Y-154872419D01*
X113494360Y-154872419D02*
X113399122Y-154824800D01*
X113399122Y-154824800D02*
X113351503Y-154729561D01*
X113351503Y-154729561D02*
X113351503Y-154634323D01*
X113351503Y-154634323D02*
X113399122Y-154539085D01*
X113399122Y-154539085D02*
X113494360Y-154491466D01*
X113494360Y-154491466D02*
X113732455Y-154491466D01*
X113732455Y-154491466D02*
X113827693Y-154443847D01*
X114446741Y-154872419D02*
X114351503Y-154824800D01*
X114351503Y-154824800D02*
X114303884Y-154729561D01*
X114303884Y-154729561D02*
X114303884Y-153872419D01*
X114827694Y-154872419D02*
X114827694Y-154205752D01*
X114827694Y-153872419D02*
X114780075Y-153920038D01*
X114780075Y-153920038D02*
X114827694Y-153967657D01*
X114827694Y-153967657D02*
X114875313Y-153920038D01*
X114875313Y-153920038D02*
X114827694Y-153872419D01*
X114827694Y-153872419D02*
X114827694Y-153967657D01*
X115256265Y-154824800D02*
X115351503Y-154872419D01*
X115351503Y-154872419D02*
X115541979Y-154872419D01*
X115541979Y-154872419D02*
X115637217Y-154824800D01*
X115637217Y-154824800D02*
X115684836Y-154729561D01*
X115684836Y-154729561D02*
X115684836Y-154681942D01*
X115684836Y-154681942D02*
X115637217Y-154586704D01*
X115637217Y-154586704D02*
X115541979Y-154539085D01*
X115541979Y-154539085D02*
X115399122Y-154539085D01*
X115399122Y-154539085D02*
X115303884Y-154491466D01*
X115303884Y-154491466D02*
X115256265Y-154396228D01*
X115256265Y-154396228D02*
X115256265Y-154348609D01*
X115256265Y-154348609D02*
X115303884Y-154253371D01*
X115303884Y-154253371D02*
X115399122Y-154205752D01*
X115399122Y-154205752D02*
X115541979Y-154205752D01*
X115541979Y-154205752D02*
X115637217Y-154253371D01*
X116494360Y-154824800D02*
X116399122Y-154872419D01*
X116399122Y-154872419D02*
X116208646Y-154872419D01*
X116208646Y-154872419D02*
X116113408Y-154824800D01*
X116113408Y-154824800D02*
X116065789Y-154729561D01*
X116065789Y-154729561D02*
X116065789Y-154348609D01*
X116065789Y-154348609D02*
X116113408Y-154253371D01*
X116113408Y-154253371D02*
X116208646Y-154205752D01*
X116208646Y-154205752D02*
X116399122Y-154205752D01*
X116399122Y-154205752D02*
X116494360Y-154253371D01*
X116494360Y-154253371D02*
X116541979Y-154348609D01*
X116541979Y-154348609D02*
X116541979Y-154443847D01*
X116541979Y-154443847D02*
X116065789Y-154539085D01*
X116970551Y-154872419D02*
X116970551Y-154205752D01*
X116970551Y-154396228D02*
X117018170Y-154300990D01*
X117018170Y-154300990D02*
X117065789Y-154253371D01*
X117065789Y-154253371D02*
X117161027Y-154205752D01*
X117161027Y-154205752D02*
X117256265Y-154205752D01*
X117589599Y-154777180D02*
X117637218Y-154824800D01*
X117637218Y-154824800D02*
X117589599Y-154872419D01*
X117589599Y-154872419D02*
X117541980Y-154824800D01*
X117541980Y-154824800D02*
X117589599Y-154777180D01*
X117589599Y-154777180D02*
X117589599Y-154872419D01*
X118589598Y-154872419D02*
X118018170Y-154872419D01*
X118303884Y-154872419D02*
X118303884Y-153872419D01*
X118303884Y-153872419D02*
X118208646Y-154015276D01*
X118208646Y-154015276D02*
X118113408Y-154110514D01*
X118113408Y-154110514D02*
X118018170Y-154158133D01*
X94256265Y-136824800D02*
X94399122Y-136872419D01*
X94399122Y-136872419D02*
X94637217Y-136872419D01*
X94637217Y-136872419D02*
X94732455Y-136824800D01*
X94732455Y-136824800D02*
X94780074Y-136777180D01*
X94780074Y-136777180D02*
X94827693Y-136681942D01*
X94827693Y-136681942D02*
X94827693Y-136586704D01*
X94827693Y-136586704D02*
X94780074Y-136491466D01*
X94780074Y-136491466D02*
X94732455Y-136443847D01*
X94732455Y-136443847D02*
X94637217Y-136396228D01*
X94637217Y-136396228D02*
X94446741Y-136348609D01*
X94446741Y-136348609D02*
X94351503Y-136300990D01*
X94351503Y-136300990D02*
X94303884Y-136253371D01*
X94303884Y-136253371D02*
X94256265Y-136158133D01*
X94256265Y-136158133D02*
X94256265Y-136062895D01*
X94256265Y-136062895D02*
X94303884Y-135967657D01*
X94303884Y-135967657D02*
X94351503Y-135920038D01*
X94351503Y-135920038D02*
X94446741Y-135872419D01*
X94446741Y-135872419D02*
X94684836Y-135872419D01*
X94684836Y-135872419D02*
X94827693Y-135920038D01*
X95256265Y-136872419D02*
X95256265Y-135872419D01*
X96256264Y-135920038D02*
X96161026Y-135872419D01*
X96161026Y-135872419D02*
X96018169Y-135872419D01*
X96018169Y-135872419D02*
X95875312Y-135920038D01*
X95875312Y-135920038D02*
X95780074Y-136015276D01*
X95780074Y-136015276D02*
X95732455Y-136110514D01*
X95732455Y-136110514D02*
X95684836Y-136300990D01*
X95684836Y-136300990D02*
X95684836Y-136443847D01*
X95684836Y-136443847D02*
X95732455Y-136634323D01*
X95732455Y-136634323D02*
X95780074Y-136729561D01*
X95780074Y-136729561D02*
X95875312Y-136824800D01*
X95875312Y-136824800D02*
X96018169Y-136872419D01*
X96018169Y-136872419D02*
X96113407Y-136872419D01*
X96113407Y-136872419D02*
X96256264Y-136824800D01*
X96256264Y-136824800D02*
X96303883Y-136777180D01*
X96303883Y-136777180D02*
X96303883Y-136443847D01*
X96303883Y-136443847D02*
X96113407Y-136443847D01*
X96494360Y-136967657D02*
X97256264Y-136967657D01*
X97494360Y-136872419D02*
X97494360Y-135872419D01*
X97494360Y-136348609D02*
X98065788Y-136348609D01*
X98065788Y-136872419D02*
X98065788Y-135872419D01*
X98541979Y-136872419D02*
X98541979Y-135872419D01*
X98541979Y-135872419D02*
X98780074Y-135872419D01*
X98780074Y-135872419D02*
X98922931Y-135920038D01*
X98922931Y-135920038D02*
X99018169Y-136015276D01*
X99018169Y-136015276D02*
X99065788Y-136110514D01*
X99065788Y-136110514D02*
X99113407Y-136300990D01*
X99113407Y-136300990D02*
X99113407Y-136443847D01*
X99113407Y-136443847D02*
X99065788Y-136634323D01*
X99065788Y-136634323D02*
X99018169Y-136729561D01*
X99018169Y-136729561D02*
X98922931Y-136824800D01*
X98922931Y-136824800D02*
X98780074Y-136872419D01*
X98780074Y-136872419D02*
X98541979Y-136872419D01*
X100113407Y-136872419D02*
X99780074Y-136396228D01*
X99541979Y-136872419D02*
X99541979Y-135872419D01*
X99541979Y-135872419D02*
X99922931Y-135872419D01*
X99922931Y-135872419D02*
X100018169Y-135920038D01*
X100018169Y-135920038D02*
X100065788Y-135967657D01*
X100065788Y-135967657D02*
X100113407Y-136062895D01*
X100113407Y-136062895D02*
X100113407Y-136205752D01*
X100113407Y-136205752D02*
X100065788Y-136300990D01*
X100065788Y-136300990D02*
X100018169Y-136348609D01*
X100018169Y-136348609D02*
X99922931Y-136396228D01*
X99922931Y-136396228D02*
X99541979Y-136396228D01*
X202161027Y-62872419D02*
X202732455Y-62872419D01*
X202446741Y-63872419D02*
X202446741Y-62872419D01*
X203208646Y-63872419D02*
X203113408Y-63824800D01*
X203113408Y-63824800D02*
X203065789Y-63777180D01*
X203065789Y-63777180D02*
X203018170Y-63681942D01*
X203018170Y-63681942D02*
X203018170Y-63396228D01*
X203018170Y-63396228D02*
X203065789Y-63300990D01*
X203065789Y-63300990D02*
X203113408Y-63253371D01*
X203113408Y-63253371D02*
X203208646Y-63205752D01*
X203208646Y-63205752D02*
X203351503Y-63205752D01*
X203351503Y-63205752D02*
X203446741Y-63253371D01*
X203446741Y-63253371D02*
X203494360Y-63300990D01*
X203494360Y-63300990D02*
X203541979Y-63396228D01*
X203541979Y-63396228D02*
X203541979Y-63681942D01*
X203541979Y-63681942D02*
X203494360Y-63777180D01*
X203494360Y-63777180D02*
X203446741Y-63824800D01*
X203446741Y-63824800D02*
X203351503Y-63872419D01*
X203351503Y-63872419D02*
X203208646Y-63872419D01*
X203970551Y-63205752D02*
X203970551Y-64205752D01*
X203970551Y-63253371D02*
X204065789Y-63205752D01*
X204065789Y-63205752D02*
X204256265Y-63205752D01*
X204256265Y-63205752D02*
X204351503Y-63253371D01*
X204351503Y-63253371D02*
X204399122Y-63300990D01*
X204399122Y-63300990D02*
X204446741Y-63396228D01*
X204446741Y-63396228D02*
X204446741Y-63681942D01*
X204446741Y-63681942D02*
X204399122Y-63777180D01*
X204399122Y-63777180D02*
X204351503Y-63824800D01*
X204351503Y-63824800D02*
X204256265Y-63872419D01*
X204256265Y-63872419D02*
X204065789Y-63872419D01*
X204065789Y-63872419D02*
X203970551Y-63824800D01*
X206113408Y-63872419D02*
X205637218Y-63872419D01*
X205637218Y-63872419D02*
X205637218Y-62872419D01*
X206875313Y-63872419D02*
X206875313Y-63348609D01*
X206875313Y-63348609D02*
X206827694Y-63253371D01*
X206827694Y-63253371D02*
X206732456Y-63205752D01*
X206732456Y-63205752D02*
X206541980Y-63205752D01*
X206541980Y-63205752D02*
X206446742Y-63253371D01*
X206875313Y-63824800D02*
X206780075Y-63872419D01*
X206780075Y-63872419D02*
X206541980Y-63872419D01*
X206541980Y-63872419D02*
X206446742Y-63824800D01*
X206446742Y-63824800D02*
X206399123Y-63729561D01*
X206399123Y-63729561D02*
X206399123Y-63634323D01*
X206399123Y-63634323D02*
X206446742Y-63539085D01*
X206446742Y-63539085D02*
X206541980Y-63491466D01*
X206541980Y-63491466D02*
X206780075Y-63491466D01*
X206780075Y-63491466D02*
X206875313Y-63443847D01*
X207256266Y-63205752D02*
X207494361Y-63872419D01*
X207732456Y-63205752D02*
X207494361Y-63872419D01*
X207494361Y-63872419D02*
X207399123Y-64110514D01*
X207399123Y-64110514D02*
X207351504Y-64158133D01*
X207351504Y-64158133D02*
X207256266Y-64205752D01*
X208494361Y-63824800D02*
X208399123Y-63872419D01*
X208399123Y-63872419D02*
X208208647Y-63872419D01*
X208208647Y-63872419D02*
X208113409Y-63824800D01*
X208113409Y-63824800D02*
X208065790Y-63729561D01*
X208065790Y-63729561D02*
X208065790Y-63348609D01*
X208065790Y-63348609D02*
X208113409Y-63253371D01*
X208113409Y-63253371D02*
X208208647Y-63205752D01*
X208208647Y-63205752D02*
X208399123Y-63205752D01*
X208399123Y-63205752D02*
X208494361Y-63253371D01*
X208494361Y-63253371D02*
X208541980Y-63348609D01*
X208541980Y-63348609D02*
X208541980Y-63443847D01*
X208541980Y-63443847D02*
X208065790Y-63539085D01*
X208970552Y-63872419D02*
X208970552Y-63205752D01*
X208970552Y-63396228D02*
X209018171Y-63300990D01*
X209018171Y-63300990D02*
X209065790Y-63253371D01*
X209065790Y-63253371D02*
X209161028Y-63205752D01*
X209161028Y-63205752D02*
X209256266Y-63205752D01*
X110303884Y-102491466D02*
X111065789Y-102491466D01*
X112065788Y-102872419D02*
X111494360Y-102872419D01*
X111780074Y-102872419D02*
X111780074Y-101872419D01*
X111780074Y-101872419D02*
X111684836Y-102015276D01*
X111684836Y-102015276D02*
X111589598Y-102110514D01*
X111589598Y-102110514D02*
X111494360Y-102158133D01*
X112446741Y-101967657D02*
X112494360Y-101920038D01*
X112494360Y-101920038D02*
X112589598Y-101872419D01*
X112589598Y-101872419D02*
X112827693Y-101872419D01*
X112827693Y-101872419D02*
X112922931Y-101920038D01*
X112922931Y-101920038D02*
X112970550Y-101967657D01*
X112970550Y-101967657D02*
X113018169Y-102062895D01*
X113018169Y-102062895D02*
X113018169Y-102158133D01*
X113018169Y-102158133D02*
X112970550Y-102300990D01*
X112970550Y-102300990D02*
X112399122Y-102872419D01*
X112399122Y-102872419D02*
X113018169Y-102872419D01*
X113303884Y-101872419D02*
X113637217Y-102872419D01*
X113637217Y-102872419D02*
X113970550Y-101872419D01*
X110827693Y-107920038D02*
X110732455Y-107872419D01*
X110732455Y-107872419D02*
X110589598Y-107872419D01*
X110589598Y-107872419D02*
X110446741Y-107920038D01*
X110446741Y-107920038D02*
X110351503Y-108015276D01*
X110351503Y-108015276D02*
X110303884Y-108110514D01*
X110303884Y-108110514D02*
X110256265Y-108300990D01*
X110256265Y-108300990D02*
X110256265Y-108443847D01*
X110256265Y-108443847D02*
X110303884Y-108634323D01*
X110303884Y-108634323D02*
X110351503Y-108729561D01*
X110351503Y-108729561D02*
X110446741Y-108824800D01*
X110446741Y-108824800D02*
X110589598Y-108872419D01*
X110589598Y-108872419D02*
X110684836Y-108872419D01*
X110684836Y-108872419D02*
X110827693Y-108824800D01*
X110827693Y-108824800D02*
X110875312Y-108777180D01*
X110875312Y-108777180D02*
X110875312Y-108443847D01*
X110875312Y-108443847D02*
X110684836Y-108443847D01*
X111303884Y-108872419D02*
X111303884Y-107872419D01*
X111303884Y-107872419D02*
X111875312Y-108872419D01*
X111875312Y-108872419D02*
X111875312Y-107872419D01*
X112351503Y-108872419D02*
X112351503Y-107872419D01*
X112351503Y-107872419D02*
X112589598Y-107872419D01*
X112589598Y-107872419D02*
X112732455Y-107920038D01*
X112732455Y-107920038D02*
X112827693Y-108015276D01*
X112827693Y-108015276D02*
X112875312Y-108110514D01*
X112875312Y-108110514D02*
X112922931Y-108300990D01*
X112922931Y-108300990D02*
X112922931Y-108443847D01*
X112922931Y-108443847D02*
X112875312Y-108634323D01*
X112875312Y-108634323D02*
X112827693Y-108729561D01*
X112827693Y-108729561D02*
X112732455Y-108824800D01*
X112732455Y-108824800D02*
X112589598Y-108872419D01*
X112589598Y-108872419D02*
X112351503Y-108872419D01*
X173494360Y-141872419D02*
X173684836Y-141872419D01*
X173684836Y-141872419D02*
X173780074Y-141920038D01*
X173780074Y-141920038D02*
X173875312Y-142015276D01*
X173875312Y-142015276D02*
X173922931Y-142205752D01*
X173922931Y-142205752D02*
X173922931Y-142539085D01*
X173922931Y-142539085D02*
X173875312Y-142729561D01*
X173875312Y-142729561D02*
X173780074Y-142824800D01*
X173780074Y-142824800D02*
X173684836Y-142872419D01*
X173684836Y-142872419D02*
X173494360Y-142872419D01*
X173494360Y-142872419D02*
X173399122Y-142824800D01*
X173399122Y-142824800D02*
X173303884Y-142729561D01*
X173303884Y-142729561D02*
X173256265Y-142539085D01*
X173256265Y-142539085D02*
X173256265Y-142205752D01*
X173256265Y-142205752D02*
X173303884Y-142015276D01*
X173303884Y-142015276D02*
X173399122Y-141920038D01*
X173399122Y-141920038D02*
X173494360Y-141872419D01*
X174351503Y-141872419D02*
X174351503Y-142681942D01*
X174351503Y-142681942D02*
X174399122Y-142777180D01*
X174399122Y-142777180D02*
X174446741Y-142824800D01*
X174446741Y-142824800D02*
X174541979Y-142872419D01*
X174541979Y-142872419D02*
X174732455Y-142872419D01*
X174732455Y-142872419D02*
X174827693Y-142824800D01*
X174827693Y-142824800D02*
X174875312Y-142777180D01*
X174875312Y-142777180D02*
X174922931Y-142681942D01*
X174922931Y-142681942D02*
X174922931Y-141872419D01*
X175256265Y-141872419D02*
X175827693Y-141872419D01*
X175541979Y-142872419D02*
X175541979Y-141872419D01*
X175922932Y-142967657D02*
X176684836Y-142967657D01*
X176922932Y-142872419D02*
X176922932Y-141872419D01*
X176922932Y-142348609D02*
X177494360Y-142348609D01*
X177494360Y-142872419D02*
X177494360Y-141872419D01*
X177970551Y-142872419D02*
X177970551Y-141872419D01*
X178970550Y-141920038D02*
X178875312Y-141872419D01*
X178875312Y-141872419D02*
X178732455Y-141872419D01*
X178732455Y-141872419D02*
X178589598Y-141920038D01*
X178589598Y-141920038D02*
X178494360Y-142015276D01*
X178494360Y-142015276D02*
X178446741Y-142110514D01*
X178446741Y-142110514D02*
X178399122Y-142300990D01*
X178399122Y-142300990D02*
X178399122Y-142443847D01*
X178399122Y-142443847D02*
X178446741Y-142634323D01*
X178446741Y-142634323D02*
X178494360Y-142729561D01*
X178494360Y-142729561D02*
X178589598Y-142824800D01*
X178589598Y-142824800D02*
X178732455Y-142872419D01*
X178732455Y-142872419D02*
X178827693Y-142872419D01*
X178827693Y-142872419D02*
X178970550Y-142824800D01*
X178970550Y-142824800D02*
X179018169Y-142777180D01*
X179018169Y-142777180D02*
X179018169Y-142443847D01*
X179018169Y-142443847D02*
X178827693Y-142443847D01*
X179446741Y-142872419D02*
X179446741Y-141872419D01*
X179446741Y-142348609D02*
X180018169Y-142348609D01*
X180018169Y-142872419D02*
X180018169Y-141872419D01*
X166827693Y-75920038D02*
X166732455Y-75872419D01*
X166732455Y-75872419D02*
X166589598Y-75872419D01*
X166589598Y-75872419D02*
X166446741Y-75920038D01*
X166446741Y-75920038D02*
X166351503Y-76015276D01*
X166351503Y-76015276D02*
X166303884Y-76110514D01*
X166303884Y-76110514D02*
X166256265Y-76300990D01*
X166256265Y-76300990D02*
X166256265Y-76443847D01*
X166256265Y-76443847D02*
X166303884Y-76634323D01*
X166303884Y-76634323D02*
X166351503Y-76729561D01*
X166351503Y-76729561D02*
X166446741Y-76824800D01*
X166446741Y-76824800D02*
X166589598Y-76872419D01*
X166589598Y-76872419D02*
X166684836Y-76872419D01*
X166684836Y-76872419D02*
X166827693Y-76824800D01*
X166827693Y-76824800D02*
X166875312Y-76777180D01*
X166875312Y-76777180D02*
X166875312Y-76443847D01*
X166875312Y-76443847D02*
X166684836Y-76443847D01*
X167256265Y-76586704D02*
X167732455Y-76586704D01*
X167161027Y-76872419D02*
X167494360Y-75872419D01*
X167494360Y-75872419D02*
X167827693Y-76872419D01*
X168161027Y-76872419D02*
X168161027Y-75872419D01*
X168637217Y-76872419D02*
X168637217Y-75872419D01*
X168637217Y-75872419D02*
X169208645Y-76872419D01*
X169208645Y-76872419D02*
X169208645Y-75872419D01*
X169446741Y-76967657D02*
X170208645Y-76967657D01*
X170399122Y-76586704D02*
X170875312Y-76586704D01*
X170303884Y-76872419D02*
X170637217Y-75872419D01*
X170637217Y-75872419D02*
X170970550Y-76872419D01*
X171303884Y-76872419D02*
X171303884Y-75872419D01*
X171303884Y-75872419D02*
X171541979Y-75872419D01*
X171541979Y-75872419D02*
X171684836Y-75920038D01*
X171684836Y-75920038D02*
X171780074Y-76015276D01*
X171780074Y-76015276D02*
X171827693Y-76110514D01*
X171827693Y-76110514D02*
X171875312Y-76300990D01*
X171875312Y-76300990D02*
X171875312Y-76443847D01*
X171875312Y-76443847D02*
X171827693Y-76634323D01*
X171827693Y-76634323D02*
X171780074Y-76729561D01*
X171780074Y-76729561D02*
X171684836Y-76824800D01*
X171684836Y-76824800D02*
X171541979Y-76872419D01*
X171541979Y-76872419D02*
X171303884Y-76872419D01*
X172589598Y-75872419D02*
X172589598Y-76586704D01*
X172589598Y-76586704D02*
X172541979Y-76729561D01*
X172541979Y-76729561D02*
X172446741Y-76824800D01*
X172446741Y-76824800D02*
X172303884Y-76872419D01*
X172303884Y-76872419D02*
X172208646Y-76872419D01*
X110303884Y-114491466D02*
X111065789Y-114491466D01*
X110684836Y-114872419D02*
X110684836Y-114110514D01*
X112065788Y-114872419D02*
X111494360Y-114872419D01*
X111780074Y-114872419D02*
X111780074Y-113872419D01*
X111780074Y-113872419D02*
X111684836Y-114015276D01*
X111684836Y-114015276D02*
X111589598Y-114110514D01*
X111589598Y-114110514D02*
X111494360Y-114158133D01*
X112446741Y-113967657D02*
X112494360Y-113920038D01*
X112494360Y-113920038D02*
X112589598Y-113872419D01*
X112589598Y-113872419D02*
X112827693Y-113872419D01*
X112827693Y-113872419D02*
X112922931Y-113920038D01*
X112922931Y-113920038D02*
X112970550Y-113967657D01*
X112970550Y-113967657D02*
X113018169Y-114062895D01*
X113018169Y-114062895D02*
X113018169Y-114158133D01*
X113018169Y-114158133D02*
X112970550Y-114300990D01*
X112970550Y-114300990D02*
X112399122Y-114872419D01*
X112399122Y-114872419D02*
X113018169Y-114872419D01*
X113303884Y-113872419D02*
X113637217Y-114872419D01*
X113637217Y-114872419D02*
X113970550Y-113872419D01*
X110827693Y-83920038D02*
X110732455Y-83872419D01*
X110732455Y-83872419D02*
X110589598Y-83872419D01*
X110589598Y-83872419D02*
X110446741Y-83920038D01*
X110446741Y-83920038D02*
X110351503Y-84015276D01*
X110351503Y-84015276D02*
X110303884Y-84110514D01*
X110303884Y-84110514D02*
X110256265Y-84300990D01*
X110256265Y-84300990D02*
X110256265Y-84443847D01*
X110256265Y-84443847D02*
X110303884Y-84634323D01*
X110303884Y-84634323D02*
X110351503Y-84729561D01*
X110351503Y-84729561D02*
X110446741Y-84824800D01*
X110446741Y-84824800D02*
X110589598Y-84872419D01*
X110589598Y-84872419D02*
X110684836Y-84872419D01*
X110684836Y-84872419D02*
X110827693Y-84824800D01*
X110827693Y-84824800D02*
X110875312Y-84777180D01*
X110875312Y-84777180D02*
X110875312Y-84443847D01*
X110875312Y-84443847D02*
X110684836Y-84443847D01*
X111303884Y-84872419D02*
X111303884Y-83872419D01*
X111303884Y-83872419D02*
X111875312Y-84872419D01*
X111875312Y-84872419D02*
X111875312Y-83872419D01*
X112351503Y-84872419D02*
X112351503Y-83872419D01*
X112351503Y-83872419D02*
X112589598Y-83872419D01*
X112589598Y-83872419D02*
X112732455Y-83920038D01*
X112732455Y-83920038D02*
X112827693Y-84015276D01*
X112827693Y-84015276D02*
X112875312Y-84110514D01*
X112875312Y-84110514D02*
X112922931Y-84300990D01*
X112922931Y-84300990D02*
X112922931Y-84443847D01*
X112922931Y-84443847D02*
X112875312Y-84634323D01*
X112875312Y-84634323D02*
X112827693Y-84729561D01*
X112827693Y-84729561D02*
X112732455Y-84824800D01*
X112732455Y-84824800D02*
X112589598Y-84872419D01*
X112589598Y-84872419D02*
X112351503Y-84872419D01*
X176494360Y-104872419D02*
X176684836Y-104872419D01*
X176684836Y-104872419D02*
X176780074Y-104920038D01*
X176780074Y-104920038D02*
X176875312Y-105015276D01*
X176875312Y-105015276D02*
X176922931Y-105205752D01*
X176922931Y-105205752D02*
X176922931Y-105539085D01*
X176922931Y-105539085D02*
X176875312Y-105729561D01*
X176875312Y-105729561D02*
X176780074Y-105824800D01*
X176780074Y-105824800D02*
X176684836Y-105872419D01*
X176684836Y-105872419D02*
X176494360Y-105872419D01*
X176494360Y-105872419D02*
X176399122Y-105824800D01*
X176399122Y-105824800D02*
X176303884Y-105729561D01*
X176303884Y-105729561D02*
X176256265Y-105539085D01*
X176256265Y-105539085D02*
X176256265Y-105205752D01*
X176256265Y-105205752D02*
X176303884Y-105015276D01*
X176303884Y-105015276D02*
X176399122Y-104920038D01*
X176399122Y-104920038D02*
X176494360Y-104872419D01*
X177351503Y-104872419D02*
X177351503Y-105681942D01*
X177351503Y-105681942D02*
X177399122Y-105777180D01*
X177399122Y-105777180D02*
X177446741Y-105824800D01*
X177446741Y-105824800D02*
X177541979Y-105872419D01*
X177541979Y-105872419D02*
X177732455Y-105872419D01*
X177732455Y-105872419D02*
X177827693Y-105824800D01*
X177827693Y-105824800D02*
X177875312Y-105777180D01*
X177875312Y-105777180D02*
X177922931Y-105681942D01*
X177922931Y-105681942D02*
X177922931Y-104872419D01*
X178256265Y-104872419D02*
X178827693Y-104872419D01*
X178541979Y-105872419D02*
X178541979Y-104872419D01*
X178922932Y-105967657D02*
X179684836Y-105967657D01*
X179922932Y-105872419D02*
X179922932Y-104872419D01*
X179922932Y-104872419D02*
X180256265Y-105586704D01*
X180256265Y-105586704D02*
X180589598Y-104872419D01*
X180589598Y-104872419D02*
X180589598Y-105872419D01*
X181065789Y-105872419D02*
X181065789Y-104872419D01*
X181541979Y-105872419D02*
X181541979Y-104872419D01*
X181541979Y-104872419D02*
X181780074Y-104872419D01*
X181780074Y-104872419D02*
X181922931Y-104920038D01*
X181922931Y-104920038D02*
X182018169Y-105015276D01*
X182018169Y-105015276D02*
X182065788Y-105110514D01*
X182065788Y-105110514D02*
X182113407Y-105300990D01*
X182113407Y-105300990D02*
X182113407Y-105443847D01*
X182113407Y-105443847D02*
X182065788Y-105634323D01*
X182065788Y-105634323D02*
X182018169Y-105729561D01*
X182018169Y-105729561D02*
X181922931Y-105824800D01*
X181922931Y-105824800D02*
X181780074Y-105872419D01*
X181780074Y-105872419D02*
X181541979Y-105872419D01*
D11*
X207809524Y-66454819D02*
X207809524Y-65454819D01*
X207809524Y-65454819D02*
X208142857Y-66169104D01*
X208142857Y-66169104D02*
X208476190Y-65454819D01*
X208476190Y-65454819D02*
X208476190Y-66454819D01*
X208809524Y-65454819D02*
X209380952Y-65454819D01*
X209095238Y-66454819D02*
X209095238Y-65454819D01*
X209666667Y-65550057D02*
X209714286Y-65502438D01*
X209714286Y-65502438D02*
X209809524Y-65454819D01*
X209809524Y-65454819D02*
X210047619Y-65454819D01*
X210047619Y-65454819D02*
X210142857Y-65502438D01*
X210142857Y-65502438D02*
X210190476Y-65550057D01*
X210190476Y-65550057D02*
X210238095Y-65645295D01*
X210238095Y-65645295D02*
X210238095Y-65740533D01*
X210238095Y-65740533D02*
X210190476Y-65883390D01*
X210190476Y-65883390D02*
X209619048Y-66454819D01*
X209619048Y-66454819D02*
X210238095Y-66454819D01*
X207809524Y-155454819D02*
X207809524Y-154454819D01*
X207809524Y-154454819D02*
X208142857Y-155169104D01*
X208142857Y-155169104D02*
X208476190Y-154454819D01*
X208476190Y-154454819D02*
X208476190Y-155454819D01*
X208809524Y-154454819D02*
X209380952Y-154454819D01*
X209095238Y-155454819D02*
X209095238Y-154454819D01*
X209619048Y-154454819D02*
X210238095Y-154454819D01*
X210238095Y-154454819D02*
X209904762Y-154835771D01*
X209904762Y-154835771D02*
X210047619Y-154835771D01*
X210047619Y-154835771D02*
X210142857Y-154883390D01*
X210142857Y-154883390D02*
X210190476Y-154931009D01*
X210190476Y-154931009D02*
X210238095Y-155026247D01*
X210238095Y-155026247D02*
X210238095Y-155264342D01*
X210238095Y-155264342D02*
X210190476Y-155359580D01*
X210190476Y-155359580D02*
X210142857Y-155407200D01*
X210142857Y-155407200D02*
X210047619Y-155454819D01*
X210047619Y-155454819D02*
X209761905Y-155454819D01*
X209761905Y-155454819D02*
X209666667Y-155407200D01*
X209666667Y-155407200D02*
X209619048Y-155359580D01*
X99809524Y-155454819D02*
X99809524Y-154454819D01*
X99809524Y-154454819D02*
X100142857Y-155169104D01*
X100142857Y-155169104D02*
X100476190Y-154454819D01*
X100476190Y-154454819D02*
X100476190Y-155454819D01*
X100809524Y-154454819D02*
X101380952Y-154454819D01*
X101095238Y-155454819D02*
X101095238Y-154454819D01*
X102142857Y-154788152D02*
X102142857Y-155454819D01*
X101904762Y-154407200D02*
X101666667Y-155121485D01*
X101666667Y-155121485D02*
X102285714Y-155121485D01*
X140809580Y-133666666D02*
X140857200Y-133714285D01*
X140857200Y-133714285D02*
X140904819Y-133857142D01*
X140904819Y-133857142D02*
X140904819Y-133952380D01*
X140904819Y-133952380D02*
X140857200Y-134095237D01*
X140857200Y-134095237D02*
X140761961Y-134190475D01*
X140761961Y-134190475D02*
X140666723Y-134238094D01*
X140666723Y-134238094D02*
X140476247Y-134285713D01*
X140476247Y-134285713D02*
X140333390Y-134285713D01*
X140333390Y-134285713D02*
X140142914Y-134238094D01*
X140142914Y-134238094D02*
X140047676Y-134190475D01*
X140047676Y-134190475D02*
X139952438Y-134095237D01*
X139952438Y-134095237D02*
X139904819Y-133952380D01*
X139904819Y-133952380D02*
X139904819Y-133857142D01*
X139904819Y-133857142D02*
X139952438Y-133714285D01*
X139952438Y-133714285D02*
X140000057Y-133666666D01*
X140238152Y-132809523D02*
X140904819Y-132809523D01*
X139857200Y-133047618D02*
X140571485Y-133285713D01*
X140571485Y-133285713D02*
X140571485Y-132666666D01*
X147833333Y-110454819D02*
X147500000Y-109978628D01*
X147261905Y-110454819D02*
X147261905Y-109454819D01*
X147261905Y-109454819D02*
X147642857Y-109454819D01*
X147642857Y-109454819D02*
X147738095Y-109502438D01*
X147738095Y-109502438D02*
X147785714Y-109550057D01*
X147785714Y-109550057D02*
X147833333Y-109645295D01*
X147833333Y-109645295D02*
X147833333Y-109788152D01*
X147833333Y-109788152D02*
X147785714Y-109883390D01*
X147785714Y-109883390D02*
X147738095Y-109931009D01*
X147738095Y-109931009D02*
X147642857Y-109978628D01*
X147642857Y-109978628D02*
X147261905Y-109978628D01*
X148214286Y-109550057D02*
X148261905Y-109502438D01*
X148261905Y-109502438D02*
X148357143Y-109454819D01*
X148357143Y-109454819D02*
X148595238Y-109454819D01*
X148595238Y-109454819D02*
X148690476Y-109502438D01*
X148690476Y-109502438D02*
X148738095Y-109550057D01*
X148738095Y-109550057D02*
X148785714Y-109645295D01*
X148785714Y-109645295D02*
X148785714Y-109740533D01*
X148785714Y-109740533D02*
X148738095Y-109883390D01*
X148738095Y-109883390D02*
X148166667Y-110454819D01*
X148166667Y-110454819D02*
X148785714Y-110454819D01*
X200394642Y-119824819D02*
X200061309Y-119348628D01*
X199823214Y-119824819D02*
X199823214Y-118824819D01*
X199823214Y-118824819D02*
X200204166Y-118824819D01*
X200204166Y-118824819D02*
X200299404Y-118872438D01*
X200299404Y-118872438D02*
X200347023Y-118920057D01*
X200347023Y-118920057D02*
X200394642Y-119015295D01*
X200394642Y-119015295D02*
X200394642Y-119158152D01*
X200394642Y-119158152D02*
X200347023Y-119253390D01*
X200347023Y-119253390D02*
X200299404Y-119301009D01*
X200299404Y-119301009D02*
X200204166Y-119348628D01*
X200204166Y-119348628D02*
X199823214Y-119348628D01*
X201347023Y-119824819D02*
X200775595Y-119824819D01*
X201061309Y-119824819D02*
X201061309Y-118824819D01*
X201061309Y-118824819D02*
X200966071Y-118967676D01*
X200966071Y-118967676D02*
X200870833Y-119062914D01*
X200870833Y-119062914D02*
X200775595Y-119110533D01*
X201727976Y-118920057D02*
X201775595Y-118872438D01*
X201775595Y-118872438D02*
X201870833Y-118824819D01*
X201870833Y-118824819D02*
X202108928Y-118824819D01*
X202108928Y-118824819D02*
X202204166Y-118872438D01*
X202204166Y-118872438D02*
X202251785Y-118920057D01*
X202251785Y-118920057D02*
X202299404Y-119015295D01*
X202299404Y-119015295D02*
X202299404Y-119110533D01*
X202299404Y-119110533D02*
X202251785Y-119253390D01*
X202251785Y-119253390D02*
X201680357Y-119824819D01*
X201680357Y-119824819D02*
X202299404Y-119824819D01*
X175833333Y-119859580D02*
X175785714Y-119907200D01*
X175785714Y-119907200D02*
X175642857Y-119954819D01*
X175642857Y-119954819D02*
X175547619Y-119954819D01*
X175547619Y-119954819D02*
X175404762Y-119907200D01*
X175404762Y-119907200D02*
X175309524Y-119811961D01*
X175309524Y-119811961D02*
X175261905Y-119716723D01*
X175261905Y-119716723D02*
X175214286Y-119526247D01*
X175214286Y-119526247D02*
X175214286Y-119383390D01*
X175214286Y-119383390D02*
X175261905Y-119192914D01*
X175261905Y-119192914D02*
X175309524Y-119097676D01*
X175309524Y-119097676D02*
X175404762Y-119002438D01*
X175404762Y-119002438D02*
X175547619Y-118954819D01*
X175547619Y-118954819D02*
X175642857Y-118954819D01*
X175642857Y-118954819D02*
X175785714Y-119002438D01*
X175785714Y-119002438D02*
X175833333Y-119050057D01*
X176166667Y-118954819D02*
X176833333Y-118954819D01*
X176833333Y-118954819D02*
X176404762Y-119954819D01*
X155333333Y-118859580D02*
X155285714Y-118907200D01*
X155285714Y-118907200D02*
X155142857Y-118954819D01*
X155142857Y-118954819D02*
X155047619Y-118954819D01*
X155047619Y-118954819D02*
X154904762Y-118907200D01*
X154904762Y-118907200D02*
X154809524Y-118811961D01*
X154809524Y-118811961D02*
X154761905Y-118716723D01*
X154761905Y-118716723D02*
X154714286Y-118526247D01*
X154714286Y-118526247D02*
X154714286Y-118383390D01*
X154714286Y-118383390D02*
X154761905Y-118192914D01*
X154761905Y-118192914D02*
X154809524Y-118097676D01*
X154809524Y-118097676D02*
X154904762Y-118002438D01*
X154904762Y-118002438D02*
X155047619Y-117954819D01*
X155047619Y-117954819D02*
X155142857Y-117954819D01*
X155142857Y-117954819D02*
X155285714Y-118002438D01*
X155285714Y-118002438D02*
X155333333Y-118050057D01*
X155666667Y-117954819D02*
X156285714Y-117954819D01*
X156285714Y-117954819D02*
X155952381Y-118335771D01*
X155952381Y-118335771D02*
X156095238Y-118335771D01*
X156095238Y-118335771D02*
X156190476Y-118383390D01*
X156190476Y-118383390D02*
X156238095Y-118431009D01*
X156238095Y-118431009D02*
X156285714Y-118526247D01*
X156285714Y-118526247D02*
X156285714Y-118764342D01*
X156285714Y-118764342D02*
X156238095Y-118859580D01*
X156238095Y-118859580D02*
X156190476Y-118907200D01*
X156190476Y-118907200D02*
X156095238Y-118954819D01*
X156095238Y-118954819D02*
X155809524Y-118954819D01*
X155809524Y-118954819D02*
X155714286Y-118907200D01*
X155714286Y-118907200D02*
X155666667Y-118859580D01*
X99261905Y-120454819D02*
X99261905Y-119454819D01*
X99261905Y-119454819D02*
X99500000Y-119454819D01*
X99500000Y-119454819D02*
X99642857Y-119502438D01*
X99642857Y-119502438D02*
X99738095Y-119597676D01*
X99738095Y-119597676D02*
X99785714Y-119692914D01*
X99785714Y-119692914D02*
X99833333Y-119883390D01*
X99833333Y-119883390D02*
X99833333Y-120026247D01*
X99833333Y-120026247D02*
X99785714Y-120216723D01*
X99785714Y-120216723D02*
X99738095Y-120311961D01*
X99738095Y-120311961D02*
X99642857Y-120407200D01*
X99642857Y-120407200D02*
X99500000Y-120454819D01*
X99500000Y-120454819D02*
X99261905Y-120454819D01*
X100166667Y-119454819D02*
X100833333Y-119454819D01*
X100833333Y-119454819D02*
X100404762Y-120454819D01*
X195509642Y-151824819D02*
X195176309Y-151348628D01*
X194938214Y-151824819D02*
X194938214Y-150824819D01*
X194938214Y-150824819D02*
X195319166Y-150824819D01*
X195319166Y-150824819D02*
X195414404Y-150872438D01*
X195414404Y-150872438D02*
X195462023Y-150920057D01*
X195462023Y-150920057D02*
X195509642Y-151015295D01*
X195509642Y-151015295D02*
X195509642Y-151158152D01*
X195509642Y-151158152D02*
X195462023Y-151253390D01*
X195462023Y-151253390D02*
X195414404Y-151301009D01*
X195414404Y-151301009D02*
X195319166Y-151348628D01*
X195319166Y-151348628D02*
X194938214Y-151348628D01*
X196462023Y-151824819D02*
X195890595Y-151824819D01*
X196176309Y-151824819D02*
X196176309Y-150824819D01*
X196176309Y-150824819D02*
X196081071Y-150967676D01*
X196081071Y-150967676D02*
X195985833Y-151062914D01*
X195985833Y-151062914D02*
X195890595Y-151110533D01*
X197319166Y-151158152D02*
X197319166Y-151824819D01*
X197081071Y-150777200D02*
X196842976Y-151491485D01*
X196842976Y-151491485D02*
X197462023Y-151491485D01*
X147833333Y-102454819D02*
X147500000Y-101978628D01*
X147261905Y-102454819D02*
X147261905Y-101454819D01*
X147261905Y-101454819D02*
X147642857Y-101454819D01*
X147642857Y-101454819D02*
X147738095Y-101502438D01*
X147738095Y-101502438D02*
X147785714Y-101550057D01*
X147785714Y-101550057D02*
X147833333Y-101645295D01*
X147833333Y-101645295D02*
X147833333Y-101788152D01*
X147833333Y-101788152D02*
X147785714Y-101883390D01*
X147785714Y-101883390D02*
X147738095Y-101931009D01*
X147738095Y-101931009D02*
X147642857Y-101978628D01*
X147642857Y-101978628D02*
X147261905Y-101978628D01*
X148738095Y-101454819D02*
X148261905Y-101454819D01*
X148261905Y-101454819D02*
X148214286Y-101931009D01*
X148214286Y-101931009D02*
X148261905Y-101883390D01*
X148261905Y-101883390D02*
X148357143Y-101835771D01*
X148357143Y-101835771D02*
X148595238Y-101835771D01*
X148595238Y-101835771D02*
X148690476Y-101883390D01*
X148690476Y-101883390D02*
X148738095Y-101931009D01*
X148738095Y-101931009D02*
X148785714Y-102026247D01*
X148785714Y-102026247D02*
X148785714Y-102264342D01*
X148785714Y-102264342D02*
X148738095Y-102359580D01*
X148738095Y-102359580D02*
X148690476Y-102407200D01*
X148690476Y-102407200D02*
X148595238Y-102454819D01*
X148595238Y-102454819D02*
X148357143Y-102454819D01*
X148357143Y-102454819D02*
X148261905Y-102407200D01*
X148261905Y-102407200D02*
X148214286Y-102359580D01*
X127454819Y-73301904D02*
X128264342Y-73301904D01*
X128264342Y-73301904D02*
X128359580Y-73254285D01*
X128359580Y-73254285D02*
X128407200Y-73206666D01*
X128407200Y-73206666D02*
X128454819Y-73111428D01*
X128454819Y-73111428D02*
X128454819Y-72920952D01*
X128454819Y-72920952D02*
X128407200Y-72825714D01*
X128407200Y-72825714D02*
X128359580Y-72778095D01*
X128359580Y-72778095D02*
X128264342Y-72730476D01*
X128264342Y-72730476D02*
X127454819Y-72730476D01*
X127550057Y-72301904D02*
X127502438Y-72254285D01*
X127502438Y-72254285D02*
X127454819Y-72159047D01*
X127454819Y-72159047D02*
X127454819Y-71920952D01*
X127454819Y-71920952D02*
X127502438Y-71825714D01*
X127502438Y-71825714D02*
X127550057Y-71778095D01*
X127550057Y-71778095D02*
X127645295Y-71730476D01*
X127645295Y-71730476D02*
X127740533Y-71730476D01*
X127740533Y-71730476D02*
X127883390Y-71778095D01*
X127883390Y-71778095D02*
X128454819Y-72349523D01*
X128454819Y-72349523D02*
X128454819Y-71730476D01*
X145809580Y-133666666D02*
X145857200Y-133714285D01*
X145857200Y-133714285D02*
X145904819Y-133857142D01*
X145904819Y-133857142D02*
X145904819Y-133952380D01*
X145904819Y-133952380D02*
X145857200Y-134095237D01*
X145857200Y-134095237D02*
X145761961Y-134190475D01*
X145761961Y-134190475D02*
X145666723Y-134238094D01*
X145666723Y-134238094D02*
X145476247Y-134285713D01*
X145476247Y-134285713D02*
X145333390Y-134285713D01*
X145333390Y-134285713D02*
X145142914Y-134238094D01*
X145142914Y-134238094D02*
X145047676Y-134190475D01*
X145047676Y-134190475D02*
X144952438Y-134095237D01*
X144952438Y-134095237D02*
X144904819Y-133952380D01*
X144904819Y-133952380D02*
X144904819Y-133857142D01*
X144904819Y-133857142D02*
X144952438Y-133714285D01*
X144952438Y-133714285D02*
X145000057Y-133666666D01*
X145904819Y-132714285D02*
X145904819Y-133285713D01*
X145904819Y-132999999D02*
X144904819Y-132999999D01*
X144904819Y-132999999D02*
X145047676Y-133095237D01*
X145047676Y-133095237D02*
X145142914Y-133190475D01*
X145142914Y-133190475D02*
X145190533Y-133285713D01*
X182775595Y-74074819D02*
X183347023Y-74074819D01*
X183061309Y-75074819D02*
X183061309Y-74074819D01*
X183680357Y-75074819D02*
X183680357Y-74074819D01*
X183680357Y-74074819D02*
X184061309Y-74074819D01*
X184061309Y-74074819D02*
X184156547Y-74122438D01*
X184156547Y-74122438D02*
X184204166Y-74170057D01*
X184204166Y-74170057D02*
X184251785Y-74265295D01*
X184251785Y-74265295D02*
X184251785Y-74408152D01*
X184251785Y-74408152D02*
X184204166Y-74503390D01*
X184204166Y-74503390D02*
X184156547Y-74551009D01*
X184156547Y-74551009D02*
X184061309Y-74598628D01*
X184061309Y-74598628D02*
X183680357Y-74598628D01*
X184823214Y-74503390D02*
X184727976Y-74455771D01*
X184727976Y-74455771D02*
X184680357Y-74408152D01*
X184680357Y-74408152D02*
X184632738Y-74312914D01*
X184632738Y-74312914D02*
X184632738Y-74265295D01*
X184632738Y-74265295D02*
X184680357Y-74170057D01*
X184680357Y-74170057D02*
X184727976Y-74122438D01*
X184727976Y-74122438D02*
X184823214Y-74074819D01*
X184823214Y-74074819D02*
X185013690Y-74074819D01*
X185013690Y-74074819D02*
X185108928Y-74122438D01*
X185108928Y-74122438D02*
X185156547Y-74170057D01*
X185156547Y-74170057D02*
X185204166Y-74265295D01*
X185204166Y-74265295D02*
X185204166Y-74312914D01*
X185204166Y-74312914D02*
X185156547Y-74408152D01*
X185156547Y-74408152D02*
X185108928Y-74455771D01*
X185108928Y-74455771D02*
X185013690Y-74503390D01*
X185013690Y-74503390D02*
X184823214Y-74503390D01*
X184823214Y-74503390D02*
X184727976Y-74551009D01*
X184727976Y-74551009D02*
X184680357Y-74598628D01*
X184680357Y-74598628D02*
X184632738Y-74693866D01*
X184632738Y-74693866D02*
X184632738Y-74884342D01*
X184632738Y-74884342D02*
X184680357Y-74979580D01*
X184680357Y-74979580D02*
X184727976Y-75027200D01*
X184727976Y-75027200D02*
X184823214Y-75074819D01*
X184823214Y-75074819D02*
X185013690Y-75074819D01*
X185013690Y-75074819D02*
X185108928Y-75027200D01*
X185108928Y-75027200D02*
X185156547Y-74979580D01*
X185156547Y-74979580D02*
X185204166Y-74884342D01*
X185204166Y-74884342D02*
X185204166Y-74693866D01*
X185204166Y-74693866D02*
X185156547Y-74598628D01*
X185156547Y-74598628D02*
X185108928Y-74551009D01*
X185108928Y-74551009D02*
X185013690Y-74503390D01*
X199336905Y-102074819D02*
X199908333Y-102074819D01*
X199622619Y-103074819D02*
X199622619Y-102074819D01*
X200241667Y-103074819D02*
X200241667Y-102074819D01*
X200241667Y-102074819D02*
X200622619Y-102074819D01*
X200622619Y-102074819D02*
X200717857Y-102122438D01*
X200717857Y-102122438D02*
X200765476Y-102170057D01*
X200765476Y-102170057D02*
X200813095Y-102265295D01*
X200813095Y-102265295D02*
X200813095Y-102408152D01*
X200813095Y-102408152D02*
X200765476Y-102503390D01*
X200765476Y-102503390D02*
X200717857Y-102551009D01*
X200717857Y-102551009D02*
X200622619Y-102598628D01*
X200622619Y-102598628D02*
X200241667Y-102598628D01*
X201765476Y-103074819D02*
X201194048Y-103074819D01*
X201479762Y-103074819D02*
X201479762Y-102074819D01*
X201479762Y-102074819D02*
X201384524Y-102217676D01*
X201384524Y-102217676D02*
X201289286Y-102312914D01*
X201289286Y-102312914D02*
X201194048Y-102360533D01*
X202146429Y-102170057D02*
X202194048Y-102122438D01*
X202194048Y-102122438D02*
X202289286Y-102074819D01*
X202289286Y-102074819D02*
X202527381Y-102074819D01*
X202527381Y-102074819D02*
X202622619Y-102122438D01*
X202622619Y-102122438D02*
X202670238Y-102170057D01*
X202670238Y-102170057D02*
X202717857Y-102265295D01*
X202717857Y-102265295D02*
X202717857Y-102360533D01*
X202717857Y-102360533D02*
X202670238Y-102503390D01*
X202670238Y-102503390D02*
X202098810Y-103074819D01*
X202098810Y-103074819D02*
X202717857Y-103074819D01*
X200904761Y-138990057D02*
X200809523Y-138942438D01*
X200809523Y-138942438D02*
X200714285Y-138847200D01*
X200714285Y-138847200D02*
X200571428Y-138704342D01*
X200571428Y-138704342D02*
X200476190Y-138656723D01*
X200476190Y-138656723D02*
X200380952Y-138656723D01*
X200428571Y-138894819D02*
X200333333Y-138847200D01*
X200333333Y-138847200D02*
X200238095Y-138751961D01*
X200238095Y-138751961D02*
X200190476Y-138561485D01*
X200190476Y-138561485D02*
X200190476Y-138228152D01*
X200190476Y-138228152D02*
X200238095Y-138037676D01*
X200238095Y-138037676D02*
X200333333Y-137942438D01*
X200333333Y-137942438D02*
X200428571Y-137894819D01*
X200428571Y-137894819D02*
X200619047Y-137894819D01*
X200619047Y-137894819D02*
X200714285Y-137942438D01*
X200714285Y-137942438D02*
X200809523Y-138037676D01*
X200809523Y-138037676D02*
X200857142Y-138228152D01*
X200857142Y-138228152D02*
X200857142Y-138561485D01*
X200857142Y-138561485D02*
X200809523Y-138751961D01*
X200809523Y-138751961D02*
X200714285Y-138847200D01*
X200714285Y-138847200D02*
X200619047Y-138894819D01*
X200619047Y-138894819D02*
X200428571Y-138894819D01*
X201190476Y-137894819D02*
X201809523Y-137894819D01*
X201809523Y-137894819D02*
X201476190Y-138275771D01*
X201476190Y-138275771D02*
X201619047Y-138275771D01*
X201619047Y-138275771D02*
X201714285Y-138323390D01*
X201714285Y-138323390D02*
X201761904Y-138371009D01*
X201761904Y-138371009D02*
X201809523Y-138466247D01*
X201809523Y-138466247D02*
X201809523Y-138704342D01*
X201809523Y-138704342D02*
X201761904Y-138799580D01*
X201761904Y-138799580D02*
X201714285Y-138847200D01*
X201714285Y-138847200D02*
X201619047Y-138894819D01*
X201619047Y-138894819D02*
X201333333Y-138894819D01*
X201333333Y-138894819D02*
X201238095Y-138847200D01*
X201238095Y-138847200D02*
X201190476Y-138799580D01*
X107357142Y-125459819D02*
X107023809Y-124983628D01*
X106785714Y-125459819D02*
X106785714Y-124459819D01*
X106785714Y-124459819D02*
X107166666Y-124459819D01*
X107166666Y-124459819D02*
X107261904Y-124507438D01*
X107261904Y-124507438D02*
X107309523Y-124555057D01*
X107309523Y-124555057D02*
X107357142Y-124650295D01*
X107357142Y-124650295D02*
X107357142Y-124793152D01*
X107357142Y-124793152D02*
X107309523Y-124888390D01*
X107309523Y-124888390D02*
X107261904Y-124936009D01*
X107261904Y-124936009D02*
X107166666Y-124983628D01*
X107166666Y-124983628D02*
X106785714Y-124983628D01*
X108309523Y-125459819D02*
X107738095Y-125459819D01*
X108023809Y-125459819D02*
X108023809Y-124459819D01*
X108023809Y-124459819D02*
X107928571Y-124602676D01*
X107928571Y-124602676D02*
X107833333Y-124697914D01*
X107833333Y-124697914D02*
X107738095Y-124745533D01*
X109214285Y-124459819D02*
X108738095Y-124459819D01*
X108738095Y-124459819D02*
X108690476Y-124936009D01*
X108690476Y-124936009D02*
X108738095Y-124888390D01*
X108738095Y-124888390D02*
X108833333Y-124840771D01*
X108833333Y-124840771D02*
X109071428Y-124840771D01*
X109071428Y-124840771D02*
X109166666Y-124888390D01*
X109166666Y-124888390D02*
X109214285Y-124936009D01*
X109214285Y-124936009D02*
X109261904Y-125031247D01*
X109261904Y-125031247D02*
X109261904Y-125269342D01*
X109261904Y-125269342D02*
X109214285Y-125364580D01*
X109214285Y-125364580D02*
X109166666Y-125412200D01*
X109166666Y-125412200D02*
X109071428Y-125459819D01*
X109071428Y-125459819D02*
X108833333Y-125459819D01*
X108833333Y-125459819D02*
X108738095Y-125412200D01*
X108738095Y-125412200D02*
X108690476Y-125364580D01*
X190833333Y-75004819D02*
X190500000Y-74528628D01*
X190261905Y-75004819D02*
X190261905Y-74004819D01*
X190261905Y-74004819D02*
X190642857Y-74004819D01*
X190642857Y-74004819D02*
X190738095Y-74052438D01*
X190738095Y-74052438D02*
X190785714Y-74100057D01*
X190785714Y-74100057D02*
X190833333Y-74195295D01*
X190833333Y-74195295D02*
X190833333Y-74338152D01*
X190833333Y-74338152D02*
X190785714Y-74433390D01*
X190785714Y-74433390D02*
X190738095Y-74481009D01*
X190738095Y-74481009D02*
X190642857Y-74528628D01*
X190642857Y-74528628D02*
X190261905Y-74528628D01*
X191309524Y-75004819D02*
X191500000Y-75004819D01*
X191500000Y-75004819D02*
X191595238Y-74957200D01*
X191595238Y-74957200D02*
X191642857Y-74909580D01*
X191642857Y-74909580D02*
X191738095Y-74766723D01*
X191738095Y-74766723D02*
X191785714Y-74576247D01*
X191785714Y-74576247D02*
X191785714Y-74195295D01*
X191785714Y-74195295D02*
X191738095Y-74100057D01*
X191738095Y-74100057D02*
X191690476Y-74052438D01*
X191690476Y-74052438D02*
X191595238Y-74004819D01*
X191595238Y-74004819D02*
X191404762Y-74004819D01*
X191404762Y-74004819D02*
X191309524Y-74052438D01*
X191309524Y-74052438D02*
X191261905Y-74100057D01*
X191261905Y-74100057D02*
X191214286Y-74195295D01*
X191214286Y-74195295D02*
X191214286Y-74433390D01*
X191214286Y-74433390D02*
X191261905Y-74528628D01*
X191261905Y-74528628D02*
X191309524Y-74576247D01*
X191309524Y-74576247D02*
X191404762Y-74623866D01*
X191404762Y-74623866D02*
X191595238Y-74623866D01*
X191595238Y-74623866D02*
X191690476Y-74576247D01*
X191690476Y-74576247D02*
X191738095Y-74528628D01*
X191738095Y-74528628D02*
X191785714Y-74433390D01*
X152738095Y-108074819D02*
X153309523Y-108074819D01*
X153023809Y-109074819D02*
X153023809Y-108074819D01*
X153642857Y-109074819D02*
X153642857Y-108074819D01*
X153642857Y-108074819D02*
X154023809Y-108074819D01*
X154023809Y-108074819D02*
X154119047Y-108122438D01*
X154119047Y-108122438D02*
X154166666Y-108170057D01*
X154166666Y-108170057D02*
X154214285Y-108265295D01*
X154214285Y-108265295D02*
X154214285Y-108408152D01*
X154214285Y-108408152D02*
X154166666Y-108503390D01*
X154166666Y-108503390D02*
X154119047Y-108551009D01*
X154119047Y-108551009D02*
X154023809Y-108598628D01*
X154023809Y-108598628D02*
X153642857Y-108598628D01*
X154547619Y-108074819D02*
X155214285Y-108074819D01*
X155214285Y-108074819D02*
X154785714Y-109074819D01*
X165859580Y-128166666D02*
X165907200Y-128214285D01*
X165907200Y-128214285D02*
X165954819Y-128357142D01*
X165954819Y-128357142D02*
X165954819Y-128452380D01*
X165954819Y-128452380D02*
X165907200Y-128595237D01*
X165907200Y-128595237D02*
X165811961Y-128690475D01*
X165811961Y-128690475D02*
X165716723Y-128738094D01*
X165716723Y-128738094D02*
X165526247Y-128785713D01*
X165526247Y-128785713D02*
X165383390Y-128785713D01*
X165383390Y-128785713D02*
X165192914Y-128738094D01*
X165192914Y-128738094D02*
X165097676Y-128690475D01*
X165097676Y-128690475D02*
X165002438Y-128595237D01*
X165002438Y-128595237D02*
X164954819Y-128452380D01*
X164954819Y-128452380D02*
X164954819Y-128357142D01*
X164954819Y-128357142D02*
X165002438Y-128214285D01*
X165002438Y-128214285D02*
X165050057Y-128166666D01*
X165050057Y-127785713D02*
X165002438Y-127738094D01*
X165002438Y-127738094D02*
X164954819Y-127642856D01*
X164954819Y-127642856D02*
X164954819Y-127404761D01*
X164954819Y-127404761D02*
X165002438Y-127309523D01*
X165002438Y-127309523D02*
X165050057Y-127261904D01*
X165050057Y-127261904D02*
X165145295Y-127214285D01*
X165145295Y-127214285D02*
X165240533Y-127214285D01*
X165240533Y-127214285D02*
X165383390Y-127261904D01*
X165383390Y-127261904D02*
X165954819Y-127833332D01*
X165954819Y-127833332D02*
X165954819Y-127214285D01*
X175833333Y-125859580D02*
X175785714Y-125907200D01*
X175785714Y-125907200D02*
X175642857Y-125954819D01*
X175642857Y-125954819D02*
X175547619Y-125954819D01*
X175547619Y-125954819D02*
X175404762Y-125907200D01*
X175404762Y-125907200D02*
X175309524Y-125811961D01*
X175309524Y-125811961D02*
X175261905Y-125716723D01*
X175261905Y-125716723D02*
X175214286Y-125526247D01*
X175214286Y-125526247D02*
X175214286Y-125383390D01*
X175214286Y-125383390D02*
X175261905Y-125192914D01*
X175261905Y-125192914D02*
X175309524Y-125097676D01*
X175309524Y-125097676D02*
X175404762Y-125002438D01*
X175404762Y-125002438D02*
X175547619Y-124954819D01*
X175547619Y-124954819D02*
X175642857Y-124954819D01*
X175642857Y-124954819D02*
X175785714Y-125002438D01*
X175785714Y-125002438D02*
X175833333Y-125050057D01*
X176404762Y-125383390D02*
X176309524Y-125335771D01*
X176309524Y-125335771D02*
X176261905Y-125288152D01*
X176261905Y-125288152D02*
X176214286Y-125192914D01*
X176214286Y-125192914D02*
X176214286Y-125145295D01*
X176214286Y-125145295D02*
X176261905Y-125050057D01*
X176261905Y-125050057D02*
X176309524Y-125002438D01*
X176309524Y-125002438D02*
X176404762Y-124954819D01*
X176404762Y-124954819D02*
X176595238Y-124954819D01*
X176595238Y-124954819D02*
X176690476Y-125002438D01*
X176690476Y-125002438D02*
X176738095Y-125050057D01*
X176738095Y-125050057D02*
X176785714Y-125145295D01*
X176785714Y-125145295D02*
X176785714Y-125192914D01*
X176785714Y-125192914D02*
X176738095Y-125288152D01*
X176738095Y-125288152D02*
X176690476Y-125335771D01*
X176690476Y-125335771D02*
X176595238Y-125383390D01*
X176595238Y-125383390D02*
X176404762Y-125383390D01*
X176404762Y-125383390D02*
X176309524Y-125431009D01*
X176309524Y-125431009D02*
X176261905Y-125478628D01*
X176261905Y-125478628D02*
X176214286Y-125573866D01*
X176214286Y-125573866D02*
X176214286Y-125764342D01*
X176214286Y-125764342D02*
X176261905Y-125859580D01*
X176261905Y-125859580D02*
X176309524Y-125907200D01*
X176309524Y-125907200D02*
X176404762Y-125954819D01*
X176404762Y-125954819D02*
X176595238Y-125954819D01*
X176595238Y-125954819D02*
X176690476Y-125907200D01*
X176690476Y-125907200D02*
X176738095Y-125859580D01*
X176738095Y-125859580D02*
X176785714Y-125764342D01*
X176785714Y-125764342D02*
X176785714Y-125573866D01*
X176785714Y-125573866D02*
X176738095Y-125478628D01*
X176738095Y-125478628D02*
X176690476Y-125431009D01*
X176690476Y-125431009D02*
X176595238Y-125383390D01*
X190394642Y-96824819D02*
X190061309Y-96348628D01*
X189823214Y-96824819D02*
X189823214Y-95824819D01*
X189823214Y-95824819D02*
X190204166Y-95824819D01*
X190204166Y-95824819D02*
X190299404Y-95872438D01*
X190299404Y-95872438D02*
X190347023Y-95920057D01*
X190347023Y-95920057D02*
X190394642Y-96015295D01*
X190394642Y-96015295D02*
X190394642Y-96158152D01*
X190394642Y-96158152D02*
X190347023Y-96253390D01*
X190347023Y-96253390D02*
X190299404Y-96301009D01*
X190299404Y-96301009D02*
X190204166Y-96348628D01*
X190204166Y-96348628D02*
X189823214Y-96348628D01*
X191347023Y-96824819D02*
X190775595Y-96824819D01*
X191061309Y-96824819D02*
X191061309Y-95824819D01*
X191061309Y-95824819D02*
X190966071Y-95967676D01*
X190966071Y-95967676D02*
X190870833Y-96062914D01*
X190870833Y-96062914D02*
X190775595Y-96110533D01*
X192299404Y-96824819D02*
X191727976Y-96824819D01*
X192013690Y-96824819D02*
X192013690Y-95824819D01*
X192013690Y-95824819D02*
X191918452Y-95967676D01*
X191918452Y-95967676D02*
X191823214Y-96062914D01*
X191823214Y-96062914D02*
X191727976Y-96110533D01*
X119607142Y-137109580D02*
X119559523Y-137157200D01*
X119559523Y-137157200D02*
X119416666Y-137204819D01*
X119416666Y-137204819D02*
X119321428Y-137204819D01*
X119321428Y-137204819D02*
X119178571Y-137157200D01*
X119178571Y-137157200D02*
X119083333Y-137061961D01*
X119083333Y-137061961D02*
X119035714Y-136966723D01*
X119035714Y-136966723D02*
X118988095Y-136776247D01*
X118988095Y-136776247D02*
X118988095Y-136633390D01*
X118988095Y-136633390D02*
X119035714Y-136442914D01*
X119035714Y-136442914D02*
X119083333Y-136347676D01*
X119083333Y-136347676D02*
X119178571Y-136252438D01*
X119178571Y-136252438D02*
X119321428Y-136204819D01*
X119321428Y-136204819D02*
X119416666Y-136204819D01*
X119416666Y-136204819D02*
X119559523Y-136252438D01*
X119559523Y-136252438D02*
X119607142Y-136300057D01*
X120559523Y-137204819D02*
X119988095Y-137204819D01*
X120273809Y-137204819D02*
X120273809Y-136204819D01*
X120273809Y-136204819D02*
X120178571Y-136347676D01*
X120178571Y-136347676D02*
X120083333Y-136442914D01*
X120083333Y-136442914D02*
X119988095Y-136490533D01*
X121511904Y-137204819D02*
X120940476Y-137204819D01*
X121226190Y-137204819D02*
X121226190Y-136204819D01*
X121226190Y-136204819D02*
X121130952Y-136347676D01*
X121130952Y-136347676D02*
X121035714Y-136442914D01*
X121035714Y-136442914D02*
X120940476Y-136490533D01*
X210991905Y-106494819D02*
X210991905Y-105494819D01*
X210991905Y-105494819D02*
X211230000Y-105494819D01*
X211230000Y-105494819D02*
X211372857Y-105542438D01*
X211372857Y-105542438D02*
X211468095Y-105637676D01*
X211468095Y-105637676D02*
X211515714Y-105732914D01*
X211515714Y-105732914D02*
X211563333Y-105923390D01*
X211563333Y-105923390D02*
X211563333Y-106066247D01*
X211563333Y-106066247D02*
X211515714Y-106256723D01*
X211515714Y-106256723D02*
X211468095Y-106351961D01*
X211468095Y-106351961D02*
X211372857Y-106447200D01*
X211372857Y-106447200D02*
X211230000Y-106494819D01*
X211230000Y-106494819D02*
X210991905Y-106494819D01*
X212420476Y-105828152D02*
X212420476Y-106494819D01*
X212182381Y-105447200D02*
X211944286Y-106161485D01*
X211944286Y-106161485D02*
X212563333Y-106161485D01*
X153076905Y-96344819D02*
X153648333Y-96344819D01*
X153362619Y-97344819D02*
X153362619Y-96344819D01*
X153981667Y-97344819D02*
X153981667Y-96344819D01*
X153981667Y-96344819D02*
X154362619Y-96344819D01*
X154362619Y-96344819D02*
X154457857Y-96392438D01*
X154457857Y-96392438D02*
X154505476Y-96440057D01*
X154505476Y-96440057D02*
X154553095Y-96535295D01*
X154553095Y-96535295D02*
X154553095Y-96678152D01*
X154553095Y-96678152D02*
X154505476Y-96773390D01*
X154505476Y-96773390D02*
X154457857Y-96821009D01*
X154457857Y-96821009D02*
X154362619Y-96868628D01*
X154362619Y-96868628D02*
X153981667Y-96868628D01*
X155505476Y-97344819D02*
X154934048Y-97344819D01*
X155219762Y-97344819D02*
X155219762Y-96344819D01*
X155219762Y-96344819D02*
X155124524Y-96487676D01*
X155124524Y-96487676D02*
X155029286Y-96582914D01*
X155029286Y-96582914D02*
X154934048Y-96630533D01*
X156410238Y-96344819D02*
X155934048Y-96344819D01*
X155934048Y-96344819D02*
X155886429Y-96821009D01*
X155886429Y-96821009D02*
X155934048Y-96773390D01*
X155934048Y-96773390D02*
X156029286Y-96725771D01*
X156029286Y-96725771D02*
X156267381Y-96725771D01*
X156267381Y-96725771D02*
X156362619Y-96773390D01*
X156362619Y-96773390D02*
X156410238Y-96821009D01*
X156410238Y-96821009D02*
X156457857Y-96916247D01*
X156457857Y-96916247D02*
X156457857Y-97154342D01*
X156457857Y-97154342D02*
X156410238Y-97249580D01*
X156410238Y-97249580D02*
X156362619Y-97297200D01*
X156362619Y-97297200D02*
X156267381Y-97344819D01*
X156267381Y-97344819D02*
X156029286Y-97344819D01*
X156029286Y-97344819D02*
X155934048Y-97297200D01*
X155934048Y-97297200D02*
X155886429Y-97249580D01*
X210991905Y-84494819D02*
X210991905Y-83494819D01*
X210991905Y-83494819D02*
X211230000Y-83494819D01*
X211230000Y-83494819D02*
X211372857Y-83542438D01*
X211372857Y-83542438D02*
X211468095Y-83637676D01*
X211468095Y-83637676D02*
X211515714Y-83732914D01*
X211515714Y-83732914D02*
X211563333Y-83923390D01*
X211563333Y-83923390D02*
X211563333Y-84066247D01*
X211563333Y-84066247D02*
X211515714Y-84256723D01*
X211515714Y-84256723D02*
X211468095Y-84351961D01*
X211468095Y-84351961D02*
X211372857Y-84447200D01*
X211372857Y-84447200D02*
X211230000Y-84494819D01*
X211230000Y-84494819D02*
X210991905Y-84494819D01*
X211944286Y-83590057D02*
X211991905Y-83542438D01*
X211991905Y-83542438D02*
X212087143Y-83494819D01*
X212087143Y-83494819D02*
X212325238Y-83494819D01*
X212325238Y-83494819D02*
X212420476Y-83542438D01*
X212420476Y-83542438D02*
X212468095Y-83590057D01*
X212468095Y-83590057D02*
X212515714Y-83685295D01*
X212515714Y-83685295D02*
X212515714Y-83780533D01*
X212515714Y-83780533D02*
X212468095Y-83923390D01*
X212468095Y-83923390D02*
X211896667Y-84494819D01*
X211896667Y-84494819D02*
X212515714Y-84494819D01*
X141023333Y-152084819D02*
X140690000Y-151608628D01*
X140451905Y-152084819D02*
X140451905Y-151084819D01*
X140451905Y-151084819D02*
X140832857Y-151084819D01*
X140832857Y-151084819D02*
X140928095Y-151132438D01*
X140928095Y-151132438D02*
X140975714Y-151180057D01*
X140975714Y-151180057D02*
X141023333Y-151275295D01*
X141023333Y-151275295D02*
X141023333Y-151418152D01*
X141023333Y-151418152D02*
X140975714Y-151513390D01*
X140975714Y-151513390D02*
X140928095Y-151561009D01*
X140928095Y-151561009D02*
X140832857Y-151608628D01*
X140832857Y-151608628D02*
X140451905Y-151608628D01*
X141880476Y-151084819D02*
X141690000Y-151084819D01*
X141690000Y-151084819D02*
X141594762Y-151132438D01*
X141594762Y-151132438D02*
X141547143Y-151180057D01*
X141547143Y-151180057D02*
X141451905Y-151322914D01*
X141451905Y-151322914D02*
X141404286Y-151513390D01*
X141404286Y-151513390D02*
X141404286Y-151894342D01*
X141404286Y-151894342D02*
X141451905Y-151989580D01*
X141451905Y-151989580D02*
X141499524Y-152037200D01*
X141499524Y-152037200D02*
X141594762Y-152084819D01*
X141594762Y-152084819D02*
X141785238Y-152084819D01*
X141785238Y-152084819D02*
X141880476Y-152037200D01*
X141880476Y-152037200D02*
X141928095Y-151989580D01*
X141928095Y-151989580D02*
X141975714Y-151894342D01*
X141975714Y-151894342D02*
X141975714Y-151656247D01*
X141975714Y-151656247D02*
X141928095Y-151561009D01*
X141928095Y-151561009D02*
X141880476Y-151513390D01*
X141880476Y-151513390D02*
X141785238Y-151465771D01*
X141785238Y-151465771D02*
X141594762Y-151465771D01*
X141594762Y-151465771D02*
X141499524Y-151513390D01*
X141499524Y-151513390D02*
X141451905Y-151561009D01*
X141451905Y-151561009D02*
X141404286Y-151656247D01*
X120275238Y-66931009D02*
X120418095Y-66978628D01*
X120418095Y-66978628D02*
X120465714Y-67026247D01*
X120465714Y-67026247D02*
X120513333Y-67121485D01*
X120513333Y-67121485D02*
X120513333Y-67264342D01*
X120513333Y-67264342D02*
X120465714Y-67359580D01*
X120465714Y-67359580D02*
X120418095Y-67407200D01*
X120418095Y-67407200D02*
X120322857Y-67454819D01*
X120322857Y-67454819D02*
X119941905Y-67454819D01*
X119941905Y-67454819D02*
X119941905Y-66454819D01*
X119941905Y-66454819D02*
X120275238Y-66454819D01*
X120275238Y-66454819D02*
X120370476Y-66502438D01*
X120370476Y-66502438D02*
X120418095Y-66550057D01*
X120418095Y-66550057D02*
X120465714Y-66645295D01*
X120465714Y-66645295D02*
X120465714Y-66740533D01*
X120465714Y-66740533D02*
X120418095Y-66835771D01*
X120418095Y-66835771D02*
X120370476Y-66883390D01*
X120370476Y-66883390D02*
X120275238Y-66931009D01*
X120275238Y-66931009D02*
X119941905Y-66931009D01*
X121513333Y-67454819D02*
X121180000Y-66978628D01*
X120941905Y-67454819D02*
X120941905Y-66454819D01*
X120941905Y-66454819D02*
X121322857Y-66454819D01*
X121322857Y-66454819D02*
X121418095Y-66502438D01*
X121418095Y-66502438D02*
X121465714Y-66550057D01*
X121465714Y-66550057D02*
X121513333Y-66645295D01*
X121513333Y-66645295D02*
X121513333Y-66788152D01*
X121513333Y-66788152D02*
X121465714Y-66883390D01*
X121465714Y-66883390D02*
X121418095Y-66931009D01*
X121418095Y-66931009D02*
X121322857Y-66978628D01*
X121322857Y-66978628D02*
X120941905Y-66978628D01*
X122465714Y-67454819D02*
X121894286Y-67454819D01*
X122180000Y-67454819D02*
X122180000Y-66454819D01*
X122180000Y-66454819D02*
X122084762Y-66597676D01*
X122084762Y-66597676D02*
X121989524Y-66692914D01*
X121989524Y-66692914D02*
X121894286Y-66740533D01*
X104454819Y-143873333D02*
X105169104Y-143873333D01*
X105169104Y-143873333D02*
X105311961Y-143920952D01*
X105311961Y-143920952D02*
X105407200Y-144016190D01*
X105407200Y-144016190D02*
X105454819Y-144159047D01*
X105454819Y-144159047D02*
X105454819Y-144254285D01*
X105454819Y-142873333D02*
X105454819Y-143444761D01*
X105454819Y-143159047D02*
X104454819Y-143159047D01*
X104454819Y-143159047D02*
X104597676Y-143254285D01*
X104597676Y-143254285D02*
X104692914Y-143349523D01*
X104692914Y-143349523D02*
X104740533Y-143444761D01*
X199299405Y-66074819D02*
X199870833Y-66074819D01*
X199585119Y-67074819D02*
X199585119Y-66074819D01*
X200204167Y-67074819D02*
X200204167Y-66074819D01*
X200204167Y-66074819D02*
X200585119Y-66074819D01*
X200585119Y-66074819D02*
X200680357Y-66122438D01*
X200680357Y-66122438D02*
X200727976Y-66170057D01*
X200727976Y-66170057D02*
X200775595Y-66265295D01*
X200775595Y-66265295D02*
X200775595Y-66408152D01*
X200775595Y-66408152D02*
X200727976Y-66503390D01*
X200727976Y-66503390D02*
X200680357Y-66551009D01*
X200680357Y-66551009D02*
X200585119Y-66598628D01*
X200585119Y-66598628D02*
X200204167Y-66598628D01*
X201727976Y-67074819D02*
X201156548Y-67074819D01*
X201442262Y-67074819D02*
X201442262Y-66074819D01*
X201442262Y-66074819D02*
X201347024Y-66217676D01*
X201347024Y-66217676D02*
X201251786Y-66312914D01*
X201251786Y-66312914D02*
X201156548Y-66360533D01*
X202680357Y-67074819D02*
X202108929Y-67074819D01*
X202394643Y-67074819D02*
X202394643Y-66074819D01*
X202394643Y-66074819D02*
X202299405Y-66217676D01*
X202299405Y-66217676D02*
X202204167Y-66312914D01*
X202204167Y-66312914D02*
X202108929Y-66360533D01*
X155943333Y-152084819D02*
X155610000Y-151608628D01*
X155371905Y-152084819D02*
X155371905Y-151084819D01*
X155371905Y-151084819D02*
X155752857Y-151084819D01*
X155752857Y-151084819D02*
X155848095Y-151132438D01*
X155848095Y-151132438D02*
X155895714Y-151180057D01*
X155895714Y-151180057D02*
X155943333Y-151275295D01*
X155943333Y-151275295D02*
X155943333Y-151418152D01*
X155943333Y-151418152D02*
X155895714Y-151513390D01*
X155895714Y-151513390D02*
X155848095Y-151561009D01*
X155848095Y-151561009D02*
X155752857Y-151608628D01*
X155752857Y-151608628D02*
X155371905Y-151608628D01*
X156276667Y-151084819D02*
X156943333Y-151084819D01*
X156943333Y-151084819D02*
X156514762Y-152084819D01*
X183394642Y-137824819D02*
X183061309Y-137348628D01*
X182823214Y-137824819D02*
X182823214Y-136824819D01*
X182823214Y-136824819D02*
X183204166Y-136824819D01*
X183204166Y-136824819D02*
X183299404Y-136872438D01*
X183299404Y-136872438D02*
X183347023Y-136920057D01*
X183347023Y-136920057D02*
X183394642Y-137015295D01*
X183394642Y-137015295D02*
X183394642Y-137158152D01*
X183394642Y-137158152D02*
X183347023Y-137253390D01*
X183347023Y-137253390D02*
X183299404Y-137301009D01*
X183299404Y-137301009D02*
X183204166Y-137348628D01*
X183204166Y-137348628D02*
X182823214Y-137348628D01*
X184347023Y-137824819D02*
X183775595Y-137824819D01*
X184061309Y-137824819D02*
X184061309Y-136824819D01*
X184061309Y-136824819D02*
X183966071Y-136967676D01*
X183966071Y-136967676D02*
X183870833Y-137062914D01*
X183870833Y-137062914D02*
X183775595Y-137110533D01*
X184680357Y-136824819D02*
X185299404Y-136824819D01*
X185299404Y-136824819D02*
X184966071Y-137205771D01*
X184966071Y-137205771D02*
X185108928Y-137205771D01*
X185108928Y-137205771D02*
X185204166Y-137253390D01*
X185204166Y-137253390D02*
X185251785Y-137301009D01*
X185251785Y-137301009D02*
X185299404Y-137396247D01*
X185299404Y-137396247D02*
X185299404Y-137634342D01*
X185299404Y-137634342D02*
X185251785Y-137729580D01*
X185251785Y-137729580D02*
X185204166Y-137777200D01*
X185204166Y-137777200D02*
X185108928Y-137824819D01*
X185108928Y-137824819D02*
X184823214Y-137824819D01*
X184823214Y-137824819D02*
X184727976Y-137777200D01*
X184727976Y-137777200D02*
X184680357Y-137729580D01*
X107261905Y-145074819D02*
X107833333Y-145074819D01*
X107547619Y-146074819D02*
X107547619Y-145074819D01*
X108166667Y-146074819D02*
X108166667Y-145074819D01*
X108166667Y-145074819D02*
X108547619Y-145074819D01*
X108547619Y-145074819D02*
X108642857Y-145122438D01*
X108642857Y-145122438D02*
X108690476Y-145170057D01*
X108690476Y-145170057D02*
X108738095Y-145265295D01*
X108738095Y-145265295D02*
X108738095Y-145408152D01*
X108738095Y-145408152D02*
X108690476Y-145503390D01*
X108690476Y-145503390D02*
X108642857Y-145551009D01*
X108642857Y-145551009D02*
X108547619Y-145598628D01*
X108547619Y-145598628D02*
X108166667Y-145598628D01*
X109690476Y-146074819D02*
X109119048Y-146074819D01*
X109404762Y-146074819D02*
X109404762Y-145074819D01*
X109404762Y-145074819D02*
X109309524Y-145217676D01*
X109309524Y-145217676D02*
X109214286Y-145312914D01*
X109214286Y-145312914D02*
X109119048Y-145360533D01*
X110309524Y-145074819D02*
X110404762Y-145074819D01*
X110404762Y-145074819D02*
X110500000Y-145122438D01*
X110500000Y-145122438D02*
X110547619Y-145170057D01*
X110547619Y-145170057D02*
X110595238Y-145265295D01*
X110595238Y-145265295D02*
X110642857Y-145455771D01*
X110642857Y-145455771D02*
X110642857Y-145693866D01*
X110642857Y-145693866D02*
X110595238Y-145884342D01*
X110595238Y-145884342D02*
X110547619Y-145979580D01*
X110547619Y-145979580D02*
X110500000Y-146027200D01*
X110500000Y-146027200D02*
X110404762Y-146074819D01*
X110404762Y-146074819D02*
X110309524Y-146074819D01*
X110309524Y-146074819D02*
X110214286Y-146027200D01*
X110214286Y-146027200D02*
X110166667Y-145979580D01*
X110166667Y-145979580D02*
X110119048Y-145884342D01*
X110119048Y-145884342D02*
X110071429Y-145693866D01*
X110071429Y-145693866D02*
X110071429Y-145455771D01*
X110071429Y-145455771D02*
X110119048Y-145265295D01*
X110119048Y-145265295D02*
X110166667Y-145170057D01*
X110166667Y-145170057D02*
X110214286Y-145122438D01*
X110214286Y-145122438D02*
X110309524Y-145074819D01*
X135809580Y-133666666D02*
X135857200Y-133714285D01*
X135857200Y-133714285D02*
X135904819Y-133857142D01*
X135904819Y-133857142D02*
X135904819Y-133952380D01*
X135904819Y-133952380D02*
X135857200Y-134095237D01*
X135857200Y-134095237D02*
X135761961Y-134190475D01*
X135761961Y-134190475D02*
X135666723Y-134238094D01*
X135666723Y-134238094D02*
X135476247Y-134285713D01*
X135476247Y-134285713D02*
X135333390Y-134285713D01*
X135333390Y-134285713D02*
X135142914Y-134238094D01*
X135142914Y-134238094D02*
X135047676Y-134190475D01*
X135047676Y-134190475D02*
X134952438Y-134095237D01*
X134952438Y-134095237D02*
X134904819Y-133952380D01*
X134904819Y-133952380D02*
X134904819Y-133857142D01*
X134904819Y-133857142D02*
X134952438Y-133714285D01*
X134952438Y-133714285D02*
X135000057Y-133666666D01*
X134904819Y-132761904D02*
X134904819Y-133238094D01*
X134904819Y-133238094D02*
X135381009Y-133285713D01*
X135381009Y-133285713D02*
X135333390Y-133238094D01*
X135333390Y-133238094D02*
X135285771Y-133142856D01*
X135285771Y-133142856D02*
X135285771Y-132904761D01*
X135285771Y-132904761D02*
X135333390Y-132809523D01*
X135333390Y-132809523D02*
X135381009Y-132761904D01*
X135381009Y-132761904D02*
X135476247Y-132714285D01*
X135476247Y-132714285D02*
X135714342Y-132714285D01*
X135714342Y-132714285D02*
X135809580Y-132761904D01*
X135809580Y-132761904D02*
X135857200Y-132809523D01*
X135857200Y-132809523D02*
X135904819Y-132904761D01*
X135904819Y-132904761D02*
X135904819Y-133142856D01*
X135904819Y-133142856D02*
X135857200Y-133238094D01*
X135857200Y-133238094D02*
X135809580Y-133285713D01*
X200979761Y-108990057D02*
X200884523Y-108942438D01*
X200884523Y-108942438D02*
X200789285Y-108847200D01*
X200789285Y-108847200D02*
X200646428Y-108704342D01*
X200646428Y-108704342D02*
X200551190Y-108656723D01*
X200551190Y-108656723D02*
X200455952Y-108656723D01*
X200503571Y-108894819D02*
X200408333Y-108847200D01*
X200408333Y-108847200D02*
X200313095Y-108751961D01*
X200313095Y-108751961D02*
X200265476Y-108561485D01*
X200265476Y-108561485D02*
X200265476Y-108228152D01*
X200265476Y-108228152D02*
X200313095Y-108037676D01*
X200313095Y-108037676D02*
X200408333Y-107942438D01*
X200408333Y-107942438D02*
X200503571Y-107894819D01*
X200503571Y-107894819D02*
X200694047Y-107894819D01*
X200694047Y-107894819D02*
X200789285Y-107942438D01*
X200789285Y-107942438D02*
X200884523Y-108037676D01*
X200884523Y-108037676D02*
X200932142Y-108228152D01*
X200932142Y-108228152D02*
X200932142Y-108561485D01*
X200932142Y-108561485D02*
X200884523Y-108751961D01*
X200884523Y-108751961D02*
X200789285Y-108847200D01*
X200789285Y-108847200D02*
X200694047Y-108894819D01*
X200694047Y-108894819D02*
X200503571Y-108894819D01*
X201313095Y-107990057D02*
X201360714Y-107942438D01*
X201360714Y-107942438D02*
X201455952Y-107894819D01*
X201455952Y-107894819D02*
X201694047Y-107894819D01*
X201694047Y-107894819D02*
X201789285Y-107942438D01*
X201789285Y-107942438D02*
X201836904Y-107990057D01*
X201836904Y-107990057D02*
X201884523Y-108085295D01*
X201884523Y-108085295D02*
X201884523Y-108180533D01*
X201884523Y-108180533D02*
X201836904Y-108323390D01*
X201836904Y-108323390D02*
X201265476Y-108894819D01*
X201265476Y-108894819D02*
X201884523Y-108894819D01*
X106738095Y-74074819D02*
X107309523Y-74074819D01*
X107023809Y-75074819D02*
X107023809Y-74074819D01*
X107642857Y-75074819D02*
X107642857Y-74074819D01*
X107642857Y-74074819D02*
X108023809Y-74074819D01*
X108023809Y-74074819D02*
X108119047Y-74122438D01*
X108119047Y-74122438D02*
X108166666Y-74170057D01*
X108166666Y-74170057D02*
X108214285Y-74265295D01*
X108214285Y-74265295D02*
X108214285Y-74408152D01*
X108214285Y-74408152D02*
X108166666Y-74503390D01*
X108166666Y-74503390D02*
X108119047Y-74551009D01*
X108119047Y-74551009D02*
X108023809Y-74598628D01*
X108023809Y-74598628D02*
X107642857Y-74598628D01*
X108595238Y-74170057D02*
X108642857Y-74122438D01*
X108642857Y-74122438D02*
X108738095Y-74074819D01*
X108738095Y-74074819D02*
X108976190Y-74074819D01*
X108976190Y-74074819D02*
X109071428Y-74122438D01*
X109071428Y-74122438D02*
X109119047Y-74170057D01*
X109119047Y-74170057D02*
X109166666Y-74265295D01*
X109166666Y-74265295D02*
X109166666Y-74360533D01*
X109166666Y-74360533D02*
X109119047Y-74503390D01*
X109119047Y-74503390D02*
X108547619Y-75074819D01*
X108547619Y-75074819D02*
X109166666Y-75074819D01*
X170023333Y-152084819D02*
X169690000Y-151608628D01*
X169451905Y-152084819D02*
X169451905Y-151084819D01*
X169451905Y-151084819D02*
X169832857Y-151084819D01*
X169832857Y-151084819D02*
X169928095Y-151132438D01*
X169928095Y-151132438D02*
X169975714Y-151180057D01*
X169975714Y-151180057D02*
X170023333Y-151275295D01*
X170023333Y-151275295D02*
X170023333Y-151418152D01*
X170023333Y-151418152D02*
X169975714Y-151513390D01*
X169975714Y-151513390D02*
X169928095Y-151561009D01*
X169928095Y-151561009D02*
X169832857Y-151608628D01*
X169832857Y-151608628D02*
X169451905Y-151608628D01*
X170594762Y-151513390D02*
X170499524Y-151465771D01*
X170499524Y-151465771D02*
X170451905Y-151418152D01*
X170451905Y-151418152D02*
X170404286Y-151322914D01*
X170404286Y-151322914D02*
X170404286Y-151275295D01*
X170404286Y-151275295D02*
X170451905Y-151180057D01*
X170451905Y-151180057D02*
X170499524Y-151132438D01*
X170499524Y-151132438D02*
X170594762Y-151084819D01*
X170594762Y-151084819D02*
X170785238Y-151084819D01*
X170785238Y-151084819D02*
X170880476Y-151132438D01*
X170880476Y-151132438D02*
X170928095Y-151180057D01*
X170928095Y-151180057D02*
X170975714Y-151275295D01*
X170975714Y-151275295D02*
X170975714Y-151322914D01*
X170975714Y-151322914D02*
X170928095Y-151418152D01*
X170928095Y-151418152D02*
X170880476Y-151465771D01*
X170880476Y-151465771D02*
X170785238Y-151513390D01*
X170785238Y-151513390D02*
X170594762Y-151513390D01*
X170594762Y-151513390D02*
X170499524Y-151561009D01*
X170499524Y-151561009D02*
X170451905Y-151608628D01*
X170451905Y-151608628D02*
X170404286Y-151703866D01*
X170404286Y-151703866D02*
X170404286Y-151894342D01*
X170404286Y-151894342D02*
X170451905Y-151989580D01*
X170451905Y-151989580D02*
X170499524Y-152037200D01*
X170499524Y-152037200D02*
X170594762Y-152084819D01*
X170594762Y-152084819D02*
X170785238Y-152084819D01*
X170785238Y-152084819D02*
X170880476Y-152037200D01*
X170880476Y-152037200D02*
X170928095Y-151989580D01*
X170928095Y-151989580D02*
X170975714Y-151894342D01*
X170975714Y-151894342D02*
X170975714Y-151703866D01*
X170975714Y-151703866D02*
X170928095Y-151608628D01*
X170928095Y-151608628D02*
X170880476Y-151561009D01*
X170880476Y-151561009D02*
X170785238Y-151513390D01*
X106738095Y-67074819D02*
X107309523Y-67074819D01*
X107023809Y-68074819D02*
X107023809Y-67074819D01*
X107642857Y-68074819D02*
X107642857Y-67074819D01*
X107642857Y-67074819D02*
X108023809Y-67074819D01*
X108023809Y-67074819D02*
X108119047Y-67122438D01*
X108119047Y-67122438D02*
X108166666Y-67170057D01*
X108166666Y-67170057D02*
X108214285Y-67265295D01*
X108214285Y-67265295D02*
X108214285Y-67408152D01*
X108214285Y-67408152D02*
X108166666Y-67503390D01*
X108166666Y-67503390D02*
X108119047Y-67551009D01*
X108119047Y-67551009D02*
X108023809Y-67598628D01*
X108023809Y-67598628D02*
X107642857Y-67598628D01*
X109166666Y-68074819D02*
X108595238Y-68074819D01*
X108880952Y-68074819D02*
X108880952Y-67074819D01*
X108880952Y-67074819D02*
X108785714Y-67217676D01*
X108785714Y-67217676D02*
X108690476Y-67312914D01*
X108690476Y-67312914D02*
X108595238Y-67360533D01*
X175833333Y-113859580D02*
X175785714Y-113907200D01*
X175785714Y-113907200D02*
X175642857Y-113954819D01*
X175642857Y-113954819D02*
X175547619Y-113954819D01*
X175547619Y-113954819D02*
X175404762Y-113907200D01*
X175404762Y-113907200D02*
X175309524Y-113811961D01*
X175309524Y-113811961D02*
X175261905Y-113716723D01*
X175261905Y-113716723D02*
X175214286Y-113526247D01*
X175214286Y-113526247D02*
X175214286Y-113383390D01*
X175214286Y-113383390D02*
X175261905Y-113192914D01*
X175261905Y-113192914D02*
X175309524Y-113097676D01*
X175309524Y-113097676D02*
X175404762Y-113002438D01*
X175404762Y-113002438D02*
X175547619Y-112954819D01*
X175547619Y-112954819D02*
X175642857Y-112954819D01*
X175642857Y-112954819D02*
X175785714Y-113002438D01*
X175785714Y-113002438D02*
X175833333Y-113050057D01*
X176690476Y-112954819D02*
X176500000Y-112954819D01*
X176500000Y-112954819D02*
X176404762Y-113002438D01*
X176404762Y-113002438D02*
X176357143Y-113050057D01*
X176357143Y-113050057D02*
X176261905Y-113192914D01*
X176261905Y-113192914D02*
X176214286Y-113383390D01*
X176214286Y-113383390D02*
X176214286Y-113764342D01*
X176214286Y-113764342D02*
X176261905Y-113859580D01*
X176261905Y-113859580D02*
X176309524Y-113907200D01*
X176309524Y-113907200D02*
X176404762Y-113954819D01*
X176404762Y-113954819D02*
X176595238Y-113954819D01*
X176595238Y-113954819D02*
X176690476Y-113907200D01*
X176690476Y-113907200D02*
X176738095Y-113859580D01*
X176738095Y-113859580D02*
X176785714Y-113764342D01*
X176785714Y-113764342D02*
X176785714Y-113526247D01*
X176785714Y-113526247D02*
X176738095Y-113431009D01*
X176738095Y-113431009D02*
X176690476Y-113383390D01*
X176690476Y-113383390D02*
X176595238Y-113335771D01*
X176595238Y-113335771D02*
X176404762Y-113335771D01*
X176404762Y-113335771D02*
X176309524Y-113383390D01*
X176309524Y-113383390D02*
X176261905Y-113431009D01*
X176261905Y-113431009D02*
X176214286Y-113526247D01*
X106261905Y-82074819D02*
X106833333Y-82074819D01*
X106547619Y-83074819D02*
X106547619Y-82074819D01*
X107166667Y-83074819D02*
X107166667Y-82074819D01*
X107166667Y-82074819D02*
X107547619Y-82074819D01*
X107547619Y-82074819D02*
X107642857Y-82122438D01*
X107642857Y-82122438D02*
X107690476Y-82170057D01*
X107690476Y-82170057D02*
X107738095Y-82265295D01*
X107738095Y-82265295D02*
X107738095Y-82408152D01*
X107738095Y-82408152D02*
X107690476Y-82503390D01*
X107690476Y-82503390D02*
X107642857Y-82551009D01*
X107642857Y-82551009D02*
X107547619Y-82598628D01*
X107547619Y-82598628D02*
X107166667Y-82598628D01*
X108690476Y-83074819D02*
X108119048Y-83074819D01*
X108404762Y-83074819D02*
X108404762Y-82074819D01*
X108404762Y-82074819D02*
X108309524Y-82217676D01*
X108309524Y-82217676D02*
X108214286Y-82312914D01*
X108214286Y-82312914D02*
X108119048Y-82360533D01*
X109547619Y-82074819D02*
X109357143Y-82074819D01*
X109357143Y-82074819D02*
X109261905Y-82122438D01*
X109261905Y-82122438D02*
X109214286Y-82170057D01*
X109214286Y-82170057D02*
X109119048Y-82312914D01*
X109119048Y-82312914D02*
X109071429Y-82503390D01*
X109071429Y-82503390D02*
X109071429Y-82884342D01*
X109071429Y-82884342D02*
X109119048Y-82979580D01*
X109119048Y-82979580D02*
X109166667Y-83027200D01*
X109166667Y-83027200D02*
X109261905Y-83074819D01*
X109261905Y-83074819D02*
X109452381Y-83074819D01*
X109452381Y-83074819D02*
X109547619Y-83027200D01*
X109547619Y-83027200D02*
X109595238Y-82979580D01*
X109595238Y-82979580D02*
X109642857Y-82884342D01*
X109642857Y-82884342D02*
X109642857Y-82646247D01*
X109642857Y-82646247D02*
X109595238Y-82551009D01*
X109595238Y-82551009D02*
X109547619Y-82503390D01*
X109547619Y-82503390D02*
X109452381Y-82455771D01*
X109452381Y-82455771D02*
X109261905Y-82455771D01*
X109261905Y-82455771D02*
X109166667Y-82503390D01*
X109166667Y-82503390D02*
X109119048Y-82551009D01*
X109119048Y-82551009D02*
X109071429Y-82646247D01*
X147833333Y-106454819D02*
X147500000Y-105978628D01*
X147261905Y-106454819D02*
X147261905Y-105454819D01*
X147261905Y-105454819D02*
X147642857Y-105454819D01*
X147642857Y-105454819D02*
X147738095Y-105502438D01*
X147738095Y-105502438D02*
X147785714Y-105550057D01*
X147785714Y-105550057D02*
X147833333Y-105645295D01*
X147833333Y-105645295D02*
X147833333Y-105788152D01*
X147833333Y-105788152D02*
X147785714Y-105883390D01*
X147785714Y-105883390D02*
X147738095Y-105931009D01*
X147738095Y-105931009D02*
X147642857Y-105978628D01*
X147642857Y-105978628D02*
X147261905Y-105978628D01*
X148690476Y-105788152D02*
X148690476Y-106454819D01*
X148452381Y-105407200D02*
X148214286Y-106121485D01*
X148214286Y-106121485D02*
X148833333Y-106121485D01*
X104577319Y-80413333D02*
X105291604Y-80413333D01*
X105291604Y-80413333D02*
X105434461Y-80460952D01*
X105434461Y-80460952D02*
X105529700Y-80556190D01*
X105529700Y-80556190D02*
X105577319Y-80699047D01*
X105577319Y-80699047D02*
X105577319Y-80794285D01*
X104672557Y-79984761D02*
X104624938Y-79937142D01*
X104624938Y-79937142D02*
X104577319Y-79841904D01*
X104577319Y-79841904D02*
X104577319Y-79603809D01*
X104577319Y-79603809D02*
X104624938Y-79508571D01*
X104624938Y-79508571D02*
X104672557Y-79460952D01*
X104672557Y-79460952D02*
X104767795Y-79413333D01*
X104767795Y-79413333D02*
X104863033Y-79413333D01*
X104863033Y-79413333D02*
X105005890Y-79460952D01*
X105005890Y-79460952D02*
X105577319Y-80032380D01*
X105577319Y-80032380D02*
X105577319Y-79413333D01*
X119607142Y-125109580D02*
X119559523Y-125157200D01*
X119559523Y-125157200D02*
X119416666Y-125204819D01*
X119416666Y-125204819D02*
X119321428Y-125204819D01*
X119321428Y-125204819D02*
X119178571Y-125157200D01*
X119178571Y-125157200D02*
X119083333Y-125061961D01*
X119083333Y-125061961D02*
X119035714Y-124966723D01*
X119035714Y-124966723D02*
X118988095Y-124776247D01*
X118988095Y-124776247D02*
X118988095Y-124633390D01*
X118988095Y-124633390D02*
X119035714Y-124442914D01*
X119035714Y-124442914D02*
X119083333Y-124347676D01*
X119083333Y-124347676D02*
X119178571Y-124252438D01*
X119178571Y-124252438D02*
X119321428Y-124204819D01*
X119321428Y-124204819D02*
X119416666Y-124204819D01*
X119416666Y-124204819D02*
X119559523Y-124252438D01*
X119559523Y-124252438D02*
X119607142Y-124300057D01*
X120559523Y-125204819D02*
X119988095Y-125204819D01*
X120273809Y-125204819D02*
X120273809Y-124204819D01*
X120273809Y-124204819D02*
X120178571Y-124347676D01*
X120178571Y-124347676D02*
X120083333Y-124442914D01*
X120083333Y-124442914D02*
X119988095Y-124490533D01*
X120940476Y-124300057D02*
X120988095Y-124252438D01*
X120988095Y-124252438D02*
X121083333Y-124204819D01*
X121083333Y-124204819D02*
X121321428Y-124204819D01*
X121321428Y-124204819D02*
X121416666Y-124252438D01*
X121416666Y-124252438D02*
X121464285Y-124300057D01*
X121464285Y-124300057D02*
X121511904Y-124395295D01*
X121511904Y-124395295D02*
X121511904Y-124490533D01*
X121511904Y-124490533D02*
X121464285Y-124633390D01*
X121464285Y-124633390D02*
X120892857Y-125204819D01*
X120892857Y-125204819D02*
X121511904Y-125204819D01*
X120083333Y-88109580D02*
X120035714Y-88157200D01*
X120035714Y-88157200D02*
X119892857Y-88204819D01*
X119892857Y-88204819D02*
X119797619Y-88204819D01*
X119797619Y-88204819D02*
X119654762Y-88157200D01*
X119654762Y-88157200D02*
X119559524Y-88061961D01*
X119559524Y-88061961D02*
X119511905Y-87966723D01*
X119511905Y-87966723D02*
X119464286Y-87776247D01*
X119464286Y-87776247D02*
X119464286Y-87633390D01*
X119464286Y-87633390D02*
X119511905Y-87442914D01*
X119511905Y-87442914D02*
X119559524Y-87347676D01*
X119559524Y-87347676D02*
X119654762Y-87252438D01*
X119654762Y-87252438D02*
X119797619Y-87204819D01*
X119797619Y-87204819D02*
X119892857Y-87204819D01*
X119892857Y-87204819D02*
X120035714Y-87252438D01*
X120035714Y-87252438D02*
X120083333Y-87300057D01*
X120559524Y-88204819D02*
X120750000Y-88204819D01*
X120750000Y-88204819D02*
X120845238Y-88157200D01*
X120845238Y-88157200D02*
X120892857Y-88109580D01*
X120892857Y-88109580D02*
X120988095Y-87966723D01*
X120988095Y-87966723D02*
X121035714Y-87776247D01*
X121035714Y-87776247D02*
X121035714Y-87395295D01*
X121035714Y-87395295D02*
X120988095Y-87300057D01*
X120988095Y-87300057D02*
X120940476Y-87252438D01*
X120940476Y-87252438D02*
X120845238Y-87204819D01*
X120845238Y-87204819D02*
X120654762Y-87204819D01*
X120654762Y-87204819D02*
X120559524Y-87252438D01*
X120559524Y-87252438D02*
X120511905Y-87300057D01*
X120511905Y-87300057D02*
X120464286Y-87395295D01*
X120464286Y-87395295D02*
X120464286Y-87633390D01*
X120464286Y-87633390D02*
X120511905Y-87728628D01*
X120511905Y-87728628D02*
X120559524Y-87776247D01*
X120559524Y-87776247D02*
X120654762Y-87823866D01*
X120654762Y-87823866D02*
X120845238Y-87823866D01*
X120845238Y-87823866D02*
X120940476Y-87776247D01*
X120940476Y-87776247D02*
X120988095Y-87728628D01*
X120988095Y-87728628D02*
X121035714Y-87633390D01*
X182451905Y-152334819D02*
X182451905Y-151334819D01*
X182451905Y-151334819D02*
X182690000Y-151334819D01*
X182690000Y-151334819D02*
X182832857Y-151382438D01*
X182832857Y-151382438D02*
X182928095Y-151477676D01*
X182928095Y-151477676D02*
X182975714Y-151572914D01*
X182975714Y-151572914D02*
X183023333Y-151763390D01*
X183023333Y-151763390D02*
X183023333Y-151906247D01*
X183023333Y-151906247D02*
X182975714Y-152096723D01*
X182975714Y-152096723D02*
X182928095Y-152191961D01*
X182928095Y-152191961D02*
X182832857Y-152287200D01*
X182832857Y-152287200D02*
X182690000Y-152334819D01*
X182690000Y-152334819D02*
X182451905Y-152334819D01*
X183928095Y-151334819D02*
X183451905Y-151334819D01*
X183451905Y-151334819D02*
X183404286Y-151811009D01*
X183404286Y-151811009D02*
X183451905Y-151763390D01*
X183451905Y-151763390D02*
X183547143Y-151715771D01*
X183547143Y-151715771D02*
X183785238Y-151715771D01*
X183785238Y-151715771D02*
X183880476Y-151763390D01*
X183880476Y-151763390D02*
X183928095Y-151811009D01*
X183928095Y-151811009D02*
X183975714Y-151906247D01*
X183975714Y-151906247D02*
X183975714Y-152144342D01*
X183975714Y-152144342D02*
X183928095Y-152239580D01*
X183928095Y-152239580D02*
X183880476Y-152287200D01*
X183880476Y-152287200D02*
X183785238Y-152334819D01*
X183785238Y-152334819D02*
X183547143Y-152334819D01*
X183547143Y-152334819D02*
X183451905Y-152287200D01*
X183451905Y-152287200D02*
X183404286Y-152239580D01*
X179118095Y-152654819D02*
X179118095Y-151654819D01*
X179689523Y-152654819D02*
X179260952Y-152083390D01*
X179689523Y-151654819D02*
X179118095Y-152226247D01*
X174261905Y-136074819D02*
X174833333Y-136074819D01*
X174547619Y-137074819D02*
X174547619Y-136074819D01*
X175166667Y-137074819D02*
X175166667Y-136074819D01*
X175166667Y-136074819D02*
X175547619Y-136074819D01*
X175547619Y-136074819D02*
X175642857Y-136122438D01*
X175642857Y-136122438D02*
X175690476Y-136170057D01*
X175690476Y-136170057D02*
X175738095Y-136265295D01*
X175738095Y-136265295D02*
X175738095Y-136408152D01*
X175738095Y-136408152D02*
X175690476Y-136503390D01*
X175690476Y-136503390D02*
X175642857Y-136551009D01*
X175642857Y-136551009D02*
X175547619Y-136598628D01*
X175547619Y-136598628D02*
X175166667Y-136598628D01*
X176690476Y-137074819D02*
X176119048Y-137074819D01*
X176404762Y-137074819D02*
X176404762Y-136074819D01*
X176404762Y-136074819D02*
X176309524Y-136217676D01*
X176309524Y-136217676D02*
X176214286Y-136312914D01*
X176214286Y-136312914D02*
X176119048Y-136360533D01*
X177023810Y-136074819D02*
X177642857Y-136074819D01*
X177642857Y-136074819D02*
X177309524Y-136455771D01*
X177309524Y-136455771D02*
X177452381Y-136455771D01*
X177452381Y-136455771D02*
X177547619Y-136503390D01*
X177547619Y-136503390D02*
X177595238Y-136551009D01*
X177595238Y-136551009D02*
X177642857Y-136646247D01*
X177642857Y-136646247D02*
X177642857Y-136884342D01*
X177642857Y-136884342D02*
X177595238Y-136979580D01*
X177595238Y-136979580D02*
X177547619Y-137027200D01*
X177547619Y-137027200D02*
X177452381Y-137074819D01*
X177452381Y-137074819D02*
X177166667Y-137074819D01*
X177166667Y-137074819D02*
X177071429Y-137027200D01*
X177071429Y-137027200D02*
X177023810Y-136979580D01*
X168404761Y-68294819D02*
X168071428Y-67818628D01*
X167833333Y-68294819D02*
X167833333Y-67294819D01*
X167833333Y-67294819D02*
X168214285Y-67294819D01*
X168214285Y-67294819D02*
X168309523Y-67342438D01*
X168309523Y-67342438D02*
X168357142Y-67390057D01*
X168357142Y-67390057D02*
X168404761Y-67485295D01*
X168404761Y-67485295D02*
X168404761Y-67628152D01*
X168404761Y-67628152D02*
X168357142Y-67723390D01*
X168357142Y-67723390D02*
X168309523Y-67771009D01*
X168309523Y-67771009D02*
X168214285Y-67818628D01*
X168214285Y-67818628D02*
X167833333Y-67818628D01*
X168690476Y-67294819D02*
X169023809Y-68294819D01*
X169023809Y-68294819D02*
X169357142Y-67294819D01*
X170214285Y-68294819D02*
X169642857Y-68294819D01*
X169928571Y-68294819D02*
X169928571Y-67294819D01*
X169928571Y-67294819D02*
X169833333Y-67437676D01*
X169833333Y-67437676D02*
X169738095Y-67532914D01*
X169738095Y-67532914D02*
X169642857Y-67580533D01*
X209991905Y-136494819D02*
X209991905Y-135494819D01*
X209991905Y-135494819D02*
X210230000Y-135494819D01*
X210230000Y-135494819D02*
X210372857Y-135542438D01*
X210372857Y-135542438D02*
X210468095Y-135637676D01*
X210468095Y-135637676D02*
X210515714Y-135732914D01*
X210515714Y-135732914D02*
X210563333Y-135923390D01*
X210563333Y-135923390D02*
X210563333Y-136066247D01*
X210563333Y-136066247D02*
X210515714Y-136256723D01*
X210515714Y-136256723D02*
X210468095Y-136351961D01*
X210468095Y-136351961D02*
X210372857Y-136447200D01*
X210372857Y-136447200D02*
X210230000Y-136494819D01*
X210230000Y-136494819D02*
X209991905Y-136494819D01*
X211420476Y-135494819D02*
X211230000Y-135494819D01*
X211230000Y-135494819D02*
X211134762Y-135542438D01*
X211134762Y-135542438D02*
X211087143Y-135590057D01*
X211087143Y-135590057D02*
X210991905Y-135732914D01*
X210991905Y-135732914D02*
X210944286Y-135923390D01*
X210944286Y-135923390D02*
X210944286Y-136304342D01*
X210944286Y-136304342D02*
X210991905Y-136399580D01*
X210991905Y-136399580D02*
X211039524Y-136447200D01*
X211039524Y-136447200D02*
X211134762Y-136494819D01*
X211134762Y-136494819D02*
X211325238Y-136494819D01*
X211325238Y-136494819D02*
X211420476Y-136447200D01*
X211420476Y-136447200D02*
X211468095Y-136399580D01*
X211468095Y-136399580D02*
X211515714Y-136304342D01*
X211515714Y-136304342D02*
X211515714Y-136066247D01*
X211515714Y-136066247D02*
X211468095Y-135971009D01*
X211468095Y-135971009D02*
X211420476Y-135923390D01*
X211420476Y-135923390D02*
X211325238Y-135875771D01*
X211325238Y-135875771D02*
X211134762Y-135875771D01*
X211134762Y-135875771D02*
X211039524Y-135923390D01*
X211039524Y-135923390D02*
X210991905Y-135971009D01*
X210991905Y-135971009D02*
X210944286Y-136066247D01*
X106738095Y-112074819D02*
X107309523Y-112074819D01*
X107023809Y-113074819D02*
X107023809Y-112074819D01*
X107642857Y-113074819D02*
X107642857Y-112074819D01*
X107642857Y-112074819D02*
X108023809Y-112074819D01*
X108023809Y-112074819D02*
X108119047Y-112122438D01*
X108119047Y-112122438D02*
X108166666Y-112170057D01*
X108166666Y-112170057D02*
X108214285Y-112265295D01*
X108214285Y-112265295D02*
X108214285Y-112408152D01*
X108214285Y-112408152D02*
X108166666Y-112503390D01*
X108166666Y-112503390D02*
X108119047Y-112551009D01*
X108119047Y-112551009D02*
X108023809Y-112598628D01*
X108023809Y-112598628D02*
X107642857Y-112598628D01*
X109071428Y-112408152D02*
X109071428Y-113074819D01*
X108833333Y-112027200D02*
X108595238Y-112741485D01*
X108595238Y-112741485D02*
X109214285Y-112741485D01*
X166674580Y-82642857D02*
X166722200Y-82690476D01*
X166722200Y-82690476D02*
X166769819Y-82833333D01*
X166769819Y-82833333D02*
X166769819Y-82928571D01*
X166769819Y-82928571D02*
X166722200Y-83071428D01*
X166722200Y-83071428D02*
X166626961Y-83166666D01*
X166626961Y-83166666D02*
X166531723Y-83214285D01*
X166531723Y-83214285D02*
X166341247Y-83261904D01*
X166341247Y-83261904D02*
X166198390Y-83261904D01*
X166198390Y-83261904D02*
X166007914Y-83214285D01*
X166007914Y-83214285D02*
X165912676Y-83166666D01*
X165912676Y-83166666D02*
X165817438Y-83071428D01*
X165817438Y-83071428D02*
X165769819Y-82928571D01*
X165769819Y-82928571D02*
X165769819Y-82833333D01*
X165769819Y-82833333D02*
X165817438Y-82690476D01*
X165817438Y-82690476D02*
X165865057Y-82642857D01*
X166769819Y-81690476D02*
X166769819Y-82261904D01*
X166769819Y-81976190D02*
X165769819Y-81976190D01*
X165769819Y-81976190D02*
X165912676Y-82071428D01*
X165912676Y-82071428D02*
X166007914Y-82166666D01*
X166007914Y-82166666D02*
X166055533Y-82261904D01*
X166103152Y-80833333D02*
X166769819Y-80833333D01*
X165722200Y-81071428D02*
X166436485Y-81309523D01*
X166436485Y-81309523D02*
X166436485Y-80690476D01*
X125357142Y-112359580D02*
X125309523Y-112407200D01*
X125309523Y-112407200D02*
X125166666Y-112454819D01*
X125166666Y-112454819D02*
X125071428Y-112454819D01*
X125071428Y-112454819D02*
X124928571Y-112407200D01*
X124928571Y-112407200D02*
X124833333Y-112311961D01*
X124833333Y-112311961D02*
X124785714Y-112216723D01*
X124785714Y-112216723D02*
X124738095Y-112026247D01*
X124738095Y-112026247D02*
X124738095Y-111883390D01*
X124738095Y-111883390D02*
X124785714Y-111692914D01*
X124785714Y-111692914D02*
X124833333Y-111597676D01*
X124833333Y-111597676D02*
X124928571Y-111502438D01*
X124928571Y-111502438D02*
X125071428Y-111454819D01*
X125071428Y-111454819D02*
X125166666Y-111454819D01*
X125166666Y-111454819D02*
X125309523Y-111502438D01*
X125309523Y-111502438D02*
X125357142Y-111550057D01*
X126309523Y-112454819D02*
X125738095Y-112454819D01*
X126023809Y-112454819D02*
X126023809Y-111454819D01*
X126023809Y-111454819D02*
X125928571Y-111597676D01*
X125928571Y-111597676D02*
X125833333Y-111692914D01*
X125833333Y-111692914D02*
X125738095Y-111740533D01*
X126928571Y-111454819D02*
X127023809Y-111454819D01*
X127023809Y-111454819D02*
X127119047Y-111502438D01*
X127119047Y-111502438D02*
X127166666Y-111550057D01*
X127166666Y-111550057D02*
X127214285Y-111645295D01*
X127214285Y-111645295D02*
X127261904Y-111835771D01*
X127261904Y-111835771D02*
X127261904Y-112073866D01*
X127261904Y-112073866D02*
X127214285Y-112264342D01*
X127214285Y-112264342D02*
X127166666Y-112359580D01*
X127166666Y-112359580D02*
X127119047Y-112407200D01*
X127119047Y-112407200D02*
X127023809Y-112454819D01*
X127023809Y-112454819D02*
X126928571Y-112454819D01*
X126928571Y-112454819D02*
X126833333Y-112407200D01*
X126833333Y-112407200D02*
X126785714Y-112359580D01*
X126785714Y-112359580D02*
X126738095Y-112264342D01*
X126738095Y-112264342D02*
X126690476Y-112073866D01*
X126690476Y-112073866D02*
X126690476Y-111835771D01*
X126690476Y-111835771D02*
X126738095Y-111645295D01*
X126738095Y-111645295D02*
X126785714Y-111550057D01*
X126785714Y-111550057D02*
X126833333Y-111502438D01*
X126833333Y-111502438D02*
X126928571Y-111454819D01*
X189299405Y-83334819D02*
X189299405Y-82334819D01*
X189299405Y-82334819D02*
X189537500Y-82334819D01*
X189537500Y-82334819D02*
X189680357Y-82382438D01*
X189680357Y-82382438D02*
X189775595Y-82477676D01*
X189775595Y-82477676D02*
X189823214Y-82572914D01*
X189823214Y-82572914D02*
X189870833Y-82763390D01*
X189870833Y-82763390D02*
X189870833Y-82906247D01*
X189870833Y-82906247D02*
X189823214Y-83096723D01*
X189823214Y-83096723D02*
X189775595Y-83191961D01*
X189775595Y-83191961D02*
X189680357Y-83287200D01*
X189680357Y-83287200D02*
X189537500Y-83334819D01*
X189537500Y-83334819D02*
X189299405Y-83334819D01*
X190823214Y-83334819D02*
X190251786Y-83334819D01*
X190537500Y-83334819D02*
X190537500Y-82334819D01*
X190537500Y-82334819D02*
X190442262Y-82477676D01*
X190442262Y-82477676D02*
X190347024Y-82572914D01*
X190347024Y-82572914D02*
X190251786Y-82620533D01*
X185965595Y-83654819D02*
X185965595Y-82654819D01*
X186537023Y-83654819D02*
X186108452Y-83083390D01*
X186537023Y-82654819D02*
X185965595Y-83226247D01*
X200432142Y-82824819D02*
X200098809Y-82348628D01*
X199860714Y-82824819D02*
X199860714Y-81824819D01*
X199860714Y-81824819D02*
X200241666Y-81824819D01*
X200241666Y-81824819D02*
X200336904Y-81872438D01*
X200336904Y-81872438D02*
X200384523Y-81920057D01*
X200384523Y-81920057D02*
X200432142Y-82015295D01*
X200432142Y-82015295D02*
X200432142Y-82158152D01*
X200432142Y-82158152D02*
X200384523Y-82253390D01*
X200384523Y-82253390D02*
X200336904Y-82301009D01*
X200336904Y-82301009D02*
X200241666Y-82348628D01*
X200241666Y-82348628D02*
X199860714Y-82348628D01*
X201384523Y-82824819D02*
X200813095Y-82824819D01*
X201098809Y-82824819D02*
X201098809Y-81824819D01*
X201098809Y-81824819D02*
X201003571Y-81967676D01*
X201003571Y-81967676D02*
X200908333Y-82062914D01*
X200908333Y-82062914D02*
X200813095Y-82110533D01*
X202003571Y-81824819D02*
X202098809Y-81824819D01*
X202098809Y-81824819D02*
X202194047Y-81872438D01*
X202194047Y-81872438D02*
X202241666Y-81920057D01*
X202241666Y-81920057D02*
X202289285Y-82015295D01*
X202289285Y-82015295D02*
X202336904Y-82205771D01*
X202336904Y-82205771D02*
X202336904Y-82443866D01*
X202336904Y-82443866D02*
X202289285Y-82634342D01*
X202289285Y-82634342D02*
X202241666Y-82729580D01*
X202241666Y-82729580D02*
X202194047Y-82777200D01*
X202194047Y-82777200D02*
X202098809Y-82824819D01*
X202098809Y-82824819D02*
X202003571Y-82824819D01*
X202003571Y-82824819D02*
X201908333Y-82777200D01*
X201908333Y-82777200D02*
X201860714Y-82729580D01*
X201860714Y-82729580D02*
X201813095Y-82634342D01*
X201813095Y-82634342D02*
X201765476Y-82443866D01*
X201765476Y-82443866D02*
X201765476Y-82205771D01*
X201765476Y-82205771D02*
X201813095Y-82015295D01*
X201813095Y-82015295D02*
X201860714Y-81920057D01*
X201860714Y-81920057D02*
X201908333Y-81872438D01*
X201908333Y-81872438D02*
X202003571Y-81824819D01*
X198991905Y-131074819D02*
X199563333Y-131074819D01*
X199277619Y-132074819D02*
X199277619Y-131074819D01*
X199896667Y-132074819D02*
X199896667Y-131074819D01*
X199896667Y-131074819D02*
X200277619Y-131074819D01*
X200277619Y-131074819D02*
X200372857Y-131122438D01*
X200372857Y-131122438D02*
X200420476Y-131170057D01*
X200420476Y-131170057D02*
X200468095Y-131265295D01*
X200468095Y-131265295D02*
X200468095Y-131408152D01*
X200468095Y-131408152D02*
X200420476Y-131503390D01*
X200420476Y-131503390D02*
X200372857Y-131551009D01*
X200372857Y-131551009D02*
X200277619Y-131598628D01*
X200277619Y-131598628D02*
X199896667Y-131598628D01*
X201420476Y-132074819D02*
X200849048Y-132074819D01*
X201134762Y-132074819D02*
X201134762Y-131074819D01*
X201134762Y-131074819D02*
X201039524Y-131217676D01*
X201039524Y-131217676D02*
X200944286Y-131312914D01*
X200944286Y-131312914D02*
X200849048Y-131360533D01*
X202277619Y-131408152D02*
X202277619Y-132074819D01*
X202039524Y-131027200D02*
X201801429Y-131741485D01*
X201801429Y-131741485D02*
X202420476Y-131741485D01*
X106738095Y-100074819D02*
X107309523Y-100074819D01*
X107023809Y-101074819D02*
X107023809Y-100074819D01*
X107642857Y-101074819D02*
X107642857Y-100074819D01*
X107642857Y-100074819D02*
X108023809Y-100074819D01*
X108023809Y-100074819D02*
X108119047Y-100122438D01*
X108119047Y-100122438D02*
X108166666Y-100170057D01*
X108166666Y-100170057D02*
X108214285Y-100265295D01*
X108214285Y-100265295D02*
X108214285Y-100408152D01*
X108214285Y-100408152D02*
X108166666Y-100503390D01*
X108166666Y-100503390D02*
X108119047Y-100551009D01*
X108119047Y-100551009D02*
X108023809Y-100598628D01*
X108023809Y-100598628D02*
X107642857Y-100598628D01*
X109119047Y-100074819D02*
X108642857Y-100074819D01*
X108642857Y-100074819D02*
X108595238Y-100551009D01*
X108595238Y-100551009D02*
X108642857Y-100503390D01*
X108642857Y-100503390D02*
X108738095Y-100455771D01*
X108738095Y-100455771D02*
X108976190Y-100455771D01*
X108976190Y-100455771D02*
X109071428Y-100503390D01*
X109071428Y-100503390D02*
X109119047Y-100551009D01*
X109119047Y-100551009D02*
X109166666Y-100646247D01*
X109166666Y-100646247D02*
X109166666Y-100884342D01*
X109166666Y-100884342D02*
X109119047Y-100979580D01*
X109119047Y-100979580D02*
X109071428Y-101027200D01*
X109071428Y-101027200D02*
X108976190Y-101074819D01*
X108976190Y-101074819D02*
X108738095Y-101074819D01*
X108738095Y-101074819D02*
X108642857Y-101027200D01*
X108642857Y-101027200D02*
X108595238Y-100979580D01*
X147833333Y-114454819D02*
X147500000Y-113978628D01*
X147261905Y-114454819D02*
X147261905Y-113454819D01*
X147261905Y-113454819D02*
X147642857Y-113454819D01*
X147642857Y-113454819D02*
X147738095Y-113502438D01*
X147738095Y-113502438D02*
X147785714Y-113550057D01*
X147785714Y-113550057D02*
X147833333Y-113645295D01*
X147833333Y-113645295D02*
X147833333Y-113788152D01*
X147833333Y-113788152D02*
X147785714Y-113883390D01*
X147785714Y-113883390D02*
X147738095Y-113931009D01*
X147738095Y-113931009D02*
X147642857Y-113978628D01*
X147642857Y-113978628D02*
X147261905Y-113978628D01*
X148166667Y-113454819D02*
X148785714Y-113454819D01*
X148785714Y-113454819D02*
X148452381Y-113835771D01*
X148452381Y-113835771D02*
X148595238Y-113835771D01*
X148595238Y-113835771D02*
X148690476Y-113883390D01*
X148690476Y-113883390D02*
X148738095Y-113931009D01*
X148738095Y-113931009D02*
X148785714Y-114026247D01*
X148785714Y-114026247D02*
X148785714Y-114264342D01*
X148785714Y-114264342D02*
X148738095Y-114359580D01*
X148738095Y-114359580D02*
X148690476Y-114407200D01*
X148690476Y-114407200D02*
X148595238Y-114454819D01*
X148595238Y-114454819D02*
X148309524Y-114454819D01*
X148309524Y-114454819D02*
X148214286Y-114407200D01*
X148214286Y-114407200D02*
X148166667Y-114359580D01*
X124357142Y-99824819D02*
X124023809Y-99348628D01*
X123785714Y-99824819D02*
X123785714Y-98824819D01*
X123785714Y-98824819D02*
X124166666Y-98824819D01*
X124166666Y-98824819D02*
X124261904Y-98872438D01*
X124261904Y-98872438D02*
X124309523Y-98920057D01*
X124309523Y-98920057D02*
X124357142Y-99015295D01*
X124357142Y-99015295D02*
X124357142Y-99158152D01*
X124357142Y-99158152D02*
X124309523Y-99253390D01*
X124309523Y-99253390D02*
X124261904Y-99301009D01*
X124261904Y-99301009D02*
X124166666Y-99348628D01*
X124166666Y-99348628D02*
X123785714Y-99348628D01*
X125309523Y-99824819D02*
X124738095Y-99824819D01*
X125023809Y-99824819D02*
X125023809Y-98824819D01*
X125023809Y-98824819D02*
X124928571Y-98967676D01*
X124928571Y-98967676D02*
X124833333Y-99062914D01*
X124833333Y-99062914D02*
X124738095Y-99110533D01*
X126166666Y-98824819D02*
X125976190Y-98824819D01*
X125976190Y-98824819D02*
X125880952Y-98872438D01*
X125880952Y-98872438D02*
X125833333Y-98920057D01*
X125833333Y-98920057D02*
X125738095Y-99062914D01*
X125738095Y-99062914D02*
X125690476Y-99253390D01*
X125690476Y-99253390D02*
X125690476Y-99634342D01*
X125690476Y-99634342D02*
X125738095Y-99729580D01*
X125738095Y-99729580D02*
X125785714Y-99777200D01*
X125785714Y-99777200D02*
X125880952Y-99824819D01*
X125880952Y-99824819D02*
X126071428Y-99824819D01*
X126071428Y-99824819D02*
X126166666Y-99777200D01*
X126166666Y-99777200D02*
X126214285Y-99729580D01*
X126214285Y-99729580D02*
X126261904Y-99634342D01*
X126261904Y-99634342D02*
X126261904Y-99396247D01*
X126261904Y-99396247D02*
X126214285Y-99301009D01*
X126214285Y-99301009D02*
X126166666Y-99253390D01*
X126166666Y-99253390D02*
X126071428Y-99205771D01*
X126071428Y-99205771D02*
X125880952Y-99205771D01*
X125880952Y-99205771D02*
X125785714Y-99253390D01*
X125785714Y-99253390D02*
X125738095Y-99301009D01*
X125738095Y-99301009D02*
X125690476Y-99396247D01*
X104454819Y-108333333D02*
X105169104Y-108333333D01*
X105169104Y-108333333D02*
X105311961Y-108380952D01*
X105311961Y-108380952D02*
X105407200Y-108476190D01*
X105407200Y-108476190D02*
X105454819Y-108619047D01*
X105454819Y-108619047D02*
X105454819Y-108714285D01*
X104454819Y-107952380D02*
X104454819Y-107333333D01*
X104454819Y-107333333D02*
X104835771Y-107666666D01*
X104835771Y-107666666D02*
X104835771Y-107523809D01*
X104835771Y-107523809D02*
X104883390Y-107428571D01*
X104883390Y-107428571D02*
X104931009Y-107380952D01*
X104931009Y-107380952D02*
X105026247Y-107333333D01*
X105026247Y-107333333D02*
X105264342Y-107333333D01*
X105264342Y-107333333D02*
X105359580Y-107380952D01*
X105359580Y-107380952D02*
X105407200Y-107428571D01*
X105407200Y-107428571D02*
X105454819Y-107523809D01*
X105454819Y-107523809D02*
X105454819Y-107809523D01*
X105454819Y-107809523D02*
X105407200Y-107904761D01*
X105407200Y-107904761D02*
X105359580Y-107952380D01*
X158243095Y-81314819D02*
X158243095Y-82124342D01*
X158243095Y-82124342D02*
X158290714Y-82219580D01*
X158290714Y-82219580D02*
X158338333Y-82267200D01*
X158338333Y-82267200D02*
X158433571Y-82314819D01*
X158433571Y-82314819D02*
X158624047Y-82314819D01*
X158624047Y-82314819D02*
X158719285Y-82267200D01*
X158719285Y-82267200D02*
X158766904Y-82219580D01*
X158766904Y-82219580D02*
X158814523Y-82124342D01*
X158814523Y-82124342D02*
X158814523Y-81314819D01*
X159766904Y-81314819D02*
X159290714Y-81314819D01*
X159290714Y-81314819D02*
X159243095Y-81791009D01*
X159243095Y-81791009D02*
X159290714Y-81743390D01*
X159290714Y-81743390D02*
X159385952Y-81695771D01*
X159385952Y-81695771D02*
X159624047Y-81695771D01*
X159624047Y-81695771D02*
X159719285Y-81743390D01*
X159719285Y-81743390D02*
X159766904Y-81791009D01*
X159766904Y-81791009D02*
X159814523Y-81886247D01*
X159814523Y-81886247D02*
X159814523Y-82124342D01*
X159814523Y-82124342D02*
X159766904Y-82219580D01*
X159766904Y-82219580D02*
X159719285Y-82267200D01*
X159719285Y-82267200D02*
X159624047Y-82314819D01*
X159624047Y-82314819D02*
X159385952Y-82314819D01*
X159385952Y-82314819D02*
X159290714Y-82267200D01*
X159290714Y-82267200D02*
X159243095Y-82219580D01*
X149753333Y-69084819D02*
X149420000Y-68608628D01*
X149181905Y-69084819D02*
X149181905Y-68084819D01*
X149181905Y-68084819D02*
X149562857Y-68084819D01*
X149562857Y-68084819D02*
X149658095Y-68132438D01*
X149658095Y-68132438D02*
X149705714Y-68180057D01*
X149705714Y-68180057D02*
X149753333Y-68275295D01*
X149753333Y-68275295D02*
X149753333Y-68418152D01*
X149753333Y-68418152D02*
X149705714Y-68513390D01*
X149705714Y-68513390D02*
X149658095Y-68561009D01*
X149658095Y-68561009D02*
X149562857Y-68608628D01*
X149562857Y-68608628D02*
X149181905Y-68608628D01*
X150705714Y-69084819D02*
X150134286Y-69084819D01*
X150420000Y-69084819D02*
X150420000Y-68084819D01*
X150420000Y-68084819D02*
X150324762Y-68227676D01*
X150324762Y-68227676D02*
X150229524Y-68322914D01*
X150229524Y-68322914D02*
X150134286Y-68370533D01*
X107738095Y-139074819D02*
X108309523Y-139074819D01*
X108023809Y-140074819D02*
X108023809Y-139074819D01*
X108642857Y-140074819D02*
X108642857Y-139074819D01*
X108642857Y-139074819D02*
X109023809Y-139074819D01*
X109023809Y-139074819D02*
X109119047Y-139122438D01*
X109119047Y-139122438D02*
X109166666Y-139170057D01*
X109166666Y-139170057D02*
X109214285Y-139265295D01*
X109214285Y-139265295D02*
X109214285Y-139408152D01*
X109214285Y-139408152D02*
X109166666Y-139503390D01*
X109166666Y-139503390D02*
X109119047Y-139551009D01*
X109119047Y-139551009D02*
X109023809Y-139598628D01*
X109023809Y-139598628D02*
X108642857Y-139598628D01*
X110071428Y-139074819D02*
X109880952Y-139074819D01*
X109880952Y-139074819D02*
X109785714Y-139122438D01*
X109785714Y-139122438D02*
X109738095Y-139170057D01*
X109738095Y-139170057D02*
X109642857Y-139312914D01*
X109642857Y-139312914D02*
X109595238Y-139503390D01*
X109595238Y-139503390D02*
X109595238Y-139884342D01*
X109595238Y-139884342D02*
X109642857Y-139979580D01*
X109642857Y-139979580D02*
X109690476Y-140027200D01*
X109690476Y-140027200D02*
X109785714Y-140074819D01*
X109785714Y-140074819D02*
X109976190Y-140074819D01*
X109976190Y-140074819D02*
X110071428Y-140027200D01*
X110071428Y-140027200D02*
X110119047Y-139979580D01*
X110119047Y-139979580D02*
X110166666Y-139884342D01*
X110166666Y-139884342D02*
X110166666Y-139646247D01*
X110166666Y-139646247D02*
X110119047Y-139551009D01*
X110119047Y-139551009D02*
X110071428Y-139503390D01*
X110071428Y-139503390D02*
X109976190Y-139455771D01*
X109976190Y-139455771D02*
X109785714Y-139455771D01*
X109785714Y-139455771D02*
X109690476Y-139503390D01*
X109690476Y-139503390D02*
X109642857Y-139551009D01*
X109642857Y-139551009D02*
X109595238Y-139646247D01*
X176738095Y-100074819D02*
X177309523Y-100074819D01*
X177023809Y-101074819D02*
X177023809Y-100074819D01*
X177642857Y-101074819D02*
X177642857Y-100074819D01*
X177642857Y-100074819D02*
X178023809Y-100074819D01*
X178023809Y-100074819D02*
X178119047Y-100122438D01*
X178119047Y-100122438D02*
X178166666Y-100170057D01*
X178166666Y-100170057D02*
X178214285Y-100265295D01*
X178214285Y-100265295D02*
X178214285Y-100408152D01*
X178214285Y-100408152D02*
X178166666Y-100503390D01*
X178166666Y-100503390D02*
X178119047Y-100551009D01*
X178119047Y-100551009D02*
X178023809Y-100598628D01*
X178023809Y-100598628D02*
X177642857Y-100598628D01*
X178690476Y-101074819D02*
X178880952Y-101074819D01*
X178880952Y-101074819D02*
X178976190Y-101027200D01*
X178976190Y-101027200D02*
X179023809Y-100979580D01*
X179023809Y-100979580D02*
X179119047Y-100836723D01*
X179119047Y-100836723D02*
X179166666Y-100646247D01*
X179166666Y-100646247D02*
X179166666Y-100265295D01*
X179166666Y-100265295D02*
X179119047Y-100170057D01*
X179119047Y-100170057D02*
X179071428Y-100122438D01*
X179071428Y-100122438D02*
X178976190Y-100074819D01*
X178976190Y-100074819D02*
X178785714Y-100074819D01*
X178785714Y-100074819D02*
X178690476Y-100122438D01*
X178690476Y-100122438D02*
X178642857Y-100170057D01*
X178642857Y-100170057D02*
X178595238Y-100265295D01*
X178595238Y-100265295D02*
X178595238Y-100503390D01*
X178595238Y-100503390D02*
X178642857Y-100598628D01*
X178642857Y-100598628D02*
X178690476Y-100646247D01*
X178690476Y-100646247D02*
X178785714Y-100693866D01*
X178785714Y-100693866D02*
X178976190Y-100693866D01*
X178976190Y-100693866D02*
X179071428Y-100646247D01*
X179071428Y-100646247D02*
X179119047Y-100598628D01*
X179119047Y-100598628D02*
X179166666Y-100503390D01*
X158428095Y-120044819D02*
X158428095Y-120854342D01*
X158428095Y-120854342D02*
X158475714Y-120949580D01*
X158475714Y-120949580D02*
X158523333Y-120997200D01*
X158523333Y-120997200D02*
X158618571Y-121044819D01*
X158618571Y-121044819D02*
X158809047Y-121044819D01*
X158809047Y-121044819D02*
X158904285Y-120997200D01*
X158904285Y-120997200D02*
X158951904Y-120949580D01*
X158951904Y-120949580D02*
X158999523Y-120854342D01*
X158999523Y-120854342D02*
X158999523Y-120044819D01*
X159999523Y-121044819D02*
X159428095Y-121044819D01*
X159713809Y-121044819D02*
X159713809Y-120044819D01*
X159713809Y-120044819D02*
X159618571Y-120187676D01*
X159618571Y-120187676D02*
X159523333Y-120282914D01*
X159523333Y-120282914D02*
X159428095Y-120330533D01*
X189489405Y-104334819D02*
X189489405Y-103334819D01*
X189489405Y-103334819D02*
X189727500Y-103334819D01*
X189727500Y-103334819D02*
X189870357Y-103382438D01*
X189870357Y-103382438D02*
X189965595Y-103477676D01*
X189965595Y-103477676D02*
X190013214Y-103572914D01*
X190013214Y-103572914D02*
X190060833Y-103763390D01*
X190060833Y-103763390D02*
X190060833Y-103906247D01*
X190060833Y-103906247D02*
X190013214Y-104096723D01*
X190013214Y-104096723D02*
X189965595Y-104191961D01*
X189965595Y-104191961D02*
X189870357Y-104287200D01*
X189870357Y-104287200D02*
X189727500Y-104334819D01*
X189727500Y-104334819D02*
X189489405Y-104334819D01*
X190394167Y-103334819D02*
X191013214Y-103334819D01*
X191013214Y-103334819D02*
X190679881Y-103715771D01*
X190679881Y-103715771D02*
X190822738Y-103715771D01*
X190822738Y-103715771D02*
X190917976Y-103763390D01*
X190917976Y-103763390D02*
X190965595Y-103811009D01*
X190965595Y-103811009D02*
X191013214Y-103906247D01*
X191013214Y-103906247D02*
X191013214Y-104144342D01*
X191013214Y-104144342D02*
X190965595Y-104239580D01*
X190965595Y-104239580D02*
X190917976Y-104287200D01*
X190917976Y-104287200D02*
X190822738Y-104334819D01*
X190822738Y-104334819D02*
X190537024Y-104334819D01*
X190537024Y-104334819D02*
X190441786Y-104287200D01*
X190441786Y-104287200D02*
X190394167Y-104239580D01*
X186155595Y-104654819D02*
X186155595Y-103654819D01*
X186727023Y-104654819D02*
X186298452Y-104083390D01*
X186727023Y-103654819D02*
X186155595Y-104226247D01*
X126454819Y-133761904D02*
X127264342Y-133761904D01*
X127264342Y-133761904D02*
X127359580Y-133714285D01*
X127359580Y-133714285D02*
X127407200Y-133666666D01*
X127407200Y-133666666D02*
X127454819Y-133571428D01*
X127454819Y-133571428D02*
X127454819Y-133380952D01*
X127454819Y-133380952D02*
X127407200Y-133285714D01*
X127407200Y-133285714D02*
X127359580Y-133238095D01*
X127359580Y-133238095D02*
X127264342Y-133190476D01*
X127264342Y-133190476D02*
X126454819Y-133190476D01*
X126788152Y-132285714D02*
X127454819Y-132285714D01*
X126407200Y-132523809D02*
X127121485Y-132761904D01*
X127121485Y-132761904D02*
X127121485Y-132142857D01*
X146859580Y-89642857D02*
X146907200Y-89690476D01*
X146907200Y-89690476D02*
X146954819Y-89833333D01*
X146954819Y-89833333D02*
X146954819Y-89928571D01*
X146954819Y-89928571D02*
X146907200Y-90071428D01*
X146907200Y-90071428D02*
X146811961Y-90166666D01*
X146811961Y-90166666D02*
X146716723Y-90214285D01*
X146716723Y-90214285D02*
X146526247Y-90261904D01*
X146526247Y-90261904D02*
X146383390Y-90261904D01*
X146383390Y-90261904D02*
X146192914Y-90214285D01*
X146192914Y-90214285D02*
X146097676Y-90166666D01*
X146097676Y-90166666D02*
X146002438Y-90071428D01*
X146002438Y-90071428D02*
X145954819Y-89928571D01*
X145954819Y-89928571D02*
X145954819Y-89833333D01*
X145954819Y-89833333D02*
X146002438Y-89690476D01*
X146002438Y-89690476D02*
X146050057Y-89642857D01*
X146954819Y-88690476D02*
X146954819Y-89261904D01*
X146954819Y-88976190D02*
X145954819Y-88976190D01*
X145954819Y-88976190D02*
X146097676Y-89071428D01*
X146097676Y-89071428D02*
X146192914Y-89166666D01*
X146192914Y-89166666D02*
X146240533Y-89261904D01*
X145954819Y-88357142D02*
X145954819Y-87738095D01*
X145954819Y-87738095D02*
X146335771Y-88071428D01*
X146335771Y-88071428D02*
X146335771Y-87928571D01*
X146335771Y-87928571D02*
X146383390Y-87833333D01*
X146383390Y-87833333D02*
X146431009Y-87785714D01*
X146431009Y-87785714D02*
X146526247Y-87738095D01*
X146526247Y-87738095D02*
X146764342Y-87738095D01*
X146764342Y-87738095D02*
X146859580Y-87785714D01*
X146859580Y-87785714D02*
X146907200Y-87833333D01*
X146907200Y-87833333D02*
X146954819Y-87928571D01*
X146954819Y-87928571D02*
X146954819Y-88214285D01*
X146954819Y-88214285D02*
X146907200Y-88309523D01*
X146907200Y-88309523D02*
X146859580Y-88357142D01*
X201212261Y-73990057D02*
X201117023Y-73942438D01*
X201117023Y-73942438D02*
X201021785Y-73847200D01*
X201021785Y-73847200D02*
X200878928Y-73704342D01*
X200878928Y-73704342D02*
X200783690Y-73656723D01*
X200783690Y-73656723D02*
X200688452Y-73656723D01*
X200736071Y-73894819D02*
X200640833Y-73847200D01*
X200640833Y-73847200D02*
X200545595Y-73751961D01*
X200545595Y-73751961D02*
X200497976Y-73561485D01*
X200497976Y-73561485D02*
X200497976Y-73228152D01*
X200497976Y-73228152D02*
X200545595Y-73037676D01*
X200545595Y-73037676D02*
X200640833Y-72942438D01*
X200640833Y-72942438D02*
X200736071Y-72894819D01*
X200736071Y-72894819D02*
X200926547Y-72894819D01*
X200926547Y-72894819D02*
X201021785Y-72942438D01*
X201021785Y-72942438D02*
X201117023Y-73037676D01*
X201117023Y-73037676D02*
X201164642Y-73228152D01*
X201164642Y-73228152D02*
X201164642Y-73561485D01*
X201164642Y-73561485D02*
X201117023Y-73751961D01*
X201117023Y-73751961D02*
X201021785Y-73847200D01*
X201021785Y-73847200D02*
X200926547Y-73894819D01*
X200926547Y-73894819D02*
X200736071Y-73894819D01*
X202117023Y-73894819D02*
X201545595Y-73894819D01*
X201831309Y-73894819D02*
X201831309Y-72894819D01*
X201831309Y-72894819D02*
X201736071Y-73037676D01*
X201736071Y-73037676D02*
X201640833Y-73132914D01*
X201640833Y-73132914D02*
X201545595Y-73180533D01*
X106738095Y-106074819D02*
X107309523Y-106074819D01*
X107023809Y-107074819D02*
X107023809Y-106074819D01*
X107642857Y-107074819D02*
X107642857Y-106074819D01*
X107642857Y-106074819D02*
X108023809Y-106074819D01*
X108023809Y-106074819D02*
X108119047Y-106122438D01*
X108119047Y-106122438D02*
X108166666Y-106170057D01*
X108166666Y-106170057D02*
X108214285Y-106265295D01*
X108214285Y-106265295D02*
X108214285Y-106408152D01*
X108214285Y-106408152D02*
X108166666Y-106503390D01*
X108166666Y-106503390D02*
X108119047Y-106551009D01*
X108119047Y-106551009D02*
X108023809Y-106598628D01*
X108023809Y-106598628D02*
X107642857Y-106598628D01*
X108547619Y-106074819D02*
X109166666Y-106074819D01*
X109166666Y-106074819D02*
X108833333Y-106455771D01*
X108833333Y-106455771D02*
X108976190Y-106455771D01*
X108976190Y-106455771D02*
X109071428Y-106503390D01*
X109071428Y-106503390D02*
X109119047Y-106551009D01*
X109119047Y-106551009D02*
X109166666Y-106646247D01*
X109166666Y-106646247D02*
X109166666Y-106884342D01*
X109166666Y-106884342D02*
X109119047Y-106979580D01*
X109119047Y-106979580D02*
X109071428Y-107027200D01*
X109071428Y-107027200D02*
X108976190Y-107074819D01*
X108976190Y-107074819D02*
X108690476Y-107074819D01*
X108690476Y-107074819D02*
X108595238Y-107027200D01*
X108595238Y-107027200D02*
X108547619Y-106979580D01*
X99809524Y-65454819D02*
X99809524Y-64454819D01*
X99809524Y-64454819D02*
X100142857Y-65169104D01*
X100142857Y-65169104D02*
X100476190Y-64454819D01*
X100476190Y-64454819D02*
X100476190Y-65454819D01*
X100809524Y-64454819D02*
X101380952Y-64454819D01*
X101095238Y-65454819D02*
X101095238Y-64454819D01*
X102238095Y-65454819D02*
X101666667Y-65454819D01*
X101952381Y-65454819D02*
X101952381Y-64454819D01*
X101952381Y-64454819D02*
X101857143Y-64597676D01*
X101857143Y-64597676D02*
X101761905Y-64692914D01*
X101761905Y-64692914D02*
X101666667Y-64740533D01*
D12*
%TO.C,C4*%
X141580000Y-129880000D02*
X144320000Y-129880000D01*
X141580000Y-137120000D02*
X141580000Y-129880000D01*
X144320000Y-129880000D02*
X144320000Y-137120000D01*
X144320000Y-137120000D02*
X141580000Y-137120000D01*
%TO.C,R2*%
X135800000Y-109950000D02*
X136570000Y-109950000D01*
X143880000Y-109950000D02*
X143110000Y-109950000D01*
X136570000Y-108580000D02*
X143110000Y-108580000D01*
X143110000Y-111320000D01*
X136570000Y-111320000D01*
X136570000Y-108580000D01*
%TO.C,R12*%
X198860436Y-120290000D02*
X203214564Y-120290000D01*
X198860436Y-123710000D02*
X203214564Y-123710000D01*
%TO.C,C7*%
X172380000Y-120630000D02*
X179620000Y-120630000D01*
X172380000Y-123370000D02*
X172380000Y-120630000D01*
X179620000Y-120630000D02*
X179620000Y-123370000D01*
X179620000Y-123370000D02*
X172380000Y-123370000D01*
%TO.C,C3*%
X151880000Y-114630000D02*
X159120000Y-114630000D01*
X151880000Y-117370000D02*
X151880000Y-114630000D01*
X159120000Y-114630000D02*
X159120000Y-117370000D01*
X159120000Y-117370000D02*
X151880000Y-117370000D01*
%TO.C,D7*%
X94710000Y-118769000D02*
X94710000Y-118925000D01*
X94710000Y-121085000D02*
X94710000Y-121241000D01*
X94710000Y-118769484D02*
G75*
G02*
X97941437Y-118925000I1560000J-1235516D01*
G01*
X95229039Y-118925000D02*
G75*
G02*
X97310961Y-118925000I1040961J-1080000D01*
G01*
X97310961Y-121085000D02*
G75*
G02*
X95229039Y-121085000I-1040961J1080000D01*
G01*
X97941437Y-121085000D02*
G75*
G02*
X94710000Y-121240516I-1671437J1080000D01*
G01*
%TO.C,R14*%
X193975436Y-152290000D02*
X198329564Y-152290000D01*
X193975436Y-155710000D02*
X198329564Y-155710000D01*
%TO.C,R5*%
X135960000Y-102000000D02*
X136730000Y-102000000D01*
X144040000Y-102000000D02*
X143270000Y-102000000D01*
X143270000Y-103370000D02*
X136730000Y-103370000D01*
X136730000Y-100630000D01*
X143270000Y-100630000D01*
X143270000Y-103370000D01*
%TO.C,U2*%
X129740000Y-67430000D02*
X134360000Y-67430000D01*
X129740000Y-70690000D02*
X131120000Y-70690000D01*
X129740000Y-74390000D02*
X131120000Y-74390000D01*
X129740000Y-77650000D02*
X129740000Y-67430000D01*
X131120000Y-77650000D02*
X131120000Y-67430000D01*
X134360000Y-67430000D02*
X134360000Y-77650000D01*
X134360000Y-77650000D02*
X129740000Y-77650000D01*
%TO.C,C1*%
X146580000Y-129880000D02*
X149320000Y-129880000D01*
X146580000Y-137120000D02*
X146580000Y-129880000D01*
X149320000Y-129880000D02*
X149320000Y-137120000D01*
X149320000Y-137120000D02*
X146580000Y-137120000D01*
%TO.C,TP8*%
X182657500Y-75620000D02*
X184037500Y-75620000D01*
X182657500Y-77000000D02*
X182657500Y-75620000D01*
X182657500Y-78270000D02*
X182657500Y-78380000D01*
X182657500Y-78270000D02*
X185417500Y-78270000D01*
X182657500Y-78380000D02*
X185417500Y-78380000D01*
X185417500Y-78270000D02*
X185417500Y-78380000D01*
%TO.C,TP12*%
X199695000Y-103620000D02*
X201075000Y-103620000D01*
X199695000Y-105000000D02*
X199695000Y-103620000D01*
X199695000Y-106270000D02*
X199695000Y-106380000D01*
X199695000Y-106270000D02*
X202455000Y-106270000D01*
X199695000Y-106380000D02*
X202455000Y-106380000D01*
X202455000Y-106270000D02*
X202455000Y-106380000D01*
%TO.C,Q3*%
X199200000Y-143850000D02*
X202800000Y-143850000D01*
X199161522Y-143838478D02*
G75*
G02*
X201000000Y-139399999I1838478J1838478D01*
G01*
X201000000Y-139400000D02*
G75*
G02*
X202838478Y-143838478I0J-2600000D01*
G01*
%TO.C,R15*%
X94960000Y-125005000D02*
X95730000Y-125005000D01*
X103040000Y-125005000D02*
X102270000Y-125005000D01*
X95730000Y-123635000D02*
X102270000Y-123635000D01*
X102270000Y-126375000D01*
X95730000Y-126375000D01*
X95730000Y-123635000D01*
%TO.C,R9*%
X188822936Y-75470000D02*
X193177064Y-75470000D01*
X188822936Y-78890000D02*
X193177064Y-78890000D01*
%TO.C,TP7*%
X152620000Y-109620000D02*
X154000000Y-109620000D01*
X152620000Y-111000000D02*
X152620000Y-109620000D01*
X152620000Y-112270000D02*
X152620000Y-112380000D01*
X152620000Y-112270000D02*
X155380000Y-112270000D01*
X152620000Y-112380000D02*
X155380000Y-112380000D01*
X155380000Y-112270000D02*
X155380000Y-112380000D01*
%TO.C,C2*%
X166630000Y-124380000D02*
X169370000Y-124380000D01*
X166630000Y-131620000D02*
X166630000Y-124380000D01*
X169370000Y-124380000D02*
X169370000Y-131620000D01*
X169370000Y-131620000D02*
X166630000Y-131620000D01*
%TO.C,C8*%
X172380000Y-126630000D02*
X179620000Y-126630000D01*
X172380000Y-129370000D02*
X172380000Y-126630000D01*
X179620000Y-126630000D02*
X179620000Y-129370000D01*
X179620000Y-129370000D02*
X172380000Y-129370000D01*
%TO.C,R11*%
X188860436Y-97290000D02*
X193214564Y-97290000D01*
X188860436Y-100710000D02*
X193214564Y-100710000D01*
%TO.C,C11*%
X115840302Y-139685000D02*
X116640302Y-139685000D01*
X116240302Y-139285000D02*
X116240302Y-140085000D01*
X120250000Y-137920000D02*
X120250000Y-146080000D01*
X120290000Y-137920000D02*
X120290000Y-146080000D01*
X120330000Y-137921000D02*
X120330000Y-146079000D01*
X120370000Y-137922000D02*
X120370000Y-146078000D01*
X120410000Y-137923000D02*
X120410000Y-146077000D01*
X120450000Y-137925000D02*
X120450000Y-146075000D01*
X120490000Y-137927000D02*
X120490000Y-146073000D01*
X120530000Y-137930000D02*
X120530000Y-146070000D01*
X120570000Y-137932000D02*
X120570000Y-146068000D01*
X120610000Y-137936000D02*
X120610000Y-146064000D01*
X120650000Y-137939000D02*
X120650000Y-146061000D01*
X120690000Y-137944000D02*
X120690000Y-146056000D01*
X120730000Y-137948000D02*
X120730000Y-146052000D01*
X120770000Y-137953000D02*
X120770000Y-146047000D01*
X120810000Y-137958000D02*
X120810000Y-146042000D01*
X120850000Y-137964000D02*
X120850000Y-146036000D01*
X120890000Y-137970000D02*
X120890000Y-146030000D01*
X120930000Y-137977000D02*
X120930000Y-146023000D01*
X120970000Y-137983000D02*
X120970000Y-140960000D01*
X120970000Y-143040000D02*
X120970000Y-146017000D01*
X121010000Y-137991000D02*
X121010000Y-140960000D01*
X121010000Y-143040000D02*
X121010000Y-146009000D01*
X121050000Y-137998000D02*
X121050000Y-140960000D01*
X121050000Y-143040000D02*
X121050000Y-146002000D01*
X121090000Y-138007000D02*
X121090000Y-140960000D01*
X121090000Y-143040000D02*
X121090000Y-145993000D01*
X121130000Y-138015000D02*
X121130000Y-140960000D01*
X121130000Y-143040000D02*
X121130000Y-145985000D01*
X121170000Y-138024000D02*
X121170000Y-140960000D01*
X121170000Y-143040000D02*
X121170000Y-145976000D01*
X121210000Y-138033000D02*
X121210000Y-140960000D01*
X121210000Y-143040000D02*
X121210000Y-145967000D01*
X121250000Y-138043000D02*
X121250000Y-140960000D01*
X121250000Y-143040000D02*
X121250000Y-145957000D01*
X121290000Y-138053000D02*
X121290000Y-140960000D01*
X121290000Y-143040000D02*
X121290000Y-145947000D01*
X121330000Y-138064000D02*
X121330000Y-140960000D01*
X121330000Y-143040000D02*
X121330000Y-145936000D01*
X121370000Y-138075000D02*
X121370000Y-140960000D01*
X121370000Y-143040000D02*
X121370000Y-145925000D01*
X121410000Y-138087000D02*
X121410000Y-140960000D01*
X121410000Y-143040000D02*
X121410000Y-145913000D01*
X121450000Y-138099000D02*
X121450000Y-140960000D01*
X121450000Y-143040000D02*
X121450000Y-145901000D01*
X121490000Y-138111000D02*
X121490000Y-140960000D01*
X121490000Y-143040000D02*
X121490000Y-145889000D01*
X121530000Y-138124000D02*
X121530000Y-140960000D01*
X121530000Y-143040000D02*
X121530000Y-145876000D01*
X121570000Y-138137000D02*
X121570000Y-140960000D01*
X121570000Y-143040000D02*
X121570000Y-145863000D01*
X121610000Y-138151000D02*
X121610000Y-140960000D01*
X121610000Y-143040000D02*
X121610000Y-145849000D01*
X121650000Y-138165000D02*
X121650000Y-140960000D01*
X121650000Y-143040000D02*
X121650000Y-145835000D01*
X121690000Y-138180000D02*
X121690000Y-140960000D01*
X121690000Y-143040000D02*
X121690000Y-145820000D01*
X121730000Y-138195000D02*
X121730000Y-140960000D01*
X121730000Y-143040000D02*
X121730000Y-145805000D01*
X121770000Y-138211000D02*
X121770000Y-140960000D01*
X121770000Y-143040000D02*
X121770000Y-145789000D01*
X121810000Y-138227000D02*
X121810000Y-140960000D01*
X121810000Y-143040000D02*
X121810000Y-145773000D01*
X121850000Y-138243000D02*
X121850000Y-140960000D01*
X121850000Y-143040000D02*
X121850000Y-145757000D01*
X121890000Y-138260000D02*
X121890000Y-140960000D01*
X121890000Y-143040000D02*
X121890000Y-145740000D01*
X121930000Y-138278000D02*
X121930000Y-140960000D01*
X121930000Y-143040000D02*
X121930000Y-145722000D01*
X121970000Y-138296000D02*
X121970000Y-140960000D01*
X121970000Y-143040000D02*
X121970000Y-145704000D01*
X122010000Y-138315000D02*
X122010000Y-140960000D01*
X122010000Y-143040000D02*
X122010000Y-145685000D01*
X122050000Y-138334000D02*
X122050000Y-140960000D01*
X122050000Y-143040000D02*
X122050000Y-145666000D01*
X122090000Y-138354000D02*
X122090000Y-140960000D01*
X122090000Y-143040000D02*
X122090000Y-145646000D01*
X122130000Y-138374000D02*
X122130000Y-140960000D01*
X122130000Y-143040000D02*
X122130000Y-145626000D01*
X122170000Y-138395000D02*
X122170000Y-140960000D01*
X122170000Y-143040000D02*
X122170000Y-145605000D01*
X122210000Y-138416000D02*
X122210000Y-140960000D01*
X122210000Y-143040000D02*
X122210000Y-145584000D01*
X122250000Y-138438000D02*
X122250000Y-140960000D01*
X122250000Y-143040000D02*
X122250000Y-145562000D01*
X122290000Y-138461000D02*
X122290000Y-140960000D01*
X122290000Y-143040000D02*
X122290000Y-145539000D01*
X122330000Y-138484000D02*
X122330000Y-140960000D01*
X122330000Y-143040000D02*
X122330000Y-145516000D01*
X122370000Y-138507000D02*
X122370000Y-140960000D01*
X122370000Y-143040000D02*
X122370000Y-145493000D01*
X122410000Y-138532000D02*
X122410000Y-140960000D01*
X122410000Y-143040000D02*
X122410000Y-145468000D01*
X122450000Y-138557000D02*
X122450000Y-140960000D01*
X122450000Y-143040000D02*
X122450000Y-145443000D01*
X122490000Y-138582000D02*
X122490000Y-140960000D01*
X122490000Y-143040000D02*
X122490000Y-145418000D01*
X122530000Y-138608000D02*
X122530000Y-140960000D01*
X122530000Y-143040000D02*
X122530000Y-145392000D01*
X122570000Y-138635000D02*
X122570000Y-140960000D01*
X122570000Y-143040000D02*
X122570000Y-145365000D01*
X122610000Y-138663000D02*
X122610000Y-140960000D01*
X122610000Y-143040000D02*
X122610000Y-145337000D01*
X122650000Y-138691000D02*
X122650000Y-140960000D01*
X122650000Y-143040000D02*
X122650000Y-145309000D01*
X122690000Y-138720000D02*
X122690000Y-140960000D01*
X122690000Y-143040000D02*
X122690000Y-145280000D01*
X122730000Y-138750000D02*
X122730000Y-140960000D01*
X122730000Y-143040000D02*
X122730000Y-145250000D01*
X122770000Y-138781000D02*
X122770000Y-140960000D01*
X122770000Y-143040000D02*
X122770000Y-145219000D01*
X122810000Y-138812000D02*
X122810000Y-140960000D01*
X122810000Y-143040000D02*
X122810000Y-145188000D01*
X122850000Y-138844000D02*
X122850000Y-140960000D01*
X122850000Y-143040000D02*
X122850000Y-145156000D01*
X122890000Y-138877000D02*
X122890000Y-140960000D01*
X122890000Y-143040000D02*
X122890000Y-145123000D01*
X122930000Y-138911000D02*
X122930000Y-140960000D01*
X122930000Y-143040000D02*
X122930000Y-145089000D01*
X122970000Y-138945000D02*
X122970000Y-140960000D01*
X122970000Y-143040000D02*
X122970000Y-145055000D01*
X123010000Y-138981000D02*
X123010000Y-140960000D01*
X123010000Y-143040000D02*
X123010000Y-145019000D01*
X123050000Y-139018000D02*
X123050000Y-144982000D01*
X123090000Y-139055000D02*
X123090000Y-144945000D01*
X123130000Y-139094000D02*
X123130000Y-144906000D01*
X123170000Y-139133000D02*
X123170000Y-144867000D01*
X123210000Y-139174000D02*
X123210000Y-144826000D01*
X123250000Y-139216000D02*
X123250000Y-144784000D01*
X123290000Y-139259000D02*
X123290000Y-144741000D01*
X123330000Y-139304000D02*
X123330000Y-144696000D01*
X123370000Y-139349000D02*
X123370000Y-144651000D01*
X123410000Y-139396000D02*
X123410000Y-144604000D01*
X123450000Y-139445000D02*
X123450000Y-144555000D01*
X123490000Y-139495000D02*
X123490000Y-144505000D01*
X123530000Y-139547000D02*
X123530000Y-144453000D01*
X123570000Y-139600000D02*
X123570000Y-144400000D01*
X123610000Y-139656000D02*
X123610000Y-144344000D01*
X123650000Y-139713000D02*
X123650000Y-144287000D01*
X123690000Y-139773000D02*
X123690000Y-144227000D01*
X123730000Y-139835000D02*
X123730000Y-144165000D01*
X123770000Y-139899000D02*
X123770000Y-144101000D01*
X123810000Y-139966000D02*
X123810000Y-144034000D01*
X123850000Y-140036000D02*
X123850000Y-143964000D01*
X123890000Y-140110000D02*
X123890000Y-143890000D01*
X123930000Y-140187000D02*
X123930000Y-143813000D01*
X123970000Y-140269000D02*
X123970000Y-143731000D01*
X124010000Y-140356000D02*
X124010000Y-143644000D01*
X124050000Y-140448000D02*
X124050000Y-143552000D01*
X124090000Y-140547000D02*
X124090000Y-143453000D01*
X124130000Y-140654000D02*
X124130000Y-143346000D01*
X124170000Y-140772000D02*
X124170000Y-143228000D01*
X124210000Y-140903000D02*
X124210000Y-143097000D01*
X124250000Y-141053000D02*
X124250000Y-142947000D01*
X124290000Y-141232000D02*
X124290000Y-142768000D01*
X124330000Y-141467000D02*
X124330000Y-142533000D01*
X124370000Y-142000000D02*
G75*
G02*
X116130000Y-142000000I-4120000J0D01*
G01*
X116130000Y-142000000D02*
G75*
G02*
X124370000Y-142000000I4120000J0D01*
G01*
%TO.C,D4*%
X210170000Y-107764000D02*
X210170000Y-107920000D01*
X210170000Y-110080000D02*
X210170000Y-110236000D01*
X210170000Y-107764484D02*
G75*
G02*
X213401437Y-107920000I1560000J-1235516D01*
G01*
X210689039Y-107920000D02*
G75*
G02*
X212770961Y-107920000I1040961J-1080000D01*
G01*
X212770961Y-110080000D02*
G75*
G02*
X210689039Y-110080000I-1040961J1080000D01*
G01*
X213401437Y-110080000D02*
G75*
G02*
X210170000Y-110235516I-1671437J1080000D01*
G01*
%TO.C,TP15*%
X153435000Y-97890000D02*
X154815000Y-97890000D01*
X153435000Y-99270000D02*
X153435000Y-97890000D01*
X153435000Y-100540000D02*
X153435000Y-100650000D01*
X153435000Y-100540000D02*
X156195000Y-100540000D01*
X153435000Y-100650000D02*
X156195000Y-100650000D01*
X156195000Y-100540000D02*
X156195000Y-100650000D01*
%TO.C,D2*%
X210170000Y-85764000D02*
X210170000Y-85920000D01*
X210170000Y-88080000D02*
X210170000Y-88236000D01*
X210170000Y-85764484D02*
G75*
G02*
X213401437Y-85920000I1560000J-1235516D01*
G01*
X210689039Y-85920000D02*
G75*
G02*
X212770961Y-85920000I1040961J-1080000D01*
G01*
X212770961Y-88080000D02*
G75*
G02*
X210689039Y-88080000I-1040961J1080000D01*
G01*
X213401437Y-88080000D02*
G75*
G02*
X210170000Y-88235516I-1671437J1080000D01*
G01*
%TO.C,R6*%
X137150000Y-154000000D02*
X137920000Y-154000000D01*
X145230000Y-154000000D02*
X144460000Y-154000000D01*
X137920000Y-152630000D02*
X144460000Y-152630000D01*
X144460000Y-155370000D01*
X137920000Y-155370000D01*
X137920000Y-152630000D01*
%TO.C,BR1*%
X118420000Y-69100000D02*
X118420000Y-77700000D01*
X118420000Y-77700000D02*
X123960000Y-77700000D01*
X120190000Y-69100000D02*
X118420000Y-69100000D01*
X123960000Y-69100000D02*
X122190000Y-69100000D01*
X123960000Y-77700000D02*
X123960000Y-69100000D01*
X122190000Y-69100000D02*
G75*
G02*
X120190000Y-69100000I-1000000J0D01*
G01*
%TO.C,J1*%
X93280000Y-138340000D02*
X103320000Y-138340000D01*
X93280000Y-140700000D02*
X93280000Y-138340000D01*
X93280000Y-148740000D02*
X93280000Y-141300000D01*
X93900000Y-138340000D02*
X93900000Y-148740000D01*
X95400000Y-138340000D02*
X95400000Y-148740000D01*
X100300000Y-138340000D02*
X100300000Y-148740000D01*
X103320000Y-138340000D02*
X103320000Y-148740000D01*
X103320000Y-148740000D02*
X93280000Y-148740000D01*
X93280000Y-141000000D02*
X92670000Y-141440000D01*
X92670000Y-140560000D01*
X93280000Y-141000000D01*
G36*
X93280000Y-141000000D02*
G01*
X92670000Y-141440000D01*
X92670000Y-140560000D01*
X93280000Y-141000000D01*
G37*
%TO.C,TP11*%
X199657500Y-67620000D02*
X201037500Y-67620000D01*
X199657500Y-69000000D02*
X199657500Y-67620000D01*
X199657500Y-70270000D02*
X199657500Y-70380000D01*
X199657500Y-70270000D02*
X202417500Y-70270000D01*
X199657500Y-70380000D02*
X202417500Y-70380000D01*
X202417500Y-70270000D02*
X202417500Y-70380000D01*
%TO.C,R7*%
X152070000Y-154000000D02*
X152840000Y-154000000D01*
X160150000Y-154000000D02*
X159380000Y-154000000D01*
X152840000Y-152630000D02*
X159380000Y-152630000D01*
X159380000Y-155370000D01*
X152840000Y-155370000D01*
X152840000Y-152630000D01*
%TO.C,R13*%
X181860436Y-138290000D02*
X186214564Y-138290000D01*
X181860436Y-141710000D02*
X186214564Y-141710000D01*
%TO.C,TP10*%
X107620000Y-146620000D02*
X109000000Y-146620000D01*
X107620000Y-148000000D02*
X107620000Y-146620000D01*
X107620000Y-149270000D02*
X107620000Y-149380000D01*
X107620000Y-149270000D02*
X110380000Y-149270000D01*
X107620000Y-149380000D02*
X110380000Y-149380000D01*
X110380000Y-149270000D02*
X110380000Y-149380000D01*
%TO.C,C5*%
X136580000Y-129880000D02*
X139320000Y-129880000D01*
X136580000Y-137120000D02*
X136580000Y-129880000D01*
X139320000Y-129880000D02*
X139320000Y-137120000D01*
X139320000Y-137120000D02*
X136580000Y-137120000D01*
%TO.C,Q2*%
X199275000Y-113850000D02*
X202875000Y-113850000D01*
X199236522Y-113838478D02*
G75*
G02*
X201075000Y-109399999I1838478J1838478D01*
G01*
X201075000Y-109400000D02*
G75*
G02*
X202913478Y-113838478I0J-2600000D01*
G01*
%TO.C,TP2*%
X106620000Y-75620000D02*
X108000000Y-75620000D01*
X106620000Y-77000000D02*
X106620000Y-75620000D01*
X106620000Y-78270000D02*
X106620000Y-78380000D01*
X106620000Y-78270000D02*
X109380000Y-78270000D01*
X106620000Y-78380000D02*
X109380000Y-78380000D01*
X109380000Y-78270000D02*
X109380000Y-78380000D01*
%TO.C,R8*%
X166150000Y-154000000D02*
X166920000Y-154000000D01*
X174230000Y-154000000D02*
X173460000Y-154000000D01*
X166920000Y-152630000D02*
X173460000Y-152630000D01*
X173460000Y-155370000D01*
X166920000Y-155370000D01*
X166920000Y-152630000D01*
%TO.C,TP1*%
X106620000Y-68620000D02*
X108000000Y-68620000D01*
X106620000Y-70000000D02*
X106620000Y-68620000D01*
X106620000Y-71270000D02*
X106620000Y-71380000D01*
X106620000Y-71270000D02*
X109380000Y-71270000D01*
X106620000Y-71380000D02*
X109380000Y-71380000D01*
X109380000Y-71270000D02*
X109380000Y-71380000D01*
%TO.C,C6*%
X172380000Y-114630000D02*
X179620000Y-114630000D01*
X172380000Y-117370000D02*
X172380000Y-114630000D01*
X179620000Y-114630000D02*
X179620000Y-117370000D01*
X179620000Y-117370000D02*
X172380000Y-117370000D01*
%TO.C,TP16*%
X106620000Y-83620000D02*
X108000000Y-83620000D01*
X106620000Y-85000000D02*
X106620000Y-83620000D01*
X106620000Y-86270000D02*
X106620000Y-86380000D01*
X106620000Y-86270000D02*
X109380000Y-86270000D01*
X106620000Y-86380000D02*
X109380000Y-86380000D01*
X109380000Y-86270000D02*
X109380000Y-86380000D01*
%TO.C,R4*%
X135804698Y-106050000D02*
X136574698Y-106050000D01*
X143884698Y-106050000D02*
X143114698Y-106050000D01*
X143114698Y-107420000D02*
X136574698Y-107420000D01*
X136574698Y-104680000D01*
X143114698Y-104680000D01*
X143114698Y-107420000D01*
%TO.C,J2*%
X93280000Y-72340000D02*
X103320000Y-72340000D01*
X93280000Y-74700000D02*
X93280000Y-72340000D01*
X93280000Y-87820000D02*
X93280000Y-75300000D01*
X93900000Y-72340000D02*
X93900000Y-87820000D01*
X95400000Y-72340000D02*
X95400000Y-87820000D01*
X100300000Y-72340000D02*
X100300000Y-87820000D01*
X103320000Y-72340000D02*
X103320000Y-87820000D01*
X103320000Y-87820000D02*
X93280000Y-87820000D01*
X93280000Y-75000000D02*
X92670000Y-75440000D01*
X92670000Y-74560000D01*
X93280000Y-75000000D01*
G36*
X93280000Y-75000000D02*
G01*
X92670000Y-75440000D01*
X92670000Y-74560000D01*
X93280000Y-75000000D01*
G37*
%TO.C,C12*%
X115840302Y-127685000D02*
X116640302Y-127685000D01*
X116240302Y-127285000D02*
X116240302Y-128085000D01*
X120250000Y-125920000D02*
X120250000Y-134080000D01*
X120290000Y-125920000D02*
X120290000Y-134080000D01*
X120330000Y-125921000D02*
X120330000Y-134079000D01*
X120370000Y-125922000D02*
X120370000Y-134078000D01*
X120410000Y-125923000D02*
X120410000Y-134077000D01*
X120450000Y-125925000D02*
X120450000Y-134075000D01*
X120490000Y-125927000D02*
X120490000Y-134073000D01*
X120530000Y-125930000D02*
X120530000Y-134070000D01*
X120570000Y-125932000D02*
X120570000Y-134068000D01*
X120610000Y-125936000D02*
X120610000Y-134064000D01*
X120650000Y-125939000D02*
X120650000Y-134061000D01*
X120690000Y-125944000D02*
X120690000Y-134056000D01*
X120730000Y-125948000D02*
X120730000Y-134052000D01*
X120770000Y-125953000D02*
X120770000Y-134047000D01*
X120810000Y-125958000D02*
X120810000Y-134042000D01*
X120850000Y-125964000D02*
X120850000Y-134036000D01*
X120890000Y-125970000D02*
X120890000Y-134030000D01*
X120930000Y-125977000D02*
X120930000Y-134023000D01*
X120970000Y-125983000D02*
X120970000Y-128960000D01*
X120970000Y-131040000D02*
X120970000Y-134017000D01*
X121010000Y-125991000D02*
X121010000Y-128960000D01*
X121010000Y-131040000D02*
X121010000Y-134009000D01*
X121050000Y-125998000D02*
X121050000Y-128960000D01*
X121050000Y-131040000D02*
X121050000Y-134002000D01*
X121090000Y-126007000D02*
X121090000Y-128960000D01*
X121090000Y-131040000D02*
X121090000Y-133993000D01*
X121130000Y-126015000D02*
X121130000Y-128960000D01*
X121130000Y-131040000D02*
X121130000Y-133985000D01*
X121170000Y-126024000D02*
X121170000Y-128960000D01*
X121170000Y-131040000D02*
X121170000Y-133976000D01*
X121210000Y-126033000D02*
X121210000Y-128960000D01*
X121210000Y-131040000D02*
X121210000Y-133967000D01*
X121250000Y-126043000D02*
X121250000Y-128960000D01*
X121250000Y-131040000D02*
X121250000Y-133957000D01*
X121290000Y-126053000D02*
X121290000Y-128960000D01*
X121290000Y-131040000D02*
X121290000Y-133947000D01*
X121330000Y-126064000D02*
X121330000Y-128960000D01*
X121330000Y-131040000D02*
X121330000Y-133936000D01*
X121370000Y-126075000D02*
X121370000Y-128960000D01*
X121370000Y-131040000D02*
X121370000Y-133925000D01*
X121410000Y-126087000D02*
X121410000Y-128960000D01*
X121410000Y-131040000D02*
X121410000Y-133913000D01*
X121450000Y-126099000D02*
X121450000Y-128960000D01*
X121450000Y-131040000D02*
X121450000Y-133901000D01*
X121490000Y-126111000D02*
X121490000Y-128960000D01*
X121490000Y-131040000D02*
X121490000Y-133889000D01*
X121530000Y-126124000D02*
X121530000Y-128960000D01*
X121530000Y-131040000D02*
X121530000Y-133876000D01*
X121570000Y-126137000D02*
X121570000Y-128960000D01*
X121570000Y-131040000D02*
X121570000Y-133863000D01*
X121610000Y-126151000D02*
X121610000Y-128960000D01*
X121610000Y-131040000D02*
X121610000Y-133849000D01*
X121650000Y-126165000D02*
X121650000Y-128960000D01*
X121650000Y-131040000D02*
X121650000Y-133835000D01*
X121690000Y-126180000D02*
X121690000Y-128960000D01*
X121690000Y-131040000D02*
X121690000Y-133820000D01*
X121730000Y-126195000D02*
X121730000Y-128960000D01*
X121730000Y-131040000D02*
X121730000Y-133805000D01*
X121770000Y-126211000D02*
X121770000Y-128960000D01*
X121770000Y-131040000D02*
X121770000Y-133789000D01*
X121810000Y-126227000D02*
X121810000Y-128960000D01*
X121810000Y-131040000D02*
X121810000Y-133773000D01*
X121850000Y-126243000D02*
X121850000Y-128960000D01*
X121850000Y-131040000D02*
X121850000Y-133757000D01*
X121890000Y-126260000D02*
X121890000Y-128960000D01*
X121890000Y-131040000D02*
X121890000Y-133740000D01*
X121930000Y-126278000D02*
X121930000Y-128960000D01*
X121930000Y-131040000D02*
X121930000Y-133722000D01*
X121970000Y-126296000D02*
X121970000Y-128960000D01*
X121970000Y-131040000D02*
X121970000Y-133704000D01*
X122010000Y-126315000D02*
X122010000Y-128960000D01*
X122010000Y-131040000D02*
X122010000Y-133685000D01*
X122050000Y-126334000D02*
X122050000Y-128960000D01*
X122050000Y-131040000D02*
X122050000Y-133666000D01*
X122090000Y-126354000D02*
X122090000Y-128960000D01*
X122090000Y-131040000D02*
X122090000Y-133646000D01*
X122130000Y-126374000D02*
X122130000Y-128960000D01*
X122130000Y-131040000D02*
X122130000Y-133626000D01*
X122170000Y-126395000D02*
X122170000Y-128960000D01*
X122170000Y-131040000D02*
X122170000Y-133605000D01*
X122210000Y-126416000D02*
X122210000Y-128960000D01*
X122210000Y-131040000D02*
X122210000Y-133584000D01*
X122250000Y-126438000D02*
X122250000Y-128960000D01*
X122250000Y-131040000D02*
X122250000Y-133562000D01*
X122290000Y-126461000D02*
X122290000Y-128960000D01*
X122290000Y-131040000D02*
X122290000Y-133539000D01*
X122330000Y-126484000D02*
X122330000Y-128960000D01*
X122330000Y-131040000D02*
X122330000Y-133516000D01*
X122370000Y-126507000D02*
X122370000Y-128960000D01*
X122370000Y-131040000D02*
X122370000Y-133493000D01*
X122410000Y-126532000D02*
X122410000Y-128960000D01*
X122410000Y-131040000D02*
X122410000Y-133468000D01*
X122450000Y-126557000D02*
X122450000Y-128960000D01*
X122450000Y-131040000D02*
X122450000Y-133443000D01*
X122490000Y-126582000D02*
X122490000Y-128960000D01*
X122490000Y-131040000D02*
X122490000Y-133418000D01*
X122530000Y-126608000D02*
X122530000Y-128960000D01*
X122530000Y-131040000D02*
X122530000Y-133392000D01*
X122570000Y-126635000D02*
X122570000Y-128960000D01*
X122570000Y-131040000D02*
X122570000Y-133365000D01*
X122610000Y-126663000D02*
X122610000Y-128960000D01*
X122610000Y-131040000D02*
X122610000Y-133337000D01*
X122650000Y-126691000D02*
X122650000Y-128960000D01*
X122650000Y-131040000D02*
X122650000Y-133309000D01*
X122690000Y-126720000D02*
X122690000Y-128960000D01*
X122690000Y-131040000D02*
X122690000Y-133280000D01*
X122730000Y-126750000D02*
X122730000Y-128960000D01*
X122730000Y-131040000D02*
X122730000Y-133250000D01*
X122770000Y-126781000D02*
X122770000Y-128960000D01*
X122770000Y-131040000D02*
X122770000Y-133219000D01*
X122810000Y-126812000D02*
X122810000Y-128960000D01*
X122810000Y-131040000D02*
X122810000Y-133188000D01*
X122850000Y-126844000D02*
X122850000Y-128960000D01*
X122850000Y-131040000D02*
X122850000Y-133156000D01*
X122890000Y-126877000D02*
X122890000Y-128960000D01*
X122890000Y-131040000D02*
X122890000Y-133123000D01*
X122930000Y-126911000D02*
X122930000Y-128960000D01*
X122930000Y-131040000D02*
X122930000Y-133089000D01*
X122970000Y-126945000D02*
X122970000Y-128960000D01*
X122970000Y-131040000D02*
X122970000Y-133055000D01*
X123010000Y-126981000D02*
X123010000Y-128960000D01*
X123010000Y-131040000D02*
X123010000Y-133019000D01*
X123050000Y-127018000D02*
X123050000Y-132982000D01*
X123090000Y-127055000D02*
X123090000Y-132945000D01*
X123130000Y-127094000D02*
X123130000Y-132906000D01*
X123170000Y-127133000D02*
X123170000Y-132867000D01*
X123210000Y-127174000D02*
X123210000Y-132826000D01*
X123250000Y-127216000D02*
X123250000Y-132784000D01*
X123290000Y-127259000D02*
X123290000Y-132741000D01*
X123330000Y-127304000D02*
X123330000Y-132696000D01*
X123370000Y-127349000D02*
X123370000Y-132651000D01*
X123410000Y-127396000D02*
X123410000Y-132604000D01*
X123450000Y-127445000D02*
X123450000Y-132555000D01*
X123490000Y-127495000D02*
X123490000Y-132505000D01*
X123530000Y-127547000D02*
X123530000Y-132453000D01*
X123570000Y-127600000D02*
X123570000Y-132400000D01*
X123610000Y-127656000D02*
X123610000Y-132344000D01*
X123650000Y-127713000D02*
X123650000Y-132287000D01*
X123690000Y-127773000D02*
X123690000Y-132227000D01*
X123730000Y-127835000D02*
X123730000Y-132165000D01*
X123770000Y-127899000D02*
X123770000Y-132101000D01*
X123810000Y-127966000D02*
X123810000Y-132034000D01*
X123850000Y-128036000D02*
X123850000Y-131964000D01*
X123890000Y-128110000D02*
X123890000Y-131890000D01*
X123930000Y-128187000D02*
X123930000Y-131813000D01*
X123970000Y-128269000D02*
X123970000Y-131731000D01*
X124010000Y-128356000D02*
X124010000Y-131644000D01*
X124050000Y-128448000D02*
X124050000Y-131552000D01*
X124090000Y-128547000D02*
X124090000Y-131453000D01*
X124130000Y-128654000D02*
X124130000Y-131346000D01*
X124170000Y-128772000D02*
X124170000Y-131228000D01*
X124210000Y-128903000D02*
X124210000Y-131097000D01*
X124250000Y-129053000D02*
X124250000Y-130947000D01*
X124290000Y-129232000D02*
X124290000Y-130768000D01*
X124330000Y-129467000D02*
X124330000Y-130533000D01*
X124370000Y-130000000D02*
G75*
G02*
X116130000Y-130000000I-4120000J0D01*
G01*
X116130000Y-130000000D02*
G75*
G02*
X124370000Y-130000000I4120000J0D01*
G01*
%TO.C,C9*%
X115840302Y-90685000D02*
X116640302Y-90685000D01*
X116240302Y-90285000D02*
X116240302Y-91085000D01*
X120250000Y-88920000D02*
X120250000Y-97080000D01*
X120290000Y-88920000D02*
X120290000Y-97080000D01*
X120330000Y-88921000D02*
X120330000Y-97079000D01*
X120370000Y-88922000D02*
X120370000Y-97078000D01*
X120410000Y-88923000D02*
X120410000Y-97077000D01*
X120450000Y-88925000D02*
X120450000Y-97075000D01*
X120490000Y-88927000D02*
X120490000Y-97073000D01*
X120530000Y-88930000D02*
X120530000Y-97070000D01*
X120570000Y-88932000D02*
X120570000Y-97068000D01*
X120610000Y-88936000D02*
X120610000Y-97064000D01*
X120650000Y-88939000D02*
X120650000Y-97061000D01*
X120690000Y-88944000D02*
X120690000Y-97056000D01*
X120730000Y-88948000D02*
X120730000Y-97052000D01*
X120770000Y-88953000D02*
X120770000Y-97047000D01*
X120810000Y-88958000D02*
X120810000Y-97042000D01*
X120850000Y-88964000D02*
X120850000Y-97036000D01*
X120890000Y-88970000D02*
X120890000Y-97030000D01*
X120930000Y-88977000D02*
X120930000Y-97023000D01*
X120970000Y-88983000D02*
X120970000Y-91960000D01*
X120970000Y-94040000D02*
X120970000Y-97017000D01*
X121010000Y-88991000D02*
X121010000Y-91960000D01*
X121010000Y-94040000D02*
X121010000Y-97009000D01*
X121050000Y-88998000D02*
X121050000Y-91960000D01*
X121050000Y-94040000D02*
X121050000Y-97002000D01*
X121090000Y-89007000D02*
X121090000Y-91960000D01*
X121090000Y-94040000D02*
X121090000Y-96993000D01*
X121130000Y-89015000D02*
X121130000Y-91960000D01*
X121130000Y-94040000D02*
X121130000Y-96985000D01*
X121170000Y-89024000D02*
X121170000Y-91960000D01*
X121170000Y-94040000D02*
X121170000Y-96976000D01*
X121210000Y-89033000D02*
X121210000Y-91960000D01*
X121210000Y-94040000D02*
X121210000Y-96967000D01*
X121250000Y-89043000D02*
X121250000Y-91960000D01*
X121250000Y-94040000D02*
X121250000Y-96957000D01*
X121290000Y-89053000D02*
X121290000Y-91960000D01*
X121290000Y-94040000D02*
X121290000Y-96947000D01*
X121330000Y-89064000D02*
X121330000Y-91960000D01*
X121330000Y-94040000D02*
X121330000Y-96936000D01*
X121370000Y-89075000D02*
X121370000Y-91960000D01*
X121370000Y-94040000D02*
X121370000Y-96925000D01*
X121410000Y-89087000D02*
X121410000Y-91960000D01*
X121410000Y-94040000D02*
X121410000Y-96913000D01*
X121450000Y-89099000D02*
X121450000Y-91960000D01*
X121450000Y-94040000D02*
X121450000Y-96901000D01*
X121490000Y-89111000D02*
X121490000Y-91960000D01*
X121490000Y-94040000D02*
X121490000Y-96889000D01*
X121530000Y-89124000D02*
X121530000Y-91960000D01*
X121530000Y-94040000D02*
X121530000Y-96876000D01*
X121570000Y-89137000D02*
X121570000Y-91960000D01*
X121570000Y-94040000D02*
X121570000Y-96863000D01*
X121610000Y-89151000D02*
X121610000Y-91960000D01*
X121610000Y-94040000D02*
X121610000Y-96849000D01*
X121650000Y-89165000D02*
X121650000Y-91960000D01*
X121650000Y-94040000D02*
X121650000Y-96835000D01*
X121690000Y-89180000D02*
X121690000Y-91960000D01*
X121690000Y-94040000D02*
X121690000Y-96820000D01*
X121730000Y-89195000D02*
X121730000Y-91960000D01*
X121730000Y-94040000D02*
X121730000Y-96805000D01*
X121770000Y-89211000D02*
X121770000Y-91960000D01*
X121770000Y-94040000D02*
X121770000Y-96789000D01*
X121810000Y-89227000D02*
X121810000Y-91960000D01*
X121810000Y-94040000D02*
X121810000Y-96773000D01*
X121850000Y-89243000D02*
X121850000Y-91960000D01*
X121850000Y-94040000D02*
X121850000Y-96757000D01*
X121890000Y-89260000D02*
X121890000Y-91960000D01*
X121890000Y-94040000D02*
X121890000Y-96740000D01*
X121930000Y-89278000D02*
X121930000Y-91960000D01*
X121930000Y-94040000D02*
X121930000Y-96722000D01*
X121970000Y-89296000D02*
X121970000Y-91960000D01*
X121970000Y-94040000D02*
X121970000Y-96704000D01*
X122010000Y-89315000D02*
X122010000Y-91960000D01*
X122010000Y-94040000D02*
X122010000Y-96685000D01*
X122050000Y-89334000D02*
X122050000Y-91960000D01*
X122050000Y-94040000D02*
X122050000Y-96666000D01*
X122090000Y-89354000D02*
X122090000Y-91960000D01*
X122090000Y-94040000D02*
X122090000Y-96646000D01*
X122130000Y-89374000D02*
X122130000Y-91960000D01*
X122130000Y-94040000D02*
X122130000Y-96626000D01*
X122170000Y-89395000D02*
X122170000Y-91960000D01*
X122170000Y-94040000D02*
X122170000Y-96605000D01*
X122210000Y-89416000D02*
X122210000Y-91960000D01*
X122210000Y-94040000D02*
X122210000Y-96584000D01*
X122250000Y-89438000D02*
X122250000Y-91960000D01*
X122250000Y-94040000D02*
X122250000Y-96562000D01*
X122290000Y-89461000D02*
X122290000Y-91960000D01*
X122290000Y-94040000D02*
X122290000Y-96539000D01*
X122330000Y-89484000D02*
X122330000Y-91960000D01*
X122330000Y-94040000D02*
X122330000Y-96516000D01*
X122370000Y-89507000D02*
X122370000Y-91960000D01*
X122370000Y-94040000D02*
X122370000Y-96493000D01*
X122410000Y-89532000D02*
X122410000Y-91960000D01*
X122410000Y-94040000D02*
X122410000Y-96468000D01*
X122450000Y-89557000D02*
X122450000Y-91960000D01*
X122450000Y-94040000D02*
X122450000Y-96443000D01*
X122490000Y-89582000D02*
X122490000Y-91960000D01*
X122490000Y-94040000D02*
X122490000Y-96418000D01*
X122530000Y-89608000D02*
X122530000Y-91960000D01*
X122530000Y-94040000D02*
X122530000Y-96392000D01*
X122570000Y-89635000D02*
X122570000Y-91960000D01*
X122570000Y-94040000D02*
X122570000Y-96365000D01*
X122610000Y-89663000D02*
X122610000Y-91960000D01*
X122610000Y-94040000D02*
X122610000Y-96337000D01*
X122650000Y-89691000D02*
X122650000Y-91960000D01*
X122650000Y-94040000D02*
X122650000Y-96309000D01*
X122690000Y-89720000D02*
X122690000Y-91960000D01*
X122690000Y-94040000D02*
X122690000Y-96280000D01*
X122730000Y-89750000D02*
X122730000Y-91960000D01*
X122730000Y-94040000D02*
X122730000Y-96250000D01*
X122770000Y-89781000D02*
X122770000Y-91960000D01*
X122770000Y-94040000D02*
X122770000Y-96219000D01*
X122810000Y-89812000D02*
X122810000Y-91960000D01*
X122810000Y-94040000D02*
X122810000Y-96188000D01*
X122850000Y-89844000D02*
X122850000Y-91960000D01*
X122850000Y-94040000D02*
X122850000Y-96156000D01*
X122890000Y-89877000D02*
X122890000Y-91960000D01*
X122890000Y-94040000D02*
X122890000Y-96123000D01*
X122930000Y-89911000D02*
X122930000Y-91960000D01*
X122930000Y-94040000D02*
X122930000Y-96089000D01*
X122970000Y-89945000D02*
X122970000Y-91960000D01*
X122970000Y-94040000D02*
X122970000Y-96055000D01*
X123010000Y-89981000D02*
X123010000Y-91960000D01*
X123010000Y-94040000D02*
X123010000Y-96019000D01*
X123050000Y-90018000D02*
X123050000Y-95982000D01*
X123090000Y-90055000D02*
X123090000Y-95945000D01*
X123130000Y-90094000D02*
X123130000Y-95906000D01*
X123170000Y-90133000D02*
X123170000Y-95867000D01*
X123210000Y-90174000D02*
X123210000Y-95826000D01*
X123250000Y-90216000D02*
X123250000Y-95784000D01*
X123290000Y-90259000D02*
X123290000Y-95741000D01*
X123330000Y-90304000D02*
X123330000Y-95696000D01*
X123370000Y-90349000D02*
X123370000Y-95651000D01*
X123410000Y-90396000D02*
X123410000Y-95604000D01*
X123450000Y-90445000D02*
X123450000Y-95555000D01*
X123490000Y-90495000D02*
X123490000Y-95505000D01*
X123530000Y-90547000D02*
X123530000Y-95453000D01*
X123570000Y-90600000D02*
X123570000Y-95400000D01*
X123610000Y-90656000D02*
X123610000Y-95344000D01*
X123650000Y-90713000D02*
X123650000Y-95287000D01*
X123690000Y-90773000D02*
X123690000Y-95227000D01*
X123730000Y-90835000D02*
X123730000Y-95165000D01*
X123770000Y-90899000D02*
X123770000Y-95101000D01*
X123810000Y-90966000D02*
X123810000Y-95034000D01*
X123850000Y-91036000D02*
X123850000Y-94964000D01*
X123890000Y-91110000D02*
X123890000Y-94890000D01*
X123930000Y-91187000D02*
X123930000Y-94813000D01*
X123970000Y-91269000D02*
X123970000Y-94731000D01*
X124010000Y-91356000D02*
X124010000Y-94644000D01*
X124050000Y-91448000D02*
X124050000Y-94552000D01*
X124090000Y-91547000D02*
X124090000Y-94453000D01*
X124130000Y-91654000D02*
X124130000Y-94346000D01*
X124170000Y-91772000D02*
X124170000Y-94228000D01*
X124210000Y-91903000D02*
X124210000Y-94097000D01*
X124250000Y-92053000D02*
X124250000Y-93947000D01*
X124290000Y-92232000D02*
X124290000Y-93768000D01*
X124330000Y-92467000D02*
X124330000Y-93533000D01*
X124370000Y-93000000D02*
G75*
G02*
X116130000Y-93000000I-4120000J0D01*
G01*
X116130000Y-93000000D02*
G75*
G02*
X124370000Y-93000000I4120000J0D01*
G01*
%TO.C,D5*%
X180420000Y-154000000D02*
X181070000Y-154000000D01*
X181670000Y-152880000D02*
X181670000Y-155120000D01*
X181790000Y-152880000D02*
X181790000Y-155120000D01*
X181910000Y-152880000D02*
X181910000Y-155120000D01*
X185960000Y-154000000D02*
X185310000Y-154000000D01*
X181070000Y-152880000D02*
X185310000Y-152880000D01*
X185310000Y-155120000D01*
X181070000Y-155120000D01*
X181070000Y-152880000D01*
%TO.C,TP13*%
X174620000Y-137620000D02*
X176000000Y-137620000D01*
X174620000Y-139000000D02*
X174620000Y-137620000D01*
X174620000Y-140270000D02*
X174620000Y-140380000D01*
X174620000Y-140270000D02*
X177380000Y-140270000D01*
X174620000Y-140380000D02*
X177380000Y-140380000D01*
X177380000Y-140270000D02*
X177380000Y-140380000D01*
%TO.C,RV1*%
X164125000Y-68980000D02*
X173875000Y-68980000D01*
X164125000Y-75300000D02*
X164125000Y-68980000D01*
X173875000Y-68980000D02*
X173875000Y-75300000D01*
X173875000Y-75300000D02*
X164125000Y-75300000D01*
%TO.C,D6*%
X209170000Y-137764000D02*
X209170000Y-137920000D01*
X209170000Y-140080000D02*
X209170000Y-140236000D01*
X209170000Y-137764484D02*
G75*
G02*
X212401437Y-137920000I1560000J-1235516D01*
G01*
X209689039Y-137920000D02*
G75*
G02*
X211770961Y-137920000I1040961J-1080000D01*
G01*
X211770961Y-140080000D02*
G75*
G02*
X209689039Y-140080000I-1040961J1080000D01*
G01*
X212401437Y-140080000D02*
G75*
G02*
X209170000Y-140235516I-1671437J1080000D01*
G01*
%TO.C,TP4*%
X106620000Y-113620000D02*
X108000000Y-113620000D01*
X106620000Y-115000000D02*
X106620000Y-113620000D01*
X106620000Y-116270000D02*
X106620000Y-116380000D01*
X106620000Y-116270000D02*
X109380000Y-116270000D01*
X106620000Y-116380000D02*
X109380000Y-116380000D01*
X109380000Y-116270000D02*
X109380000Y-116380000D01*
%TO.C,C14*%
X167445000Y-78380000D02*
X170185000Y-78380000D01*
X167445000Y-85620000D02*
X167445000Y-78380000D01*
X170185000Y-78380000D02*
X170185000Y-85620000D01*
X170185000Y-85620000D02*
X167445000Y-85620000D01*
%TO.C,C10*%
X115840302Y-109685000D02*
X116640302Y-109685000D01*
X116240302Y-109285000D02*
X116240302Y-110085000D01*
X120250000Y-107920000D02*
X120250000Y-116080000D01*
X120290000Y-107920000D02*
X120290000Y-116080000D01*
X120330000Y-107921000D02*
X120330000Y-116079000D01*
X120370000Y-107922000D02*
X120370000Y-116078000D01*
X120410000Y-107923000D02*
X120410000Y-116077000D01*
X120450000Y-107925000D02*
X120450000Y-116075000D01*
X120490000Y-107927000D02*
X120490000Y-116073000D01*
X120530000Y-107930000D02*
X120530000Y-116070000D01*
X120570000Y-107932000D02*
X120570000Y-116068000D01*
X120610000Y-107936000D02*
X120610000Y-116064000D01*
X120650000Y-107939000D02*
X120650000Y-116061000D01*
X120690000Y-107944000D02*
X120690000Y-116056000D01*
X120730000Y-107948000D02*
X120730000Y-116052000D01*
X120770000Y-107953000D02*
X120770000Y-116047000D01*
X120810000Y-107958000D02*
X120810000Y-116042000D01*
X120850000Y-107964000D02*
X120850000Y-116036000D01*
X120890000Y-107970000D02*
X120890000Y-116030000D01*
X120930000Y-107977000D02*
X120930000Y-116023000D01*
X120970000Y-107983000D02*
X120970000Y-110960000D01*
X120970000Y-113040000D02*
X120970000Y-116017000D01*
X121010000Y-107991000D02*
X121010000Y-110960000D01*
X121010000Y-113040000D02*
X121010000Y-116009000D01*
X121050000Y-107998000D02*
X121050000Y-110960000D01*
X121050000Y-113040000D02*
X121050000Y-116002000D01*
X121090000Y-108007000D02*
X121090000Y-110960000D01*
X121090000Y-113040000D02*
X121090000Y-115993000D01*
X121130000Y-108015000D02*
X121130000Y-110960000D01*
X121130000Y-113040000D02*
X121130000Y-115985000D01*
X121170000Y-108024000D02*
X121170000Y-110960000D01*
X121170000Y-113040000D02*
X121170000Y-115976000D01*
X121210000Y-108033000D02*
X121210000Y-110960000D01*
X121210000Y-113040000D02*
X121210000Y-115967000D01*
X121250000Y-108043000D02*
X121250000Y-110960000D01*
X121250000Y-113040000D02*
X121250000Y-115957000D01*
X121290000Y-108053000D02*
X121290000Y-110960000D01*
X121290000Y-113040000D02*
X121290000Y-115947000D01*
X121330000Y-108064000D02*
X121330000Y-110960000D01*
X121330000Y-113040000D02*
X121330000Y-115936000D01*
X121370000Y-108075000D02*
X121370000Y-110960000D01*
X121370000Y-113040000D02*
X121370000Y-115925000D01*
X121410000Y-108087000D02*
X121410000Y-110960000D01*
X121410000Y-113040000D02*
X121410000Y-115913000D01*
X121450000Y-108099000D02*
X121450000Y-110960000D01*
X121450000Y-113040000D02*
X121450000Y-115901000D01*
X121490000Y-108111000D02*
X121490000Y-110960000D01*
X121490000Y-113040000D02*
X121490000Y-115889000D01*
X121530000Y-108124000D02*
X121530000Y-110960000D01*
X121530000Y-113040000D02*
X121530000Y-115876000D01*
X121570000Y-108137000D02*
X121570000Y-110960000D01*
X121570000Y-113040000D02*
X121570000Y-115863000D01*
X121610000Y-108151000D02*
X121610000Y-110960000D01*
X121610000Y-113040000D02*
X121610000Y-115849000D01*
X121650000Y-108165000D02*
X121650000Y-110960000D01*
X121650000Y-113040000D02*
X121650000Y-115835000D01*
X121690000Y-108180000D02*
X121690000Y-110960000D01*
X121690000Y-113040000D02*
X121690000Y-115820000D01*
X121730000Y-108195000D02*
X121730000Y-110960000D01*
X121730000Y-113040000D02*
X121730000Y-115805000D01*
X121770000Y-108211000D02*
X121770000Y-110960000D01*
X121770000Y-113040000D02*
X121770000Y-115789000D01*
X121810000Y-108227000D02*
X121810000Y-110960000D01*
X121810000Y-113040000D02*
X121810000Y-115773000D01*
X121850000Y-108243000D02*
X121850000Y-110960000D01*
X121850000Y-113040000D02*
X121850000Y-115757000D01*
X121890000Y-108260000D02*
X121890000Y-110960000D01*
X121890000Y-113040000D02*
X121890000Y-115740000D01*
X121930000Y-108278000D02*
X121930000Y-110960000D01*
X121930000Y-113040000D02*
X121930000Y-115722000D01*
X121970000Y-108296000D02*
X121970000Y-110960000D01*
X121970000Y-113040000D02*
X121970000Y-115704000D01*
X122010000Y-108315000D02*
X122010000Y-110960000D01*
X122010000Y-113040000D02*
X122010000Y-115685000D01*
X122050000Y-108334000D02*
X122050000Y-110960000D01*
X122050000Y-113040000D02*
X122050000Y-115666000D01*
X122090000Y-108354000D02*
X122090000Y-110960000D01*
X122090000Y-113040000D02*
X122090000Y-115646000D01*
X122130000Y-108374000D02*
X122130000Y-110960000D01*
X122130000Y-113040000D02*
X122130000Y-115626000D01*
X122170000Y-108395000D02*
X122170000Y-110960000D01*
X122170000Y-113040000D02*
X122170000Y-115605000D01*
X122210000Y-108416000D02*
X122210000Y-110960000D01*
X122210000Y-113040000D02*
X122210000Y-115584000D01*
X122250000Y-108438000D02*
X122250000Y-110960000D01*
X122250000Y-113040000D02*
X122250000Y-115562000D01*
X122290000Y-108461000D02*
X122290000Y-110960000D01*
X122290000Y-113040000D02*
X122290000Y-115539000D01*
X122330000Y-108484000D02*
X122330000Y-110960000D01*
X122330000Y-113040000D02*
X122330000Y-115516000D01*
X122370000Y-108507000D02*
X122370000Y-110960000D01*
X122370000Y-113040000D02*
X122370000Y-115493000D01*
X122410000Y-108532000D02*
X122410000Y-110960000D01*
X122410000Y-113040000D02*
X122410000Y-115468000D01*
X122450000Y-108557000D02*
X122450000Y-110960000D01*
X122450000Y-113040000D02*
X122450000Y-115443000D01*
X122490000Y-108582000D02*
X122490000Y-110960000D01*
X122490000Y-113040000D02*
X122490000Y-115418000D01*
X122530000Y-108608000D02*
X122530000Y-110960000D01*
X122530000Y-113040000D02*
X122530000Y-115392000D01*
X122570000Y-108635000D02*
X122570000Y-110960000D01*
X122570000Y-113040000D02*
X122570000Y-115365000D01*
X122610000Y-108663000D02*
X122610000Y-110960000D01*
X122610000Y-113040000D02*
X122610000Y-115337000D01*
X122650000Y-108691000D02*
X122650000Y-110960000D01*
X122650000Y-113040000D02*
X122650000Y-115309000D01*
X122690000Y-108720000D02*
X122690000Y-110960000D01*
X122690000Y-113040000D02*
X122690000Y-115280000D01*
X122730000Y-108750000D02*
X122730000Y-110960000D01*
X122730000Y-113040000D02*
X122730000Y-115250000D01*
X122770000Y-108781000D02*
X122770000Y-110960000D01*
X122770000Y-113040000D02*
X122770000Y-115219000D01*
X122810000Y-108812000D02*
X122810000Y-110960000D01*
X122810000Y-113040000D02*
X122810000Y-115188000D01*
X122850000Y-108844000D02*
X122850000Y-110960000D01*
X122850000Y-113040000D02*
X122850000Y-115156000D01*
X122890000Y-108877000D02*
X122890000Y-110960000D01*
X122890000Y-113040000D02*
X122890000Y-115123000D01*
X122930000Y-108911000D02*
X122930000Y-110960000D01*
X122930000Y-113040000D02*
X122930000Y-115089000D01*
X122970000Y-108945000D02*
X122970000Y-110960000D01*
X122970000Y-113040000D02*
X122970000Y-115055000D01*
X123010000Y-108981000D02*
X123010000Y-110960000D01*
X123010000Y-113040000D02*
X123010000Y-115019000D01*
X123050000Y-109018000D02*
X123050000Y-114982000D01*
X123090000Y-109055000D02*
X123090000Y-114945000D01*
X123130000Y-109094000D02*
X123130000Y-114906000D01*
X123170000Y-109133000D02*
X123170000Y-114867000D01*
X123210000Y-109174000D02*
X123210000Y-114826000D01*
X123250000Y-109216000D02*
X123250000Y-114784000D01*
X123290000Y-109259000D02*
X123290000Y-114741000D01*
X123330000Y-109304000D02*
X123330000Y-114696000D01*
X123370000Y-109349000D02*
X123370000Y-114651000D01*
X123410000Y-109396000D02*
X123410000Y-114604000D01*
X123450000Y-109445000D02*
X123450000Y-114555000D01*
X123490000Y-109495000D02*
X123490000Y-114505000D01*
X123530000Y-109547000D02*
X123530000Y-114453000D01*
X123570000Y-109600000D02*
X123570000Y-114400000D01*
X123610000Y-109656000D02*
X123610000Y-114344000D01*
X123650000Y-109713000D02*
X123650000Y-114287000D01*
X123690000Y-109773000D02*
X123690000Y-114227000D01*
X123730000Y-109835000D02*
X123730000Y-114165000D01*
X123770000Y-109899000D02*
X123770000Y-114101000D01*
X123810000Y-109966000D02*
X123810000Y-114034000D01*
X123850000Y-110036000D02*
X123850000Y-113964000D01*
X123890000Y-110110000D02*
X123890000Y-113890000D01*
X123930000Y-110187000D02*
X123930000Y-113813000D01*
X123970000Y-110269000D02*
X123970000Y-113731000D01*
X124010000Y-110356000D02*
X124010000Y-113644000D01*
X124050000Y-110448000D02*
X124050000Y-113552000D01*
X124090000Y-110547000D02*
X124090000Y-113453000D01*
X124130000Y-110654000D02*
X124130000Y-113346000D01*
X124170000Y-110772000D02*
X124170000Y-113228000D01*
X124210000Y-110903000D02*
X124210000Y-113097000D01*
X124250000Y-111053000D02*
X124250000Y-112947000D01*
X124290000Y-111232000D02*
X124290000Y-112768000D01*
X124330000Y-111467000D02*
X124330000Y-112533000D01*
X124370000Y-112000000D02*
G75*
G02*
X116130000Y-112000000I-4120000J0D01*
G01*
X116130000Y-112000000D02*
G75*
G02*
X124370000Y-112000000I4120000J0D01*
G01*
%TO.C,D1*%
X187267500Y-85000000D02*
X187917500Y-85000000D01*
X188517500Y-83880000D02*
X188517500Y-86120000D01*
X188637500Y-83880000D02*
X188637500Y-86120000D01*
X188757500Y-83880000D02*
X188757500Y-86120000D01*
X192807500Y-85000000D02*
X192157500Y-85000000D01*
X187917500Y-83880000D02*
X192157500Y-83880000D01*
X192157500Y-86120000D01*
X187917500Y-86120000D01*
X187917500Y-83880000D01*
%TO.C,R10*%
X198897936Y-83290000D02*
X203252064Y-83290000D01*
X198897936Y-86710000D02*
X203252064Y-86710000D01*
%TO.C,TP14*%
X199350000Y-132620000D02*
X200730000Y-132620000D01*
X199350000Y-134000000D02*
X199350000Y-132620000D01*
X199350000Y-135270000D02*
X199350000Y-135380000D01*
X199350000Y-135270000D02*
X202110000Y-135270000D01*
X199350000Y-135380000D02*
X202110000Y-135380000D01*
X202110000Y-135270000D02*
X202110000Y-135380000D01*
%TO.C,TP5*%
X106620000Y-101620000D02*
X108000000Y-101620000D01*
X106620000Y-103000000D02*
X106620000Y-101620000D01*
X106620000Y-104270000D02*
X106620000Y-104380000D01*
X106620000Y-104270000D02*
X109380000Y-104270000D01*
X106620000Y-104380000D02*
X109380000Y-104380000D01*
X109380000Y-104270000D02*
X109380000Y-104380000D01*
%TO.C,R3*%
X135800000Y-114000000D02*
X136570000Y-114000000D01*
X143880000Y-114000000D02*
X143110000Y-114000000D01*
X136570000Y-112630000D02*
X143110000Y-112630000D01*
X143110000Y-115370000D01*
X136570000Y-115370000D01*
X136570000Y-112630000D01*
%TO.C,R16*%
X122822936Y-100290000D02*
X127177064Y-100290000D01*
X122822936Y-103710000D02*
X127177064Y-103710000D01*
%TO.C,J3*%
X93242500Y-100260000D02*
X103282500Y-100260000D01*
X93242500Y-102620000D02*
X93242500Y-100260000D01*
X93242500Y-115740000D02*
X93242500Y-103220000D01*
X93862500Y-100260000D02*
X93862500Y-115740000D01*
X95362500Y-100260000D02*
X95362500Y-115740000D01*
X100262500Y-100260000D02*
X100262500Y-115740000D01*
X103282500Y-100260000D02*
X103282500Y-115740000D01*
X103282500Y-115740000D02*
X93242500Y-115740000D01*
X93242500Y-102920000D02*
X92632500Y-103360000D01*
X92632500Y-102480000D01*
X93242500Y-102920000D01*
G36*
X93242500Y-102920000D02*
G01*
X92632500Y-103360000D01*
X92632500Y-102480000D01*
X93242500Y-102920000D01*
G37*
%TO.C,U5*%
X156355000Y-82860000D02*
X156355000Y-93140000D01*
X156355000Y-93140000D02*
X161655000Y-93140000D01*
X158005000Y-82860000D02*
X156355000Y-82860000D01*
X161655000Y-82860000D02*
X160005000Y-82860000D01*
X161655000Y-93140000D02*
X161655000Y-82860000D01*
X160005000Y-82860000D02*
G75*
G02*
X158005000Y-82860000I-1000000J0D01*
G01*
%TO.C,R1*%
X145880000Y-71000000D02*
X146650000Y-71000000D01*
X153960000Y-71000000D02*
X153190000Y-71000000D01*
X146650000Y-69630000D02*
X153190000Y-69630000D01*
X153190000Y-72370000D01*
X146650000Y-72370000D01*
X146650000Y-69630000D01*
%TO.C,TP6*%
X107620000Y-140620000D02*
X109000000Y-140620000D01*
X107620000Y-142000000D02*
X107620000Y-140620000D01*
X107620000Y-143270000D02*
X107620000Y-143380000D01*
X107620000Y-143270000D02*
X110380000Y-143270000D01*
X107620000Y-143380000D02*
X110380000Y-143380000D01*
X110380000Y-143270000D02*
X110380000Y-143380000D01*
%TO.C,TP9*%
X176620000Y-101620000D02*
X178000000Y-101620000D01*
X176620000Y-103000000D02*
X176620000Y-101620000D01*
X176620000Y-104270000D02*
X176620000Y-104380000D01*
X176620000Y-104270000D02*
X179380000Y-104270000D01*
X176620000Y-104380000D02*
X179380000Y-104380000D01*
X179380000Y-104270000D02*
X179380000Y-104380000D01*
%TO.C,U1*%
X156540000Y-121590000D02*
X156540000Y-139490000D01*
X156540000Y-139490000D02*
X161840000Y-139490000D01*
X158190000Y-121590000D02*
X156540000Y-121590000D01*
X161840000Y-121590000D02*
X160190000Y-121590000D01*
X161840000Y-139490000D02*
X161840000Y-121590000D01*
X160190000Y-121590000D02*
G75*
G02*
X158190000Y-121590000I-1000000J0D01*
G01*
%TO.C,D3*%
X187457500Y-106000000D02*
X188107500Y-106000000D01*
X188707500Y-104880000D02*
X188707500Y-107120000D01*
X188827500Y-104880000D02*
X188827500Y-107120000D01*
X188947500Y-104880000D02*
X188947500Y-107120000D01*
X192997500Y-106000000D02*
X192347500Y-106000000D01*
X188107500Y-104880000D02*
X192347500Y-104880000D01*
X192347500Y-107120000D01*
X188107500Y-107120000D01*
X188107500Y-104880000D01*
%TO.C,U4*%
X128690000Y-127890000D02*
X133310000Y-127890000D01*
X128690000Y-131150000D02*
X130070000Y-131150000D01*
X128690000Y-134850000D02*
X130070000Y-134850000D01*
X128690000Y-138110000D02*
X128690000Y-127890000D01*
X130070000Y-138110000D02*
X130070000Y-127890000D01*
X133310000Y-127890000D02*
X133310000Y-138110000D01*
X133310000Y-138110000D02*
X128690000Y-138110000D01*
%TO.C,C13*%
X147630000Y-85380000D02*
X150370000Y-85380000D01*
X147630000Y-92620000D02*
X147630000Y-85380000D01*
X150370000Y-85380000D02*
X150370000Y-92620000D01*
X150370000Y-92620000D02*
X147630000Y-92620000D01*
%TO.C,Q1*%
X199507500Y-78850000D02*
X203107500Y-78850000D01*
X199469022Y-78838478D02*
G75*
G02*
X201307500Y-74399999I1838478J1838478D01*
G01*
X201307500Y-74400000D02*
G75*
G02*
X203145978Y-78838478I0J-2600000D01*
G01*
%TO.C,TP3*%
X106620000Y-107620000D02*
X108000000Y-107620000D01*
X106620000Y-109000000D02*
X106620000Y-107620000D01*
X106620000Y-110270000D02*
X106620000Y-110380000D01*
X106620000Y-110270000D02*
X109380000Y-110270000D01*
X106620000Y-110380000D02*
X109380000Y-110380000D01*
X109380000Y-110270000D02*
X109380000Y-110380000D01*
%TD*%
M02*
