M48
; DRILL file {KiCad 9.0.7} date 2026-02-22T15:55:54+0000
; FORMAT={-:-/ absolute / metric / decimal}
; #@! TF.CreationDate,2026-02-22T15:55:54+00:00
; #@! TF.GenerationSoftware,Kicad,Pcbnew,9.0.7
; #@! TF.FileFunction,Plated,1,2,PTH
FMAT,2
METRIC
; #@! TA.AperFunction,Plated,PTH,ViaDrill
T1C0.300
; #@! TA.AperFunction,Plated,PTH,ComponentDrill
T2C0.750
; #@! TA.AperFunction,Plated,PTH,ComponentDrill
T3C0.800
; #@! TA.AperFunction,Plated,PTH,ComponentDrill
T4C0.900
; #@! TA.AperFunction,Plated,PTH,ComponentDrill
T5C1.000
; #@! TA.AperFunction,Plated,PTH,ComponentDrill
T6C1.100
; #@! TA.AperFunction,Plated,PTH,ComponentDrill
T7C1.300
%
G90
G05
T1
X121.0Y-81.0
X121.0Y-90.0
X121.0Y-106.0
X122.0Y-96.0
X123.0Y-117.0
X128.0Y-132.0
X133.0Y-117.0
X134.0Y-122.0
X138.0Y-141.0
X139.076Y-137.924
X145.0Y-117.0
X145.0Y-121.0
X152.0Y-76.0
X153.5Y-142.5
X161.0Y-113.0
X166.0Y-117.0
X168.0Y-121.0
X172.875Y-132.0
X173.0Y-138.0
X173.0Y-140.0
X174.125Y-132.0
X180.0Y-147.0
X181.0Y-144.0
X187.0Y-81.0
X188.0Y-80.0
X189.0Y-90.0
X192.0Y-140.0
X194.09Y-140.0
X197.0Y-101.0
X199.012Y-103.0
T2
X199.73Y-142.0
X199.805Y-112.0
X200.037Y-77.0
X201.0Y-142.0
X201.075Y-112.0
X201.308Y-77.0
X202.27Y-142.0
X202.345Y-112.0
X202.577Y-77.0
T3
X93.92Y-125.005
X104.08Y-125.005
X117.38Y-71.0
X117.38Y-76.08
X118.5Y-93.0
X118.5Y-112.0
X118.5Y-130.0
X118.5Y-142.0
X122.0Y-93.0
X122.0Y-112.0
X122.0Y-130.0
X122.0Y-142.0
X125.0Y-71.0
X125.0Y-76.08
X134.76Y-109.95
X134.76Y-114.0
X134.765Y-106.05
X134.92Y-102.0
X136.11Y-154.0
X137.95Y-131.0
X137.95Y-136.0
X142.95Y-131.0
X142.95Y-136.0
X144.84Y-71.0
X144.92Y-109.95
X144.92Y-114.0
X144.925Y-106.05
X145.08Y-102.0
X146.27Y-154.0
X147.95Y-131.0
X147.95Y-136.0
X149.0Y-86.5
X149.0Y-91.5
X151.03Y-154.0
X153.0Y-116.0
X155.0Y-71.0
X155.195Y-84.19
X155.195Y-86.73
X155.195Y-89.27
X155.195Y-91.81
X155.38Y-122.92
X155.38Y-125.46
X155.38Y-128.0
X155.38Y-130.54
X155.38Y-133.08
X155.38Y-135.62
X155.38Y-138.16
X158.0Y-116.0
X161.19Y-154.0
X162.815Y-84.19
X162.815Y-86.73
X162.815Y-89.27
X162.815Y-91.81
X163.0Y-122.92
X163.0Y-125.46
X163.0Y-128.0
X163.0Y-130.54
X163.0Y-133.08
X163.0Y-135.62
X163.0Y-138.16
X165.11Y-154.0
X166.46Y-71.0
X168.0Y-125.5
X168.0Y-130.5
X168.815Y-79.5
X168.815Y-84.5
X169.0Y-71.0
X171.54Y-71.0
X173.5Y-116.0
X173.5Y-122.0
X173.5Y-128.0
X175.27Y-154.0
X178.5Y-116.0
X178.5Y-122.0
X178.5Y-128.0
X179.38Y-154.0
X186.227Y-85.0
X186.417Y-106.0
X187.0Y-154.0
X193.847Y-85.0
X194.037Y-106.0
T4
X95.0Y-120.005
X97.54Y-120.005
X209.46Y-139.0
X210.46Y-87.0
X210.46Y-109.0
X212.0Y-139.0
X213.0Y-87.0
X213.0Y-109.0
T5
X108.0Y-70.0
X108.0Y-77.0
X108.0Y-85.0
X108.0Y-103.0
X108.0Y-109.0
X108.0Y-115.0
X109.0Y-142.0
X109.0Y-148.0
X154.0Y-111.0
X154.815Y-99.27
X176.0Y-139.0
X178.0Y-103.0
X184.037Y-77.0
X200.73Y-134.0
X201.037Y-69.0
X201.075Y-105.0
T6
X131.95Y-130.46
X131.95Y-133.0
X131.95Y-135.54
X133.0Y-70.0
X133.0Y-72.54
X133.0Y-75.08
T7
X97.962Y-102.92
X97.962Y-108.0
X97.962Y-113.08
X98.0Y-75.0
X98.0Y-80.08
X98.0Y-85.16
X98.0Y-141.0
X98.0Y-146.08
M30
